<svg width="9" height="9" viewBox="0 0 9 9" fill="none" xmlns="http://www.w3.org/2000/svg">
<path d="M8.15097 0.633632C8.30963 0.633632 8.44271 0.687389 8.55023 0.794904C8.65737 0.902045 8.71094 1.03494 8.71094 1.1936V5.67337C8.71094 5.83203 8.65737 5.96511 8.55023 6.07263C8.44271 6.17977 8.30963 6.23334 8.15097 6.23334C7.99231 6.23334 7.85922 6.17977 7.75171 6.07263C7.64457 5.96511 7.591 5.83203 7.591 5.67337V2.53753L1.47332 8.65521C1.37066 8.75787 1.24466 8.8092 1.09534 8.8092C0.946011 8.8092 0.815351 8.75321 0.703358 8.64121C0.600696 8.53855 0.549364 8.40789 0.549364 8.24923C0.549364 8.09058 0.600696 7.95992 0.703358 7.85725L6.80704 1.75357H3.6712C3.51254 1.75357 3.37946 1.69982 3.27194 1.5923C3.1648 1.48516 3.11123 1.35226 3.11123 1.1936C3.11123 1.03494 3.1648 0.902045 3.27194 0.794904C3.37946 0.687389 3.51254 0.633632 3.6712 0.633632H8.15097Z" fill="#0A0A0A"/>
</svg>
