<svg width="9" height="9" viewBox="0 0 9 9" fill="none" xmlns="http://www.w3.org/2000/svg">
<path d="M7.60214 8.80912C7.7608 8.80912 7.89388 8.75536 8.0014 8.64785C8.10854 8.5407 8.16211 8.4078 8.16211 8.24915V3.76938C8.16211 3.61072 8.10854 3.47764 8.0014 3.37012C7.89388 3.26298 7.7608 3.20941 7.60214 3.20941C7.44348 3.20941 7.31039 3.26298 7.20288 3.37012C7.09574 3.47764 7.04217 3.61072 7.04217 3.76938V6.90522L0.924489 0.787537C0.821827 0.684876 0.695834 0.633545 0.546508 0.633545C0.397182 0.633545 0.266523 0.689542 0.15453 0.801536C0.0518675 0.904197 0.000535965 1.03486 0.000535965 1.19352C0.000535965 1.35217 0.0518675 1.48283 0.15453 1.58549L6.25821 7.68918H3.12237C2.96372 7.68918 2.83063 7.74293 2.72311 7.85045C2.61597 7.95759 2.5624 8.09049 2.5624 8.24915C2.5624 8.4078 2.61597 8.5407 2.72311 8.64785C2.83063 8.75536 2.96372 8.80912 3.12237 8.80912H7.60214Z" fill="#0A0A0A"/>
</svg>
