<svg width="43" height="43" viewBox="0 0 43 43" fill="none" xmlns="http://www.w3.org/2000/svg">
<path d="M9.40625 20.1562H36.2812C36.6376 20.1562 36.9794 20.2978 37.2314 20.5498C37.4834 20.8018 37.625 21.1436 37.625 21.5C37.625 21.8564 37.4834 22.1982 37.2314 22.4502C36.9794 22.7022 36.6376 22.8438 36.2812 22.8438H9.40625C9.04987 22.8438 8.70808 22.7022 8.45608 22.4502C8.20407 22.1982 8.0625 21.8564 8.0625 21.5C8.0625 21.1436 8.20407 20.8018 8.45608 20.5498C8.70808 20.2978 9.04987 20.1562 9.40625 20.1562Z" fill="black"/>
<path d="M9.96106 21.4997L21.1061 32.6421C21.3584 32.8944 21.5002 33.2367 21.5002 33.5935C21.5002 33.9503 21.3584 34.2926 21.1061 34.5449C20.8538 34.7972 20.5116 34.9389 20.1547 34.9389C19.7979 34.9389 19.4557 34.7972 19.2034 34.5449L7.10962 22.4511C6.98448 22.3263 6.8852 22.178 6.81746 22.0148C6.74971 21.8515 6.71484 21.6765 6.71484 21.4997C6.71484 21.323 6.74971 21.148 6.81746 20.9847C6.8852 20.8215 6.98448 20.6732 7.10962 20.5484L19.2034 8.45462C19.4557 8.2023 19.7979 8.06055 20.1547 8.06055C20.5116 8.06055 20.8538 8.2023 21.1061 8.45462C21.3584 8.70694 21.5002 9.04916 21.5002 9.40599C21.5002 9.76283 21.3584 10.105 21.1061 10.3574L9.96106 21.4997Z" fill="black"/>
</svg>
