<svg width="20" height="20" viewBox="0 0 20 20" fill="none" xmlns="http://www.w3.org/2000/svg">
<path d="M14.8267 3.29458C15.0601 3.29458 15.2558 3.37365 15.414 3.5318C15.5716 3.6894 15.6504 3.8849 15.6504 4.11828V10.7079C15.6504 10.9412 15.5716 11.137 15.414 11.2951C15.2558 11.4527 15.0601 11.5316 14.8267 11.5316C14.5933 11.5316 14.3975 11.4527 14.2394 11.2951C14.0818 11.137 14.003 10.9412 14.003 10.7079V6.09515L5.00411 15.094C4.85309 15.2451 4.66776 15.3206 4.44811 15.3206C4.22846 15.3206 4.03626 15.2382 3.87152 15.0734C3.72051 14.9224 3.645 14.7302 3.645 14.4969C3.645 14.2635 3.72051 14.0713 3.87152 13.9203L12.8498 4.94197H8.23712C8.00374 4.94197 7.80797 4.8629 7.64982 4.70475C7.49222 4.54715 7.41342 4.35166 7.41342 4.11828C7.41342 3.8849 7.49222 3.6894 7.64982 3.5318C7.80797 3.37365 8.00374 3.29458 8.23712 3.29458H14.8267Z" fill="#FB3838"/>
</svg>
