<svg width="16" height="27" viewBox="0 0 16 27" fill="none" xmlns="http://www.w3.org/2000/svg">
<path d="M3.96106 13.5001L15.1061 24.6425C15.3584 24.8948 15.5002 25.237 15.5002 25.5939C15.5002 25.9507 15.3584 26.2929 15.1061 26.5452C14.8538 26.7976 14.5116 26.9393 14.1547 26.9393C13.7979 26.9393 13.4557 26.7976 13.2034 26.5452L1.10962 14.4515C0.984482 14.3267 0.885198 14.1784 0.817456 14.0151C0.749714 13.8519 0.714844 13.6769 0.714844 13.5001C0.714844 13.3234 0.749714 13.1483 0.817456 12.9851C0.885198 12.8218 0.984482 12.6736 1.10962 12.5487L13.2034 0.454985C13.4557 0.202665 13.7979 0.0609131 14.1547 0.0609131C14.5116 0.0609131 14.8538 0.202665 15.1061 0.454985C15.3584 0.707306 15.5002 1.04953 15.5002 1.40636C15.5002 1.7632 15.3584 2.10542 15.1061 2.35774L3.96106 13.5001Z" fill="black"/>
</svg>
