<svg width="31" height="30" viewBox="0 0 31 30" fill="none" xmlns="http://www.w3.org/2000/svg">
<rect width="31" height="30" fill="#F5F5F5"/>
<rect width="1512" height="982" transform="translate(-1205 -60)" fill="white"/>
<g clip-path="url(#clip0_0_1)">
<path d="M29.7491 26.1797C28.8074 25.3401 27.9829 24.3777 27.2979 23.3182C26.55 21.8558 26.1018 20.2588 25.9794 18.6208V13.7964C25.9859 11.2236 25.0527 8.73709 23.3551 6.80391C21.6575 4.87073 19.3124 3.62399 16.7604 3.29795V2.03813C16.7604 1.69236 16.623 1.36074 16.3785 1.11624C16.134 0.871735 15.8024 0.734375 15.4566 0.734375C15.1108 0.734375 14.7792 0.871735 14.5347 1.11624C14.2902 1.36074 14.1528 1.69236 14.1528 2.03813V3.31748C11.6237 3.66703 9.30692 4.9213 7.63162 6.84799C5.95632 8.77467 5.03602 11.2432 5.04117 13.7964V18.6208C4.91885 20.2588 4.47062 21.8558 3.72276 23.3182C3.04977 24.3752 2.23852 25.3376 1.31056 26.1797C1.20639 26.2712 1.1229 26.3838 1.06565 26.5101C1.00839 26.6364 0.978691 26.7734 0.978516 26.9121V28.2403C0.978516 28.4993 1.08141 28.7477 1.26455 28.9308C1.4477 29.114 1.6961 29.2169 1.95511 29.2169H29.1046C29.3636 29.2169 29.612 29.114 29.7951 28.9308C29.9783 28.7477 30.0812 28.4993 30.0812 28.2403V26.9121C30.081 26.7734 30.0513 26.6364 29.994 26.5101C29.9368 26.3838 29.8533 26.2712 29.7491 26.1797ZM3.00984 27.2637C3.91848 26.3859 4.7185 25.4023 5.39274 24.3339C6.33478 22.5677 6.88443 20.6189 7.00413 18.6208V13.7964C6.9654 12.6518 7.15738 11.5112 7.56865 10.4424C7.97991 9.37362 8.60205 8.39851 9.39802 7.57516C10.194 6.7518 11.1475 6.09704 12.2018 5.64986C13.256 5.20269 14.3895 4.97223 15.5347 4.97223C16.6799 4.97223 17.8134 5.20269 18.8677 5.64986C19.922 6.09704 20.8755 6.7518 21.6714 7.57516C22.4674 8.39851 23.0895 9.37362 23.5008 10.4424C23.9121 11.5112 24.104 12.6518 24.0653 13.7964V18.6208C24.185 20.6189 24.7347 22.5677 25.6767 24.3339C26.3509 25.4023 27.151 26.3859 28.0596 27.2637H3.00984Z" fill="black"/>
</g>
<circle cx="23.771" cy="16.5932" r="5.59325" fill="#28A9F1"/>
<defs>
<clipPath id="clip0_0_1">
<rect width="35.1576" height="35.1576" fill="white" transform="translate(-2 -1)"/>
</clipPath>
</defs>
</svg>
