<svg width="32" height="32" viewBox="0 0 32 32" fill="none" xmlns="http://www.w3.org/2000/svg">
<circle cx="15.55" cy="15.55" r="15.55" fill="#FF9900"/>
<path d="M13.3338 20.6009V21.7053C13.3338 21.8273 13.4328 21.9262 13.5547 21.9262H14.4382C14.4968 21.9262 14.553 21.903 14.5944 21.8615C14.6358 21.8201 14.6591 21.7639 14.6591 21.7053V20.6009H15.1009V21.7053C15.1009 21.8273 15.1998 21.9262 15.3217 21.9262H16.2053C16.2638 21.9262 16.32 21.903 16.3615 21.8615C16.4029 21.8201 16.4261 21.7639 16.4261 21.7053V20.6009H16.5004C18.2603 20.6009 19.5185 19.6883 19.5185 18.1094C19.5185 16.7824 18.6288 16.057 17.5871 15.9536V15.8759C18.4441 15.662 19.0741 15.0153 19.0741 13.9409C19.0741 12.5874 18.058 11.7657 16.5074 11.7657H16.4261V10.6613C16.4261 10.6027 16.4029 10.5465 16.3615 10.5051C16.32 10.4637 16.2638 10.4404 16.2053 10.4404H15.3217C15.2632 10.4404 15.207 10.4637 15.1656 10.5051C15.1241 10.5465 15.1009 10.6027 15.1009 10.6613V11.7657H14.5946V10.6613C14.5946 10.6027 14.5713 10.5465 14.5299 10.5051C14.4885 10.4637 14.4323 10.4404 14.3737 10.4404H13.5547C13.4961 10.4404 13.4399 10.4637 13.3985 10.5051C13.3571 10.5465 13.3338 10.6027 13.3338 10.6613V11.7657L11.5685 11.7754C11.51 11.7754 11.4538 11.7987 11.4124 11.8401C11.3709 11.8816 11.3477 11.9377 11.3477 11.9963V12.8701C11.3477 12.9912 11.4448 13.091 11.5668 13.091L12.2338 13.0866C12.4088 13.0877 12.5762 13.1581 12.6995 13.2822C12.8229 13.4064 12.8921 13.5742 12.8921 13.7492V18.613C12.8921 18.7888 12.8222 18.9573 12.698 19.0816C12.5737 19.2058 12.4052 19.2757 12.2294 19.2757L11.5685 19.2854C11.51 19.2854 11.4538 19.3086 11.4124 19.3501C11.3709 19.3915 11.3477 19.4477 11.3477 19.5063V20.3898C11.3477 20.5117 11.4466 20.6107 11.5685 20.6107L13.3338 20.6009ZM14.5946 13.0795H16.1134C16.9139 13.0795 17.3839 13.5195 17.3839 14.2387C17.3839 15.0082 16.8759 15.4421 15.7255 15.4421H14.5946V13.0795ZM14.5946 16.6587H16.2203C17.2249 16.6587 17.7718 17.1711 17.7718 18.0052C17.7718 18.8471 17.2187 19.2863 15.8651 19.2863H14.5946V16.6595V16.6587Z" fill="white"/>
</svg>
