<svg width="20" height="20" viewBox="0 0 20 20" fill="none" xmlns="http://www.w3.org/2000/svg">
<path d="M7.36833 15.5863V17.0813C7.36833 17.2464 7.50228 17.3803 7.66733 17.3803H8.86334C8.94264 17.3803 9.0187 17.3488 9.07477 17.2927C9.13084 17.2367 9.16235 17.1606 9.16235 17.0813V15.5863H9.76035V17.0813C9.76035 17.2464 9.89431 17.3803 10.0594 17.3803H11.2554C11.3347 17.3803 11.4107 17.3488 11.4668 17.2927C11.5229 17.2367 11.5544 17.1606 11.5544 17.0813V15.5863H11.6548C14.0373 15.5863 15.7404 14.3508 15.7404 12.2135C15.7404 10.4171 14.536 9.43521 13.1259 9.29528V9.19003C14.2861 8.90059 15.1388 8.02511 15.1388 6.57076C15.1388 4.73847 13.7634 3.62617 11.6644 3.62617H11.5544V2.13116C11.5544 2.05186 11.5229 1.9758 11.4668 1.91973C11.4107 1.86366 11.3347 1.83215 11.2554 1.83215H10.0594C9.98005 1.83215 9.904 1.86366 9.84793 1.91973C9.79185 1.9758 9.76035 2.05186 9.76035 2.13116V3.62617H9.07504V2.13116C9.07504 2.05186 9.04353 1.9758 8.98746 1.91973C8.93139 1.86366 8.85533 1.83215 8.77603 1.83215H7.66733C7.58803 1.83215 7.51198 1.86366 7.4559 1.91973C7.39983 1.9758 7.36833 2.05186 7.36833 2.13116V3.62617L4.97869 3.63933C4.89939 3.63933 4.82334 3.67083 4.76726 3.72691C4.71119 3.78298 4.67969 3.85903 4.67969 3.93833V5.12119C4.67969 5.28504 4.81125 5.42019 4.9763 5.42019L5.87929 5.41421C6.11615 5.41579 6.34278 5.51099 6.50971 5.67905C6.67664 5.8471 6.77032 6.07435 6.77032 6.31122V12.8953C6.77032 13.1332 6.67581 13.3613 6.50759 13.5296C6.33937 13.6978 6.11121 13.7923 5.87331 13.7923L4.97869 13.8054C4.89939 13.8054 4.82334 13.8369 4.76726 13.893C4.71119 13.9491 4.67969 14.0251 4.67969 14.1044V15.3005C4.67969 15.4655 4.81364 15.5995 4.97869 15.5995L7.36833 15.5863ZM9.07504 5.40464H11.131C12.2146 5.40464 12.8509 6.00026 12.8509 6.97381C12.8509 8.01554 12.1631 8.60278 10.6059 8.60278H9.07504V5.40464ZM9.07504 10.2497H11.2757C12.6356 10.2497 13.3759 10.9434 13.3759 12.0724C13.3759 13.2122 12.6272 13.8066 10.7949 13.8066H9.07504V10.2509V10.2497Z" fill="white"/>
</svg>
