<svg width="23" height="17" viewBox="0 0 23 17" fill="none" xmlns="http://www.w3.org/2000/svg">
<path opacity="0.82" d="M11.6976 12.7158C14.894 12.7158 17.4851 10.1246 17.4851 6.92829C17.4851 3.73195 14.894 1.14081 11.6976 1.14081C8.5013 1.14081 5.91016 3.73195 5.91016 6.92829C5.91016 10.1246 8.5013 12.7158 11.6976 12.7158Z" fill="url(#paint0_linear_139_3916)"/>
<path opacity="0.72" d="M21.3469 11.4786C21.3469 12.5266 20.9306 13.5317 20.1895 14.2727C19.4485 15.0138 18.4434 15.4301 17.3954 15.4301C16.6808 15.4319 15.9795 15.2374 15.3679 14.8678L8.81445 14.9468L13.6779 10.1958C13.9932 9.32633 14.6036 8.59499 15.4026 8.12919C16.2017 7.66339 17.1388 7.49265 18.0508 7.64669C18.9628 7.80074 19.7919 8.26982 20.3936 8.97224C20.9953 9.67465 21.3316 10.5659 21.3439 11.4907L21.3469 11.4786Z" fill="url(#paint1_linear_139_3916)"/>
<path opacity="0.84" d="M6.15796 15.6429C9.13606 15.6429 11.5503 13.2287 11.5503 10.2506C11.5503 7.2725 9.13606 4.85828 6.15796 4.85828C3.17985 4.85828 0.765625 7.2725 0.765625 10.2506C0.765625 13.2287 3.17985 15.6429 6.15796 15.6429Z" fill="url(#paint2_linear_139_3916)"/>
<path d="M16.8818 15.3055C17.3532 15.3906 17.836 15.3906 18.3074 15.3055C19.2873 15.1319 20.168 14.6014 20.7797 13.8165C21.3914 13.0316 21.6906 12.048 21.6196 11.0554C21.5485 10.0629 21.1123 9.13182 20.3951 8.44203C19.6779 7.75224 18.7305 7.35262 17.736 7.32032H17.5931C16.7727 7.31844 15.9715 7.56887 15.2982 8.03768V8.03768C14.9419 8.2895 14.6288 8.59747 14.3711 8.94957" stroke="white" stroke-width="1.1062" stroke-miterlimit="10"/>
<path d="M17.7344 7.32034C17.7344 7.20483 17.7344 7.08933 17.7344 6.97382C17.7343 6.57154 17.6936 6.17029 17.6129 5.7762C17.3497 4.50391 16.6739 3.35408 15.6903 2.50515C14.7068 1.65622 13.4706 1.15567 12.1735 1.08118C10.8764 1.00669 9.59099 1.36244 8.51675 2.0932C7.44252 2.82396 6.63954 3.88888 6.23242 5.12268" stroke="white" stroke-width="1.1062" stroke-miterlimit="10"/>
<path d="M10.4788 12.7157C10.4393 12.7157 10.3998 12.6975 10.3633 12.6884" stroke="white" stroke-width="1.52891" stroke-miterlimit="10"/>
<path d="M9.65944 6.85521C8.95562 6.05688 8.02321 5.49444 6.98876 5.24422C5.9543 4.99401 4.86791 5.06815 3.87704 5.45658C2.88617 5.845 2.03881 6.5289 1.44998 7.41545C0.861142 8.302 0.559347 9.34826 0.585558 10.4122C0.611769 11.4762 0.964715 12.5063 1.59649 13.3628C2.22827 14.2193 3.10827 14.8606 4.11707 15.1998C5.12586 15.5389 6.21459 15.5595 7.23546 15.2587C8.25634 14.9578 9.15993 14.3501 9.82358 13.5181" stroke="white" stroke-width="1.1062" stroke-miterlimit="10"/>
<path d="M7.08145 15.3389H6.93555H7.6833H16.7506H17.2643" stroke="white" stroke-width="1.1062" stroke-miterlimit="10"/>
<path d="M8.02734 15.3055L8.93316 14.3905L9.9028 13.4118L11.3862 11.9132L12.3041 10.9801L12.3132 10.974L14.596 8.66992" stroke="white" stroke-width="1.1062" stroke-miterlimit="10"/>
<defs>
<linearGradient id="paint0_linear_139_3916" x1="5.91016" y1="6.92829" x2="17.4851" y2="6.92829" gradientUnits="userSpaceOnUse">
<stop stop-color="#002FD4"/>
<stop offset="1" stop-color="#00E0FF"/>
</linearGradient>
<linearGradient id="paint1_linear_139_3916" x1="8.82357" y1="11.4755" x2="21.3469" y2="11.4755" gradientUnits="userSpaceOnUse">
<stop stop-color="#61DDFA"/>
<stop offset="1" stop-color="#AD23C0"/>
</linearGradient>
<linearGradient id="paint2_linear_139_3916" x1="0.765625" y1="10.2506" x2="11.5503" y2="10.2506" gradientUnits="userSpaceOnUse">
<stop offset="0.04" stop-color="#3B23C0"/>
<stop offset="0.17" stop-color="#251A9D"/>
<stop offset="0.31" stop-color="#10107B"/>
<stop offset="0.39" stop-color="#080D6E"/>
<stop offset="0.48" stop-color="#0A1171"/>
<stop offset="0.56" stop-color="#0F1D79"/>
<stop offset="0.65" stop-color="#173186"/>
<stop offset="0.73" stop-color="#234D99"/>
<stop offset="0.81" stop-color="#3370B1"/>
<stop offset="0.9" stop-color="#459CCF"/>
<stop offset="0.98" stop-color="#5BCFF1"/>
<stop offset="1" stop-color="#61DDFA"/>
</linearGradient>
</defs>
</svg>
