<svg width="212" height="37" viewBox="0 0 212 37" fill="none" xmlns="http://www.w3.org/2000/svg">
<path d="M45.3059 17.2632C45.3059 24.727 49.3437 28.3059 58.7651 28.3059C67.3607 28.3059 71.7961 25.2776 72.1326 18.4868H63.9959C63.69 20.5362 62.1299 21.5763 58.7651 21.5763C54.085 21.5763 53.2591 19.5574 53.2591 17.2632C53.2591 14.9996 54.0544 13.0113 58.7651 13.0113C62.1299 13.0113 63.69 14.0207 63.9959 16.0396H72.1326C71.7961 9.27942 67.3301 6.28168 58.7651 6.28168C49.3437 6.28168 45.3059 9.83002 45.3059 17.2632ZM73.0644 3.52865V28H80.4058V3.52865H73.0644ZM93.8122 28.3059C101.612 28.3059 106.293 25.614 106.293 18.8232C106.293 12.0324 101.612 9.3406 93.8122 9.3406C86.012 9.3406 81.3318 12.0324 81.3318 18.8232C81.3318 25.614 86.012 28.3059 93.8122 28.3059ZM93.8122 22.1881C90.5392 22.1881 88.6732 21.5151 88.6732 18.8232C88.6732 16.1314 90.5392 15.4584 93.8122 15.4584C97.0853 15.4584 98.9512 16.1314 98.9512 18.8232C98.9512 21.5151 97.0853 22.1881 93.8122 22.1881ZM124.889 9.64649V19.5574C123.451 20.9339 121.157 21.8822 118.985 21.8822C115.682 21.8822 114.55 20.5362 114.55 17.3856V9.64649H107.208V20.3833C107.208 27.0211 111.889 28.3059 116.018 28.3059C119.872 28.3059 122.686 27.0823 124.889 25.5529V28H132.23V9.64649H124.889ZM150.78 3.52865V12.1548C148.852 10.1971 146.038 9.3406 143.193 9.3406C138.452 9.3406 133.16 11.4207 133.16 18.8232C133.16 26.2258 138.452 28.3059 143.193 28.3059C146.038 28.3059 148.852 27.4494 150.78 25.4917V28H158.121V3.52865H150.78ZM145.641 22.1881C142.368 22.1881 140.502 21.5151 140.502 18.8232C140.502 16.1314 142.368 15.4584 145.641 15.4584C148.914 15.4584 150.78 16.1314 150.78 18.8232C150.78 21.5151 148.914 22.1881 145.641 22.1881ZM171.571 9.3406C168.176 9.3406 164.199 10.0136 160.528 11.2065L162.914 16.4067C166.279 15.6726 168.971 15.4584 171.326 15.4584C173.774 15.4584 176.098 15.5502 176.098 17.7526C174.416 17.1408 172.458 16.8044 169.889 16.8044C164.536 16.8044 159.03 18.0585 159.03 22.8304C159.03 26.807 162.7 28.3059 166.891 28.3059C170.072 28.3059 173.254 27.8471 176.098 25.767V28H183.44V18.915C183.379 11.9101 179.096 9.3406 171.571 9.3406ZM176.098 22.0045C174.263 22.7998 171.571 23.4116 169.093 23.4116C167.227 23.4116 166.371 23.2587 166.371 22.2492C166.371 21.0868 167.839 20.781 171.235 20.781C173.345 20.781 174.936 20.9339 176.098 21.2398V22.0045ZM184.062 28H193.545L197.705 22.6469L201.865 28H211.348L202.905 18.8232L211.348 9.64649H201.865L197.705 14.9996L193.545 9.64649H184.062L192.505 18.8232L184.062 28Z" fill="#1E1E1E"/>
<path opacity="0.82" d="M18.1311 24.9516C23.0586 24.9516 27.0531 20.957 27.0531 16.0295C27.0531 11.102 23.0586 7.10742 18.1311 7.10742C13.2035 7.10742 9.20898 11.102 9.20898 16.0295C9.20898 20.957 13.2035 24.9516 18.1311 24.9516Z" fill="url(#paint0_linear_275_2634)"/>
<path opacity="0.72" d="M33.0077 23.0431C33.0077 24.6588 32.3659 26.2082 31.2235 27.3507C30.0811 28.4931 28.5316 29.1349 26.916 29.1349C25.8144 29.1377 24.7332 28.8379 23.7904 28.268L13.6875 28.3898L21.185 21.0657C21.6712 19.7252 22.6121 18.5978 23.8439 17.8797C25.0758 17.1616 26.5205 16.8984 27.9264 17.1359C29.3324 17.3734 30.6105 18.0965 31.5381 19.1794C32.4658 20.2622 32.9842 21.6362 33.003 23.0619L33.0077 23.0431Z" fill="url(#paint1_linear_275_2634)"/>
<path opacity="0.84" d="M9.5922 29.4637C14.1833 29.4637 17.9051 25.7419 17.9051 21.1508C17.9051 16.5597 14.1833 12.8379 9.5922 12.8379C5.00111 12.8379 1.2793 16.5597 1.2793 21.1508C1.2793 25.7419 5.00111 29.4637 9.5922 29.4637Z" fill="url(#paint2_linear_275_2634)"/>
<path d="M26.1245 28.9429C26.8512 29.074 27.5955 29.074 28.3222 28.9429C29.8328 28.6752 31.1906 27.8575 32.1336 26.6475C33.0765 25.4375 33.5378 23.921 33.4283 22.3909C33.3188 20.8608 32.6463 19.4255 31.5406 18.3621C30.4349 17.2987 28.9745 16.6826 27.4413 16.6328H27.221C25.9562 16.6299 24.7211 17.016 23.6831 17.7387V17.7387C23.1338 18.1269 22.6511 18.6017 22.2539 19.1445" stroke="#1E1E1E" stroke-width="1.69519" stroke-miterlimit="10"/>
<path d="M27.4407 16.6333C27.4407 16.4553 27.4407 16.2772 27.4407 16.0991C27.4405 15.479 27.3777 14.8604 27.2532 14.2529C26.8475 12.2915 25.8057 10.5189 24.2894 9.21017C22.7732 7.90145 20.8674 7.12979 18.8678 7.01497C16.8682 6.90014 14.8866 7.44856 13.2305 8.57511C11.5745 9.70167 10.3366 11.3434 9.70898 13.2454" stroke="#1E1E1E" stroke-width="1.69519" stroke-miterlimit="10"/>
<path d="M16.2562 24.9504C16.1953 24.9504 16.1344 24.9223 16.0781 24.9082" stroke="#1E1E1E" stroke-width="2.34298" stroke-miterlimit="10"/>
<path d="M14.9909 15.9166C13.9059 14.6859 12.4684 13.8188 10.8737 13.4331C9.27897 13.0473 7.60417 13.1616 6.07663 13.7604C4.54909 14.3592 3.24279 15.4135 2.33503 16.7803C1.42727 18.147 0.962019 19.7599 1.00243 21.4001C1.04283 23.0403 1.58694 24.6284 2.5609 25.9488C3.53485 27.2691 4.89148 28.2578 6.44666 28.7807C8.00183 29.3036 9.68022 29.3352 11.254 28.8715C12.8278 28.4077 14.2208 27.4709 15.2439 26.1882" stroke="#1E1E1E" stroke-width="1.69519" stroke-miterlimit="10"/>
<path d="M11.0179 28.9941H10.793H11.9457H25.9239H26.7159" stroke="#1E1E1E" stroke-width="1.69519" stroke-miterlimit="10"/>
<path d="M12.4746 28.9443L13.871 27.5338L15.3658 26.0249L17.6526 23.7148L19.0678 22.2762L19.0818 22.2668L22.601 18.7148" stroke="#1E1E1E" stroke-width="1.69519" stroke-miterlimit="10"/>
<defs>
<linearGradient id="paint0_linear_275_2634" x1="9.20898" y1="16.0295" x2="27.0531" y2="16.0295" gradientUnits="userSpaceOnUse">
<stop stop-color="#002FD4"/>
<stop offset="1" stop-color="#00E0FF"/>
</linearGradient>
<linearGradient id="paint1_linear_275_2634" x1="13.7016" y1="23.0385" x2="33.0077" y2="23.0385" gradientUnits="userSpaceOnUse">
<stop stop-color="#61DDFA"/>
<stop offset="1" stop-color="#AD23C0"/>
</linearGradient>
<linearGradient id="paint2_linear_275_2634" x1="1.2793" y1="21.1508" x2="17.9051" y2="21.1508" gradientUnits="userSpaceOnUse">
<stop offset="0.04" stop-color="#3B23C0"/>
<stop offset="0.17" stop-color="#251A9D"/>
<stop offset="0.31" stop-color="#10107B"/>
<stop offset="0.39" stop-color="#080D6E"/>
<stop offset="0.48" stop-color="#0A1171"/>
<stop offset="0.56" stop-color="#0F1D79"/>
<stop offset="0.65" stop-color="#173186"/>
<stop offset="0.73" stop-color="#234D99"/>
<stop offset="0.81" stop-color="#3370B1"/>
<stop offset="0.9" stop-color="#459CCF"/>
<stop offset="0.98" stop-color="#5BCFF1"/>
<stop offset="1" stop-color="#61DDFA"/>
</linearGradient>
</defs>
</svg>
