<svg width="14" height="14" viewBox="0 0 14 14" fill="none" xmlns="http://www.w3.org/2000/svg">
<path d="M9.62695 4.81262C9.62695 4.69659 9.67305 4.58531 9.75509 4.50326C9.83714 4.42122 9.94842 4.37512 10.0645 4.37512H11.8145C11.9305 4.37512 12.0418 4.42122 12.1238 4.50326C12.2059 4.58531 12.252 4.69659 12.252 4.81262V5.68762C12.252 5.80365 12.2059 5.91493 12.1238 5.99698C12.0418 6.07903 11.9305 6.12512 11.8145 6.12512H10.0645C9.94842 6.12512 9.83714 6.07903 9.75509 5.99698C9.67305 5.91493 9.62695 5.80365 9.62695 5.68762V4.81262Z" fill="white"/>
<path d="M1.75 1.75024C1.28587 1.75024 0.840752 1.93462 0.512563 2.26281C0.184374 2.591 0 3.03612 0 3.50024L0 10.5002C0 10.9644 0.184374 11.4095 0.512563 11.7377C0.840752 12.0659 1.28587 12.2502 1.75 12.2502H12.25C12.7141 12.2502 13.1592 12.0659 13.4874 11.7377C13.8156 11.4095 14 10.9644 14 10.5002V3.50024C14 3.03612 13.8156 2.591 13.4874 2.26281C13.1592 1.93462 12.7141 1.75024 12.25 1.75024H1.75ZM13.125 3.50024V7.87524H0.875V3.50024C0.875 3.26818 0.967187 3.04562 1.13128 2.88153C1.29538 2.71743 1.51794 2.62524 1.75 2.62524H12.25C12.4821 2.62524 12.7046 2.71743 12.8687 2.88153C13.0328 3.04562 13.125 3.26818 13.125 3.50024ZM12.25 11.3752H1.75C1.51794 11.3752 1.29538 11.2831 1.13128 11.119C0.967187 10.9549 0.875 10.7323 0.875 10.5002V9.62524H13.125V10.5002C13.125 10.7323 13.0328 10.9549 12.8687 11.119C12.7046 11.2831 12.4821 11.3752 12.25 11.3752Z" fill="white"/>
</svg>
