<svg width="43" height="44" viewBox="0 0 43 44" fill="none" xmlns="http://www.w3.org/2000/svg">
<rect width="43" height="44" fill="#F5F5F5"/>
<g id="MacBook Pro 14&#34; - 44" clip-path="url(#clip0_0_1)">
<rect width="1512" height="982" transform="translate(-1163 -547)" fill="white"/>
<g id="Frame 264">
<g id="Button">
<rect id="Rectangle 2" x="-396.839" y="-21.1408" width="484.204" height="86.6423" rx="18.4752" stroke="black" stroke-width="1.27415"/>
<g id="Group 35">
<circle id="Ellipse 34" cx="21.4508" cy="21.8097" r="21.3493" fill="#DEDEDE"/>
<g id="vuesax/linear/trash">
<g id="vuesax/linear/trash_2">
<g id="trash">
<path id="Vector" d="M32.4168 14.286C28.5739 13.9052 24.708 13.709 20.8536 13.709C18.5686 13.709 16.2837 13.8244 13.9987 14.0552L11.6445 14.286" stroke="#ED3232" stroke-width="1.73102" stroke-linecap="round" stroke-linejoin="round"/>
<path id="Vector_2" d="M17.9902 13.1203L18.2441 11.6085C18.4288 10.5122 18.5672 9.69287 20.5175 9.69287H23.541C25.4913 9.69287 25.6413 10.5584 25.8145 11.6201L26.0683 13.1203" stroke="#ED3232" stroke-width="1.73102" stroke-linecap="round" stroke-linejoin="round"/>
<path id="Vector_3" d="M29.935 17.9326L29.1849 29.5535C29.0579 31.3653 28.9541 32.7732 25.7344 32.7732H18.3256C15.1059 32.7732 15.0021 31.3653 14.8751 29.5535L14.125 17.9326" stroke="#ED3232" stroke-width="1.73102" stroke-linecap="round" stroke-linejoin="round"/>
<path id="Vector_4" d="M20.1035 26.4258H23.9464" stroke="#ED3232" stroke-width="1.73102" stroke-linecap="round" stroke-linejoin="round"/>
<path id="Vector_5" d="M19.1445 21.8101H24.9146" stroke="#ED3232" stroke-width="1.73102" stroke-linecap="round" stroke-linejoin="round"/>
</g>
</g>
</g>
</g>
</g>
</g>
</g>
<defs>
<clipPath id="clip0_0_1">
<rect width="1512" height="982" fill="white" transform="translate(-1163 -547)"/>
</clipPath>
</defs>
</svg>
