<svg width="190" height="195" viewBox="0 0 190 195" fill="none" xmlns="http://www.w3.org/2000/svg">
<path d="M1.80446 72.63L184.302 70.9282L189.649 194.997L0.671875 193.64L1.80446 72.63Z" fill="#28A9F1"/>
<path d="M1.80859 72.6314L88.0356 2.55975C91.6864 -0.406858 96.9182 -0.401115 100.563 2.57124L184.307 70.9239" fill="#28A9F1"/>
<path d="M1.80859 72.6314L88.0356 2.55975C91.6864 -0.406858 96.9182 -0.401115 100.563 2.57124L184.307 70.9239" fill="#28A9F1"/>
<path d="M0.674558 193.641C0.444589 193.429 15.0247 177.446 33.2325 157.944C51.446 138.437 66.3883 122.805 66.6183 123.018C66.8482 123.23 52.2739 139.208 34.0604 158.715C15.8468 178.216 0.898779 193.854 0.674558 193.641Z" fill="#28A9F1"/>
<path d="M189.65 194.998C189.414 195.205 175.156 179.607 157.799 160.158C140.437 140.702 126.558 124.771 126.788 124.564C127.018 124.357 141.282 139.955 158.639 159.41C176.001 178.854 189.88 194.791 189.65 194.998Z" fill="#28A9F1"/>
<g opacity="0.5">
<g opacity="0.5">
<g opacity="0.5">
<path opacity="0.5" d="M184.307 70.9287L92.819 144.329L1.80859 72.6305" fill="#28A9F1"/>
</g>
</g>
</g>
<path d="M10.1404 78.6339L9.81269 32.5537C9.78394 28.489 13.0438 25.1602 17.1085 25.1027L162.3 23.0848C166.336 23.0273 169.67 26.2123 169.797 30.2483L171.372 79.2433C171.447 81.5832 170.412 83.8139 168.584 85.2742L96.5284 142.56C93.8493 144.687 90.0605 144.704 87.3641 142.594L12.9805 84.4118C11.204 83.0148 10.1576 80.8876 10.1404 78.6339Z" fill="#F0F0F0"/>
<path d="M145.209 48.9211C145.209 49.1051 120.775 49.4558 90.632 49.703C60.483 49.9503 36.043 49.9963 36.043 49.8123C36.043 49.6283 60.4772 49.2776 90.6262 49.0304C120.769 48.7889 145.209 48.7372 145.209 48.9211Z" fill="#242161"/>
<path d="M145.184 70.8547C145.184 71.0387 120.75 71.3894 90.6066 71.6366C60.4576 71.8838 36.0176 71.9298 36.0176 71.7459C36.0176 71.5619 60.4518 71.2112 90.6008 70.964C120.744 70.7225 145.184 70.6708 145.184 70.8547Z" fill="#242161"/>
<path d="M145.184 92.7878C145.184 92.9718 120.75 93.3225 90.6066 93.5697C60.4576 93.8169 36.0176 93.8629 36.0176 93.679C36.0176 93.495 60.4518 93.1443 90.6008 92.8971C120.744 92.6556 145.184 92.6039 145.184 92.7878Z" fill="#242161"/>
</svg>
