<svg width="43" height="43" viewBox="0 0 43 43" fill="none" xmlns="http://www.w3.org/2000/svg">
<path d="M9.40625 20.1562H36.2812C36.6376 20.1562 36.9794 20.2978 37.2314 20.5498C37.4834 20.8018 37.625 21.1436 37.625 21.5C37.625 21.8564 37.4834 22.1982 37.2314 22.4502C36.9794 22.7022 36.6376 22.8438 36.2812 22.8438H9.40625C9.04987 22.8438 8.70808 22.7022 8.45608 22.4502C8.20407 22.1982 8.0625 21.8564 8.0625 21.5C8.0625 21.1436 8.20407 20.8018 8.45608 20.5498C8.70808 20.2978 9.04987 20.1562 9.40625 20.1562Z" fill="black"/>
<path d="M9.96106 21.5001L21.1061 32.6425C21.3584 32.8948 21.5002 33.237 21.5002 33.5939C21.5002 33.9507 21.3584 34.2929 21.1061 34.5452C20.8538 34.7976 20.5116 34.9393 20.1547 34.9393C19.7979 34.9393 19.4557 34.7976 19.2034 34.5452L7.10962 22.4515C6.98448 22.3267 6.8852 22.1784 6.81746 22.0151C6.74971 21.8519 6.71484 21.6769 6.71484 21.5001C6.71484 21.3234 6.74971 21.1483 6.81746 20.9851C6.8852 20.8218 6.98448 20.6736 7.10962 20.5487L19.2034 8.45499C19.4557 8.20266 19.7979 8.06091 20.1547 8.06091C20.5116 8.06091 20.8538 8.20266 21.1061 8.45499C21.3584 8.70731 21.5002 9.04953 21.5002 9.40636C21.5002 9.7632 21.3584 10.1054 21.1061 10.3577L9.96106 21.5001Z" fill="black"/>
</svg>
