<svg width="17" height="17" viewBox="0 0 17 17" fill="none" xmlns="http://www.w3.org/2000/svg">
<path d="M14.7765 7.64582C15.1019 8.07145 15.1019 8.64606 14.7765 9.07101C13.7516 10.409 11.2925 13.164 8.42153 13.164C5.55056 13.164 3.09148 10.409 2.06653 9.07101C1.90821 8.86721 1.82227 8.61648 1.82227 8.35841C1.82227 8.10034 1.90821 7.84962 2.06653 7.64582C3.09148 6.30781 5.55056 3.55286 8.42153 3.55286C11.2925 3.55286 13.7516 6.30781 14.7765 7.64582V7.64582Z" stroke="white" stroke-width="1.37302" stroke-linecap="round" stroke-linejoin="round"/>
<path d="M8.42281 10.4179C9.56025 10.4179 10.4823 9.4958 10.4823 8.35835C10.4823 7.22091 9.56025 6.29883 8.42281 6.29883C7.28536 6.29883 6.36328 7.22091 6.36328 8.35835C6.36328 9.4958 7.28536 10.4179 8.42281 10.4179Z" stroke="white" stroke-width="1.37302" stroke-linecap="round" stroke-linejoin="round"/>
</svg>
