<svg width="20" height="20" viewBox="0 0 20 20" fill="none" xmlns="http://www.w3.org/2000/svg">
<path d="M14.8267 16.474C15.0601 16.474 15.2558 16.3949 15.414 16.2368C15.5716 16.0792 15.6504 15.8837 15.6504 15.6503V9.0607C15.6504 8.82732 15.5716 8.63156 15.414 8.47341C15.2558 8.3158 15.0601 8.237 14.8267 8.237C14.5933 8.237 14.3975 8.3158 14.2394 8.47341C14.0818 8.63156 14.003 8.82732 14.003 9.0607V13.6734L5.00411 4.67451C4.85309 4.5235 4.66776 4.448 4.44811 4.448C4.22846 4.448 4.03626 4.53037 3.87152 4.69511C3.72051 4.84612 3.645 5.03831 3.645 5.2717C3.645 5.50508 3.72051 5.69727 3.87152 5.84828L12.8498 14.8266H8.23712C8.00374 14.8266 7.80797 14.9057 7.64982 15.0638C7.49222 15.2214 7.41342 15.4169 7.41342 15.6503C7.41342 15.8837 7.49222 16.0792 7.64982 16.2368C7.80797 16.3949 8.00374 16.474 8.23712 16.474H14.8267Z" fill="#6AFB38"/>
</svg>
