<svg width="29" height="29" viewBox="0 0 29 29" fill="none" xmlns="http://www.w3.org/2000/svg">
<path d="M27.4884 12.9794L25.5945 10.779C25.2324 10.3613 24.94 9.5814 24.94 9.02435V6.65691C24.94 5.18073 23.7284 3.96916 22.2522 3.96916H19.8848C19.3416 3.96916 18.5479 3.67671 18.1301 3.31463L15.9297 1.42068C14.9688 0.599033 13.3952 0.599033 12.4203 1.42068L10.2339 3.32856C9.81616 3.67671 9.02237 3.96916 8.47925 3.96916H6.07002C4.59385 3.96916 3.38228 5.18073 3.38228 6.65691V9.03828C3.38228 9.5814 3.08983 10.3613 2.74168 10.779L0.861647 12.9933C0.0539303 13.9542 0.0539303 15.5139 0.861647 16.4748L2.74168 18.6891C3.08983 19.1069 3.38228 19.8867 3.38228 20.4299V22.8112C3.38228 24.2874 4.59385 25.499 6.07002 25.499H8.47925C9.02237 25.499 9.81616 25.7914 10.2339 26.1535L12.4343 28.0475C13.3952 28.8691 14.9688 28.8691 15.9437 28.0475L18.144 26.1535C18.5618 25.7914 19.3416 25.499 19.8987 25.499H22.2661C23.7423 25.499 24.9539 24.2874 24.9539 22.8112V20.4438C24.9539 19.9007 25.2463 19.1069 25.6084 18.6891L27.5024 16.4888C28.3101 15.5279 28.3101 13.9403 27.4884 12.9794ZM19.9683 12.102L13.242 18.8284C13.047 19.0233 12.7824 19.1347 12.5039 19.1347C12.2254 19.1347 11.9608 19.0233 11.7658 18.8284L8.39569 15.4582C7.99183 15.0544 7.99183 14.3859 8.39569 13.9821C8.79955 13.5782 9.468 13.5782 9.87186 13.9821L12.5039 16.6141L18.4921 10.6259C18.896 10.222 19.5645 10.222 19.9683 10.6259C20.3722 11.0297 20.3722 11.6982 19.9683 12.102Z" fill="#39BE0A"/>
</svg>
