<svg width="24" height="24" viewBox="0 0 24 24" fill="none" xmlns="http://www.w3.org/2000/svg">
<path d="M13.0713 0.546854C12.4917 -0.0327078 11.5521 -0.0327078 10.9725 0.546854L0.584085 10.9353C0.00452362 11.5148 0.00452362 12.4545 0.584085 13.0341C1.16365 13.6136 2.1033 13.6136 2.68286 13.0341L3.11753 12.5994V22.3731C3.11753 23.1927 3.78197 23.8571 4.6016 23.8571H7.56972C8.38934 23.8571 9.05378 23.1927 9.05378 22.3731V19.405C9.05378 18.5853 9.71821 17.9209 10.5378 17.9209H13.506C14.3256 17.9209 14.99 18.5853 14.99 19.405V22.3731C14.99 23.1927 15.6545 23.8571 16.4741 23.8571H19.4422C20.2618 23.8571 20.9263 23.1927 20.9263 22.3731V12.5994L21.3609 13.0341C21.9405 13.6136 22.8801 13.6136 23.4597 13.0341C24.0393 12.4545 24.0393 11.5148 23.4597 10.9353L13.0713 0.546854Z" fill="#28A9F1"/>
</svg>
