<svg width="144" height="26" viewBox="0 0 144 26" fill="none" xmlns="http://www.w3.org/2000/svg">
<path d="M30.9903 11.889C30.9903 16.941 33.7233 19.3634 40.1004 19.3634C45.9185 19.3634 48.9207 17.3136 49.1484 12.7172H43.6409C43.4339 14.1044 42.3779 14.8084 40.1004 14.8084C36.9325 14.8084 36.3735 13.4418 36.3735 11.889C36.3735 10.3568 36.9118 9.01099 40.1004 9.01099C42.3779 9.01099 43.4339 9.69425 43.6409 11.0608H49.1484C48.9207 6.485 45.8978 4.45592 40.1004 4.45592C33.7233 4.45592 30.9903 6.85768 30.9903 11.889ZM49.7791 2.59248V19.1564H54.7483V2.59248H49.7791ZM63.8227 19.3634C69.1024 19.3634 72.2702 17.5414 72.2702 12.9449C72.2702 8.34843 69.1024 6.52641 63.8227 6.52641C58.5429 6.52641 55.3751 8.34843 55.3751 12.9449C55.3751 17.5414 58.5429 19.3634 63.8227 19.3634ZM63.8227 15.2224C61.6072 15.2224 60.3442 14.7669 60.3442 12.9449C60.3442 11.1229 61.6072 10.6674 63.8227 10.6674C66.0381 10.6674 67.3011 11.1229 67.3011 12.9449C67.3011 14.7669 66.0381 15.2224 63.8227 15.2224ZM84.8575 6.73345V13.4418C83.8844 14.3735 82.3315 15.0154 80.8615 15.0154C78.6254 15.0154 77.8593 14.1044 77.8593 11.9718V6.73345H72.8901V14.0009C72.8901 18.4938 76.0579 19.3634 78.8531 19.3634C81.4619 19.3634 83.3668 18.5352 84.8575 17.5V19.1564H89.8267V6.73345H84.8575ZM102.382 2.59248V8.43125C101.078 7.10614 99.1728 6.52641 97.2473 6.52641C94.038 6.52641 90.4561 7.93434 90.4561 12.9449C90.4561 17.9555 94.038 19.3634 97.2473 19.3634C99.1728 19.3634 101.078 18.7837 102.382 17.4586V19.1564H107.351V2.59248H102.382ZM98.9037 15.2224C96.6882 15.2224 95.4252 14.7669 95.4252 12.9449C95.4252 11.1229 96.6882 10.6674 98.9037 10.6674C101.119 10.6674 102.382 11.1229 102.382 12.9449C102.382 14.7669 101.119 15.2224 98.9037 15.2224ZM116.455 6.52641C114.157 6.52641 111.465 6.98191 108.981 7.7894L110.596 11.3092C112.873 10.8123 114.695 10.6674 116.29 10.6674C117.946 10.6674 119.52 10.7295 119.52 12.2202C118.381 11.8061 117.056 11.5784 115.316 11.5784C111.693 11.5784 107.966 12.4273 107.966 15.6572C107.966 18.3489 110.451 19.3634 113.287 19.3634C115.441 19.3634 117.594 19.0528 119.52 17.6449V19.1564H124.489V13.007C124.447 8.26561 121.549 6.52641 116.455 6.52641ZM119.52 15.0982C118.277 15.6365 116.455 16.0506 114.778 16.0506C113.515 16.0506 112.935 15.9471 112.935 15.2639C112.935 14.4771 113.929 14.27 116.227 14.27C117.656 14.27 118.733 14.3735 119.52 14.5806V15.0982ZM124.91 19.1564H131.329L134.145 15.533L136.96 19.1564H143.379L137.664 12.9449L143.379 6.73345H136.96L134.145 10.3568L131.329 6.73345H124.91L130.625 12.9449L124.91 19.1564Z" fill="white"/>
<path opacity="0.82" d="M12.5957 17.045C15.931 17.045 18.6348 14.3412 18.6348 11.0059C18.6348 7.67064 15.931 4.96686 12.5957 4.96686C9.26043 4.96686 6.55664 7.67064 6.55664 11.0059C6.55664 14.3412 9.26043 17.045 12.5957 17.045Z" fill="url(#paint0_linear_51_6602)"/>
<path opacity="0.72" d="M22.6652 15.754C22.6652 16.8476 22.2307 17.8964 21.4575 18.6697C20.6842 19.4429 19.6354 19.8774 18.5418 19.8774C17.7962 19.8793 17.0644 19.6763 16.4263 19.2906L9.58789 19.373L14.6627 14.4155C14.9918 13.5082 15.6287 12.7451 16.4625 12.2591C17.2963 11.773 18.2741 11.5949 19.2258 11.7556C20.1774 11.9163 21.0425 12.4058 21.6704 13.1388C22.2983 13.8717 22.6492 14.8017 22.662 15.7667L22.6652 15.754Z" fill="url(#paint1_linear_51_6602)"/>
<path opacity="0.84" d="M6.8162 20.0994C9.92376 20.0994 12.4429 17.5802 12.4429 14.4726C12.4429 11.3651 9.92376 8.84589 6.8162 8.84589C3.70863 8.84589 1.18945 11.3651 1.18945 14.4726C1.18945 17.5802 3.70863 20.0994 6.8162 20.0994Z" fill="url(#paint2_linear_51_6602)"/>
<path d="M18.0066 19.7473C18.4985 19.8361 19.0023 19.8361 19.4942 19.7473C20.5166 19.5662 21.4357 19.0127 22.0739 18.1937C22.7122 17.3747 23.0244 16.3482 22.9503 15.3125C22.8762 14.2768 22.421 13.3053 21.6726 12.5855C20.9242 11.8657 19.9357 11.4488 18.8979 11.4151H18.7488C17.8927 11.4131 17.0567 11.6744 16.3541 12.1636V12.1636C15.9823 12.4264 15.6556 12.7477 15.3867 13.1151" stroke="white" stroke-width="1.14742" stroke-miterlimit="10"/>
<path d="M18.8966 11.415C18.8966 11.2945 18.8966 11.174 18.8966 11.0535C18.8965 10.6337 18.854 10.215 18.7697 9.80378C18.495 8.47618 17.7899 7.27636 16.7636 6.39053C15.7373 5.50469 14.4473 4.98238 13.0939 4.90466C11.7404 4.82694 10.3991 5.19815 9.27817 5.96068C8.15723 6.72321 7.31934 7.83441 6.89453 9.12185" stroke="white" stroke-width="1.14742" stroke-miterlimit="10"/>
<path d="M11.3285 17.0451C11.2869 17.0451 11.2454 17.0259 11.207 17.0164" stroke="white" stroke-width="1.58589" stroke-miterlimit="10"/>
<path d="M10.47 10.9297C9.73557 10.0967 8.76262 9.5098 7.6832 9.24871C6.60377 8.98762 5.47016 9.06498 4.43621 9.4703C3.40227 9.87561 2.51807 10.5892 1.90364 11.5143C1.28921 12.4394 0.974292 13.5312 1.00164 14.6414C1.02899 15.7516 1.39728 16.8265 2.05652 17.7202C2.71576 18.6139 3.63402 19.2831 4.68667 19.6371C5.73932 19.991 6.87537 20.0124 7.94063 19.6985C9.00588 19.3846 9.94875 18.7505 10.6413 17.8823" stroke="white" stroke-width="1.14742" stroke-miterlimit="10"/>
<path d="M7.78115 19.7822H7.62891H8.40917H17.8706H18.4066" stroke="white" stroke-width="1.14742" stroke-miterlimit="10"/>
<path d="M8.76758 19.7473L9.71277 18.7926L10.7246 17.7713L12.2724 16.2076L13.2303 15.2339L13.2398 15.2275L15.6218 12.8233" stroke="white" stroke-width="1.14742" stroke-miterlimit="10"/>
<defs>
<linearGradient id="paint0_linear_51_6602" x1="6.55664" y1="11.0059" x2="18.6348" y2="11.0059" gradientUnits="userSpaceOnUse">
<stop stop-color="#002FD4"/>
<stop offset="1" stop-color="#00E0FF"/>
</linearGradient>
<linearGradient id="paint1_linear_51_6602" x1="9.59741" y1="15.7509" x2="22.6652" y2="15.7509" gradientUnits="userSpaceOnUse">
<stop stop-color="#61DDFA"/>
<stop offset="1" stop-color="#AD23C0"/>
</linearGradient>
<linearGradient id="paint2_linear_51_6602" x1="1.18945" y1="14.4726" x2="12.4429" y2="14.4726" gradientUnits="userSpaceOnUse">
<stop offset="0.04" stop-color="#3B23C0"/>
<stop offset="0.17" stop-color="#251A9D"/>
<stop offset="0.31" stop-color="#10107B"/>
<stop offset="0.39" stop-color="#080D6E"/>
<stop offset="0.48" stop-color="#0A1171"/>
<stop offset="0.56" stop-color="#0F1D79"/>
<stop offset="0.65" stop-color="#173186"/>
<stop offset="0.73" stop-color="#234D99"/>
<stop offset="0.81" stop-color="#3370B1"/>
<stop offset="0.9" stop-color="#459CCF"/>
<stop offset="0.98" stop-color="#5BCFF1"/>
<stop offset="1" stop-color="#61DDFA"/>
</linearGradient>
</defs>
</svg>
