<svg width="14" height="15" viewBox="0 0 14 15" fill="none" xmlns="http://www.w3.org/2000/svg">
<path d="M6.99935 9.24988C5.92602 9.24988 5.83268 8.74821 5.83268 8.66654H4.66602C4.66602 9.20321 5.05102 10.154 6.41602 10.3699V10.9999H7.58268V10.3699C8.74935 10.1715 9.33268 9.41904 9.33268 8.66654C9.33268 8.01321 9.02935 6.91654 6.99935 6.91654C5.83268 6.91654 5.83268 6.54904 5.83268 6.33321C5.83268 6.11738 6.24102 5.74988 6.99935 5.74988C7.75768 5.74988 7.81018 6.12321 7.81602 6.33321H8.98268C8.9748 5.93582 8.83187 5.55295 8.57741 5.2476C8.32296 4.94226 7.97214 4.73263 7.58268 4.65321V3.99988H6.41602V4.63571C5.24935 4.82821 4.66602 5.58071 4.66602 6.33321C4.66602 6.98654 4.96935 8.08321 6.99935 8.08321C8.16602 8.08321 8.16602 8.47988 8.16602 8.66654C8.16602 8.85321 7.80435 9.24988 6.99935 9.24988Z" fill="white"/>
<path d="M2.91797 1.66663H1.16797V2.83329H2.33464V12.75C2.33464 12.9047 2.39609 13.053 2.50549 13.1624C2.61489 13.2718 2.76326 13.3333 2.91797 13.3333H11.0846C11.2393 13.3333 11.3877 13.2718 11.4971 13.1624C11.6065 13.053 11.668 12.9047 11.668 12.75V2.83329H12.8346V1.66663H2.91797ZM10.5013 12.1666H3.5013V2.83329H10.5013V12.1666Z" fill="white"/>
</svg>
