<svg width="287" height="238" viewBox="0 0 287 238" fill="none" xmlns="http://www.w3.org/2000/svg">
<g clip-path="url(#clip0_51_6587)">
<path d="M109.889 224.17C105.615 224.177 101.345 223.897 97.1078 223.334C62.2663 218.688 30.6494 195.25 0.366445 151.672L0 151.145L0.48371 150.719L196.825 -24.8369L197.279 -24.0893C206.646 -9.24098 216.452 -0.94466 227.284 1.25401C244.082 4.66927 261.348 -7.33546 278.044 -18.9444C294.988 -30.6707 312.519 -42.9246 329.932 -39.3774C341.131 -37.1054 351.23 -28.6479 360.787 -13.5211L438.693 34.1314C445.731 33.5424 452.812 33.7095 459.815 34.6298C494.656 39.2763 526.273 62.7141 556.556 106.292L558.535 109.15L438.341 35.5972C385.104 40.1558 331.237 85.4337 278.938 129.495C223.575 176.121 166.469 224.17 109.889 224.17ZM1.99346 151.394C31.8514 194.268 63.0285 217.354 97.2691 221.898C157.366 229.901 218.68 178.335 277.956 128.44C329.8 84.8327 383.184 39.9212 436.26 34.3953L359.732 -12.4364L359.644 -12.583C350.277 -27.4313 340.471 -35.7423 329.58 -37.9409C312.783 -41.3562 295.516 -29.3515 278.82 -17.7425C261.876 -6.01627 244.36 6.23765 226.932 2.69046C215.865 0.447823 205.898 -7.81918 196.444 -22.5796L1.99346 151.394ZM440.848 35.4799L553.273 104.269C523.957 62.9047 493.249 40.5955 459.624 36.1102C453.401 35.2952 447.113 35.0792 440.848 35.4653V35.4799Z" fill="white"/>
<path d="M130.426 187.32C126.504 187.323 122.586 187.058 118.7 186.529C87.8602 182.293 59.8785 161.361 33.0254 122.518L34.242 121.683C60.7726 160.159 88.4758 180.9 118.964 185.078C171.849 192.319 225.805 147.363 277.986 103.873C330.432 60.1786 384.651 15.0766 438.167 22.4055C469.065 26.6416 497.106 47.5729 523.9 86.416L522.684 87.2515C496.153 48.7602 468.45 28.0341 437.962 23.8566C385.091 16.6156 331.121 61.5711 278.939 105.061C230.305 145.531 180.146 187.32 130.426 187.32Z" fill="white"/>
<path d="M150.945 150.471C147.424 150.47 143.907 150.22 140.421 149.723C113.436 145.897 88.9866 127.458 65.666 93.3492L66.868 92.5284C89.9686 126.241 114.11 144.505 140.655 148.228C186.314 154.707 232.999 116.362 278.028 79.3364C323.365 42.0323 370.24 3.48233 416.53 10.049C443.515 13.8747 467.964 32.3142 491.284 66.4229L490.082 67.2437C466.982 33.5308 442.84 15.2672 416.295 11.5441C370.636 5.06535 323.951 43.4101 278.922 80.4357C237.03 114.911 193.804 150.471 150.945 150.471Z" fill="white"/>
<path d="M171.496 113.621C168.342 113.625 165.191 113.395 162.071 112.932C139.029 109.502 118.098 93.5542 98.2363 64.1947L99.4529 63.4471C119.124 92.4549 139.674 108.197 162.291 111.554C200.724 117.285 239.977 85.5364 277.999 54.8283C316.242 23.9297 355.788 -8.02426 394.851 -2.20512C417.893 1.2248 438.825 17.1578 458.686 46.5321L457.469 47.3529C437.799 18.3451 417.249 2.60263 394.632 -0.754001C356.199 -6.47054 316.945 25.2636 278.923 55.9716C243.759 84.3052 207.495 113.621 171.496 113.621Z" fill="white"/>
<path d="M192.045 76.8006C189.257 76.805 186.473 76.5894 183.719 76.1556C164.664 73.1214 147.309 59.6656 130.834 35.0258L132.051 34.205C148.291 58.493 165.265 71.7436 183.954 74.7045C215.175 79.6441 247.114 54.506 278.013 30.1888C309.146 5.68094 341.349 -19.6477 373.201 -14.6201C392.256 -11.5859 409.611 1.86992 426.086 26.5097L424.855 27.3305C408.628 3.04254 391.655 -10.2081 372.966 -13.169C341.76 -18.1086 309.806 7.02947 278.907 31.3467C250.427 53.7292 221.111 76.8006 192.045 76.8006Z" fill="white"/>
<path d="M212.626 39.9949C210.169 40.0005 207.717 39.7896 205.297 39.3647C190.112 36.7263 176.392 25.7476 163.361 5.82763L164.593 5.02145C177.389 24.5896 190.786 35.3484 205.546 37.9282C229.556 42.1057 254.152 23.5489 277.941 5.5931C301.98 -12.5386 326.84 -31.3006 351.479 -27.0058C366.665 -24.3528 380.385 -13.3887 393.401 6.5312L392.184 7.33738C379.388 -12.2161 365.991 -22.9896 351.23 -25.5547C327.206 -29.7468 302.625 -11.1754 278.835 6.69243C257.215 23.1531 234.877 39.9949 212.626 39.9949Z" fill="white"/>
<path d="M279.204 -18.3431H277.738V128.997H279.204V-18.3431Z" fill="white"/>
<path d="M250.421 -1.96477L185.324 198.741L186.718 199.193L251.816 -1.51255L250.421 -1.96477Z" fill="white"/>
<path d="M223.219 0.726609L92.9453 221.711L94.208 222.456L224.482 1.47099L223.219 0.726609Z" fill="white"/>
</g>
<defs>
<clipPath id="clip0_51_6587">
<rect width="287" height="238" fill="white"/>
</clipPath>
</defs>
</svg>
