<svg width="243" height="178" viewBox="0 0 243 178" fill="none" xmlns="http://www.w3.org/2000/svg">
<g clip-path="url(#clip0_51_6615)">
<path d="M100.538 368.843C92.461 368.843 85.538 366.42 80.2073 361.597C70.815 353.174 65.8073 337.585 65.2881 315.247C65.1958 310.759 66.6496 301.978 68.5073 290.866C73.4342 261.282 80.888 216.571 65.2766 208.667C58.942 205.471 45.6613 210.467 32.8999 215.313C20.1384 220.159 8.15003 224.659 2.90006 221.209C2.02696 220.586 1.32001 219.759 0.841215 218.799C0.362424 217.84 0.126425 216.777 0.153922 215.705C-0.353767 206.036 -0.642226 172.736 17.1154 150.571C23.7038 142.379 32.6691 136.875 41.369 131.579C48.5228 127.229 55.9189 122.729 61.9766 116.729C78.6034 100.264 92.1495 77.6832 103.203 57.7679C105.384 53.8449 107.634 48.8834 110.011 43.6449C118.919 24.0297 129.995 -0.466326 149.922 0.00674788C170.403 0.502899 188.887 13.9682 206.772 26.9835C217.803 35.0604 229.202 43.3218 240.845 48.3641C245.029 50.0715 249.353 51.415 253.768 52.3795C263.298 54.6872 271.525 56.7179 276.014 69.6871C279.856 80.8562 280.456 92.0369 281.044 102.848C281.864 117.929 282.637 132.191 291.429 146.694C296.69 155.406 305.725 163.275 315.302 171.606C330.302 184.644 345.763 198.144 346.652 215.625C347.194 226.298 354.209 234.086 360.994 241.713C368.736 250.367 376.744 259.309 374.667 272.313C371.413 292.666 340.525 312.628 320.079 325.839C315.463 328.839 311.448 331.424 308.229 333.685C305.01 335.947 301.225 338.935 297.267 342.039C280.491 355.216 259.606 371.624 241.733 367.574C231.118 365.174 222.372 357.097 213.914 349.285C203.876 340.055 194.391 331.251 182.587 332.289C170.553 333.351 158.714 341.197 146.184 349.493C132.892 358.297 119.149 367.4 104.322 368.67C103.007 368.797 101.749 368.843 100.538 368.843ZM60.1535 206.521C62.0835 206.462 64.0003 206.857 65.7496 207.675C82.1226 215.959 74.5881 261.178 69.5919 291.086C67.8035 302.105 66.3958 310.839 66.3958 315.224C66.9035 337.228 71.7958 352.539 80.9226 360.731C86.8534 366.062 94.6649 368.347 104.138 367.527C118.665 366.293 132.28 357.27 145.457 348.547C158.149 340.158 170.068 332.243 182.38 331.158C194.691 330.074 204.372 338.993 214.595 348.466C222.937 356.174 231.568 364.147 241.883 366.489C259.191 370.412 279.867 354.201 296.448 341.162C300.417 338.047 304.167 335.105 307.456 332.785C310.744 330.466 314.702 327.905 319.352 324.905C339.613 311.809 370.248 292.02 373.421 272.163C375.405 259.701 367.94 251.394 360.025 242.521C353.102 234.79 345.948 226.805 345.394 215.728C344.529 198.709 329.24 185.382 314.436 172.506C304.79 164.117 295.687 156.19 290.333 147.329C281.437 132.594 280.617 117.525 279.833 102.964C279.256 92.2331 278.679 81.1331 274.86 70.1255C270.625 57.6871 263.079 55.841 253.502 53.5333C249.019 52.5554 244.629 51.1887 240.383 49.4487C228.637 44.3026 217.168 35.995 206.091 27.9181C188.357 15.0067 170.01 1.61058 149.888 1.16059C130.757 0.664436 119.83 24.7681 111.061 44.118C108.672 49.391 106.446 54.3641 104.219 58.3333C93.1187 78.3178 79.5149 101.025 62.7958 117.548C56.6343 123.652 49.1805 128.175 42.0267 132.548C33.4075 137.787 24.4884 143.21 18.0269 151.287C0.46546 173.14 0.753917 206.071 1.26161 215.648C1.22021 216.54 1.40094 217.429 1.78758 218.235C2.17422 219.04 2.7547 219.737 3.47698 220.263C8.28849 223.401 20.5884 218.751 32.4845 214.251C42.5575 210.455 52.8959 206.521 60.1997 206.521H60.1535Z" fill="white"/>
<path d="M102.015 362.762C93.7878 362.762 86.9109 360.258 81.5571 355.285C70.711 345.247 68.0456 327.062 67.711 313.585C67.561 307.297 69.0495 297.709 70.7802 286.609C75.0264 259.297 80.8532 221.913 63.2457 213.813C58.4572 211.621 47.8765 214.967 37.642 218.209C26.0113 221.994 13.8844 225.767 8.50756 222.132C7.62804 221.501 6.9089 220.672 6.40792 219.712C5.90694 218.752 5.63809 217.688 5.62296 216.605C4.29605 199.113 7.93064 174.502 22.2613 157.886C28.9305 150.121 37.8266 145.263 46.4227 140.579C54.0496 136.425 61.9188 132.121 68.3456 125.798C84.7186 109.587 95.8993 87.5253 105.084 68.1062C106.861 64.3447 108.753 59.487 110.761 54.3409C118.838 33.5718 129.914 5.15278 150.303 6.19124C168.453 7.11431 185.495 18.4912 201.983 29.4872C211.214 35.6141 220.687 41.9602 230.218 46.3448C235.258 48.4576 240.517 50.0055 245.898 50.9602C256.629 53.2679 266.771 55.4486 270.937 68.2678C274.49 79.1485 275.783 89.9715 277.029 100.437C278.956 116.66 280.779 131.971 290.321 147.479C295.225 155.44 303.013 163.102 311.39 171.213C325.329 184.829 339.752 198.905 341.067 215.659C341.817 225.213 347.759 232.805 353.505 240.144C360.198 248.682 367.109 257.509 365.517 269.278C362.621 290.797 335.217 308.855 315.221 322.032C310.894 324.882 306.821 327.57 303.406 330.005C300.417 332.151 297.048 334.828 293.494 337.655C277.075 350.693 256.641 366.927 238.375 360.627C228.822 357.339 220.698 350.324 212.841 343.539C203.345 335.335 194.379 327.593 183.776 326.958C171.753 326.266 159.545 334.585 146.68 343.401C133.318 352.493 119.53 361.931 104.23 362.762C103.48 362.762 102.742 362.762 102.015 362.762ZM59.2188 211.978C60.7679 211.922 62.3109 212.201 63.7418 212.798C82.134 221.244 76.434 257.601 71.9341 286.805C70.2149 297.847 68.7264 307.389 68.8764 313.574C69.1995 326.843 71.7956 344.728 82.3301 354.466C87.9378 359.658 95.2878 362.035 104.161 361.585C119.161 360.789 132.799 351.454 145.999 342.408C159.199 333.362 171.395 325.032 183.81 325.839C194.806 326.485 203.922 334.355 213.556 342.685C221.333 349.401 229.375 356.347 238.71 359.566C256.387 365.647 276.544 349.643 292.744 336.766C296.31 333.939 299.667 331.251 302.702 329.093C306.163 326.635 310.225 323.947 314.552 321.085C334.363 308.035 361.513 290.151 364.34 269.163C365.863 257.878 359.401 249.628 352.571 240.894C346.709 233.417 340.663 225.686 339.878 215.786C338.598 199.459 324.336 185.544 310.548 172.079C302.183 163.909 294.279 156.202 289.306 148.113C279.625 132.398 277.71 116.233 275.852 100.61C274.606 90.2253 273.325 79.4254 269.806 68.6601C265.837 56.5217 256.467 54.5025 245.575 52.1717C240.109 51.1923 234.769 49.6096 229.652 47.4525C220.052 43.0333 210.499 36.6526 201.256 30.5026C184.906 19.5873 167.991 8.3143 150.164 7.42584C130.63 6.44508 119.703 34.4141 111.753 54.8486C109.745 60.0063 107.842 64.8755 106.042 68.6947C96.8108 88.1946 85.584 110.371 69.1187 126.71C62.6226 133.148 54.6726 137.487 46.9765 141.71C38.4727 146.325 29.669 151.16 23.1382 158.763C9.08448 175.113 5.47296 199.378 6.7768 216.64C6.78482 217.541 7.004 218.428 7.41678 219.23C7.82956 220.032 8.42444 220.725 9.15371 221.255C14.0691 224.578 25.8728 220.84 37.2958 217.217C45.6265 214.505 53.5996 211.978 59.2188 211.978Z" fill="white"/>
<path d="M103.872 356.589C95.7947 356.589 89.1371 354.281 83.8871 349.735C75.6141 342.558 70.9757 329.901 70.0411 312.12C69.7411 306.051 70.918 297.12 72.2795 286.736C75.741 260.636 79.9756 228.155 63.5103 220.09C57.9604 217.378 48.1758 220.09 38.7143 222.663C28.7798 225.397 19.3875 227.982 14.3914 224.705C13.4325 224.036 12.6326 223.164 12.0484 222.151C11.4641 221.138 11.1099 220.009 11.0107 218.844C8.703 202.828 14.0453 178.863 28.699 164.025C35.3682 157.275 43.6989 153.225 51.7758 149.302C59.8527 145.379 67.9295 141.467 74.5987 134.902C90.5563 119.152 100.341 97.2752 108.522 75.9869C109.675 72.9523 110.968 69.1446 112.318 65.1177C119.425 43.9217 130.156 11.8911 151.017 13.2527C167.437 14.3026 183.048 23.718 198.14 32.7641C208.086 38.7525 218.379 44.9486 228.913 48.8255C233.725 50.4695 238.713 51.546 243.775 52.0332C252.878 53.187 260.759 54.237 266.159 65.8792C268.928 71.8561 269.482 79.3215 270.024 86.556C270.29 90.1098 270.532 93.4791 271.028 96.5829C274.305 117.04 280.074 133.506 289.201 148.379C293.817 155.925 300.636 163.263 307.847 171.029C320.655 184.794 333.889 199.032 335.459 215.578C336.278 224.163 341.228 231.64 346.039 238.863C352.535 248.624 359.251 258.732 355.27 271.401C348.947 291.547 326.32 307.066 308.147 319.539C304.513 322.031 301.074 324.385 297.913 326.67C295.305 328.551 292.374 330.87 289.282 333.328C275.436 344.301 256.455 359.335 240.267 355.008C234.175 353.37 228.913 348.085 223.825 342.962C221.679 340.708 219.406 338.577 217.017 336.581C206.863 328.608 198.209 322.447 186.936 321.812C174.913 321.131 162.533 329.174 149.425 337.701C136.318 346.227 122.806 355.008 108.037 356.358C106.606 356.52 105.222 356.589 103.872 356.589ZM57.6373 217.794C59.8427 217.716 62.0367 218.142 64.0526 219.04C81.2679 227.463 76.941 260.393 73.4564 286.862C72.1064 297.178 70.9295 306.097 71.2295 312.062C72.1064 329.52 76.6179 341.901 84.6487 348.87C90.5217 353.97 98.3563 356.104 107.933 355.239C122.414 353.924 135.821 345.201 148.791 336.777C162.06 328.147 174.613 319.978 187.006 320.704C198.613 321.362 207.417 327.628 217.721 335.704C220.156 337.722 222.468 339.883 224.644 342.177C229.628 347.185 234.775 352.366 240.567 353.912C256.19 358.1 274.905 343.274 288.567 332.451C291.67 329.981 294.601 327.662 297.232 325.758C300.416 323.451 303.855 321.143 307.49 318.605C325.524 306.224 347.932 290.855 354.174 271.089C357.981 258.94 351.716 249.513 345.082 239.532C340.201 232.194 335.159 224.601 334.316 215.728C332.782 199.575 319.674 185.475 307.005 171.882C299.747 164.071 292.893 156.698 288.209 149.048C278.978 134.048 273.209 117.444 269.897 96.8367C269.39 93.6637 269.136 90.2829 268.871 86.706C268.34 79.5868 267.797 72.2138 265.109 66.4331C259.974 55.3562 252.763 54.4216 243.625 53.2332C238.48 52.7374 233.411 51.6415 228.521 49.9678C217.882 46.0448 207.544 39.8256 197.54 33.8141C181.871 24.3987 167.079 15.4911 151.029 14.4411C131.056 13.1142 120.498 44.6601 113.506 65.5215C112.145 69.56 110.875 73.3792 109.698 76.4369C101.46 97.8406 91.6178 119.856 75.4987 135.756C68.7141 142.46 60.4065 146.486 52.4219 150.375C44.4374 154.263 36.1528 158.256 29.6221 164.879C15.2337 179.44 10.0068 202.955 12.3145 218.717C12.3881 219.714 12.6818 220.682 13.1746 221.552C13.6675 222.422 14.3471 223.172 15.1645 223.747C19.7798 226.736 29.3106 224.117 38.5643 221.567C45.1758 219.686 52.0643 217.794 57.6373 217.794Z" fill="white"/>
<path d="M247.998 348.916C244.728 348.92 241.497 348.215 238.525 346.85C230.887 343.389 224.541 337.712 218.402 332.22C209.979 324.697 202.029 317.589 191.76 317.024C181.295 316.458 166.468 323.543 150.764 331.054C127.999 341.993 104.472 353.197 88.7339 344.45C79.6993 339.42 74.3686 328.389 72.4302 310.712C71.8302 305.22 72.6032 296.866 73.4802 287.266C75.7071 262.978 78.4763 232.736 61.8264 225.79C56.8649 223.724 48.9726 225.732 41.3342 227.693C32.7843 229.886 24.7074 231.951 20.0343 228.79C18.9853 228.014 18.1185 227.018 17.4947 225.872C16.8709 224.726 16.505 223.457 16.4228 222.155C14.1152 204.848 21.1651 184.228 33.615 172.055C40.5381 165.294 49.0995 161.544 57.3841 157.921C65.6687 154.298 74.1725 150.571 81.0263 143.856C98.1377 127.079 106.191 102.629 113.334 81.0637C114.095 78.756 114.949 75.9175 115.838 72.9176C121.78 53.0254 131.726 19.7371 152.414 21.0987C166.583 22.0448 179.818 29.0371 193.826 36.4563C204.66 42.2254 215.875 48.1216 227.529 50.9485C231.606 51.8302 235.762 52.2941 239.933 52.3331C248.794 52.6908 256.467 53.0023 261.556 64.1022C266.933 75.8599 269.437 88.529 271.86 100.783C274.652 114.94 277.537 129.629 284.875 143.14C289.271 151.217 296.044 159.502 303.221 168.213C315.682 183.351 328.605 199.009 329.932 215.624C330.625 223.955 334.755 231.259 338.748 238.32C343.859 247.343 349.132 256.666 347.125 268.101C343.767 287.255 319.536 304.193 301.836 316.562C298.467 318.928 295.283 321.178 292.548 323.185C289.813 325.193 287.171 327.385 284.252 329.774C273.579 338.531 260.875 348.916 247.998 348.916ZM190.549 315.824C190.987 315.824 191.402 315.824 191.829 315.824C202.491 316.401 210.591 323.647 219.164 331.308C225.245 336.731 231.521 342.35 238.998 345.743C254.333 352.666 269.817 340.031 283.467 328.851C286.398 326.451 289.167 324.235 291.81 322.216C294.452 320.197 297.752 317.947 301.133 315.581C318.659 303.328 342.671 286.551 345.948 267.859C347.886 256.839 342.936 248.105 337.698 238.851C333.648 231.686 329.448 224.267 328.744 215.682C327.405 199.459 314.632 183.917 302.286 168.917C295.075 160.171 288.267 151.898 283.825 143.671C276.406 129.952 273.498 115.229 270.683 100.979C268.283 88.7944 265.802 76.1945 260.471 64.5638C255.625 54.1215 248.702 53.8446 239.829 53.5331C235.589 53.4806 231.364 53.0051 227.218 52.1138C215.414 49.2523 204.141 43.287 193.237 37.5178C179.391 30.1678 166.214 23.2217 152.287 22.2987C132.511 21.0179 122.738 53.7408 116.899 73.2983C115.999 76.2983 115.157 79.1368 114.384 81.479C107.241 103.171 99.1415 127.748 81.8339 144.732C74.8301 151.586 66.1994 155.371 57.8456 159.017C49.4918 162.663 41.1842 166.321 34.4227 172.932C22.2151 184.817 15.2805 205.021 17.5651 221.994C17.9344 224.751 18.9497 226.667 20.6805 227.82C24.9266 230.693 33.1189 228.593 41.0573 226.563C48.9957 224.532 56.9456 222.49 62.2764 224.717C79.6993 231.997 76.8955 262.689 74.634 287.358C73.7571 296.935 72.9955 305.197 73.584 310.574C75.4648 327.881 80.6109 338.6 89.2993 343.435C104.484 351.893 127.768 340.758 150.268 329.981C165.487 322.712 179.899 315.824 190.549 315.824Z" fill="white"/>
<path d="M248.448 342.939C246.014 342.947 243.605 342.448 241.375 341.474C236.84 339.489 232.698 334.666 228.682 330.004C226.614 327.437 224.341 325.04 221.886 322.839C214.017 316.458 205.732 312.847 197.909 312.374C187.975 311.774 173.079 318.558 157.317 325.735C134.102 336.316 107.783 348.304 90.8563 339.258C82.1448 334.643 76.7103 325.043 74.2641 310.043C73.3872 304.643 73.791 296.716 74.2641 287.543C75.418 266.405 76.7218 240.109 61.895 233.428C57.5912 231.49 50.8643 232.736 44.3566 233.947C36.6836 235.378 29.4375 236.717 25.1567 233.497C23.1491 231.997 22.0183 229.667 21.6952 226.378C19.976 209.071 27.1644 190.505 40.0066 179.071C46.9297 172.944 55.2027 169.644 63.2103 166.448C71.6564 163.079 80.3679 159.606 87.314 152.821C103.156 137.336 109.456 115.414 115.537 94.2175C116.01 92.556 116.495 90.906 116.968 89.2675C117.568 87.1906 118.237 84.6522 118.941 82.0214C124.271 61.9331 133.156 28.3102 153.948 29.5564C166.19 30.2833 177.983 35.441 190.467 40.8986C200.586 45.3178 211.052 49.8986 221.725 51.8601C226.195 52.5461 230.731 52.6933 235.236 52.2985C243.775 51.8485 251.159 51.4562 257.159 61.7716C263.898 73.4138 266.955 87.6752 269.921 101.452C272.551 113.729 275.263 126.421 280.57 137.371C284.886 146.302 291.532 155.382 298.559 165.006C310.513 181.355 322.882 198.259 324.324 215.601C324.959 223.205 328.143 230.255 331.247 237.074C335.92 247.459 340.755 258.097 336.37 270.536C330.151 288.212 310.224 302.762 294.209 314.462C291.52 316.424 288.993 318.27 286.64 320.047C284.482 321.685 282.117 323.67 279.613 325.816C270.347 333.604 259.259 342.939 248.448 342.939ZM196.675 311.185C197.129 311.185 197.567 311.185 197.99 311.185C206.067 311.67 214.559 315.374 222.625 321.904C225.128 324.15 227.443 326.597 229.548 329.22C233.471 333.835 237.521 338.451 241.825 340.377C254.078 345.743 267.798 334.193 278.817 324.904C281.332 322.781 283.709 320.774 285.901 319.135C288.094 317.497 290.793 315.501 293.482 313.539C309.37 301.943 329.136 287.509 335.239 270.166C339.462 258.155 334.939 248.151 330.151 237.559C327.024 230.636 323.793 223.505 323.147 215.694C321.728 198.686 309.463 181.909 297.613 165.686C290.551 156.017 283.87 146.89 279.509 137.879C274.144 126.79 271.432 114.04 268.767 101.694C265.824 87.9983 262.79 73.8407 256.075 62.36C250.455 52.6447 243.74 53.0024 235.236 53.4524C230.642 53.8555 226.016 53.7006 221.459 52.9908C210.648 51.0062 200.125 46.4024 189.948 41.9602C177.556 36.5371 165.856 31.4256 153.821 30.7102C133.998 29.5564 125.229 62.5792 120.002 82.3214C119.287 84.9868 118.629 87.5022 118.018 89.5906C117.545 91.2291 117.072 92.879 116.587 94.5406C110.46 115.875 104.125 137.948 88.064 153.64C80.9564 160.563 72.1295 164.117 63.5796 167.486C55.6642 170.636 47.4258 173.902 40.722 179.902C28.1452 191.071 21.1068 209.255 22.7798 226.205C23.0798 229.159 24.0606 231.224 25.7914 232.517C29.6683 235.436 37.0067 234.074 44.0912 232.759C50.772 231.513 57.6835 230.232 62.3104 232.32C77.8641 239.324 76.468 266.059 75.3603 287.543C74.8872 296.647 74.4718 304.516 75.3603 309.801C77.7487 324.42 82.9756 333.708 91.3525 338.185C107.783 346.966 133.825 335.093 156.798 324.628C172.075 317.762 186.498 311.185 196.675 311.185Z" fill="white"/>
<path d="M107.935 337.978C102.426 338.123 96.9628 336.936 92.0116 334.516C83.9347 330.293 78.4425 321.985 75.8579 309.824C74.704 304.643 74.7848 296.843 74.8194 288.582C74.9002 270.951 74.9925 249.005 63.7772 242.128C59.9234 239.763 53.6926 240.317 47.6234 240.836C40.9773 241.424 34.1004 241.99 30.1889 238.69C28.2505 236.994 27.1659 234.686 26.9697 231.34C26.4365 222.517 28.0715 213.698 31.7321 205.652C35.3927 197.607 40.9675 190.58 47.9696 185.186C54.5465 180.121 62.1849 177.282 69.5694 174.536C77.9809 171.409 86.6693 168.179 93.5693 161.671C103.677 152.129 109.723 129.49 116.173 105.525C125.115 72.1331 134.392 37.6448 155.842 38.6025C166.227 39.0525 176.484 42.5833 187.388 46.3217C197.576 49.7832 208.157 53.4293 218.645 54.2601C222.971 54.5184 227.312 54.2705 231.58 53.5216C239.38 52.3678 245.541 51.514 252.891 60.1678C257.703 65.8216 259.814 76.8176 261.487 85.6445C262.168 89.233 262.814 92.6252 263.553 95.2098C268.084 111.502 274.118 127.339 281.576 142.517C285.337 150.098 290.287 157.921 295.526 166.217C305.795 182.486 316.422 199.309 318.752 215.613C319.491 220.84 321.452 226.517 323.518 232.528C327.187 243.167 330.983 254.186 328.618 264.374C324.083 283.989 303.799 299.359 287.507 311.739C285.199 313.505 282.891 315.201 280.849 316.839C278.807 318.478 276.499 320.462 274.18 322.528C264.949 330.72 254.449 340.008 243.026 335.474L242.888 335.416L242.795 335.312C238.18 329.981 233.565 324.666 228.949 319.366C222.303 311.982 213.384 307.689 205.145 307.92C195.719 308.162 181.353 314.243 166.134 320.681C146.692 328.908 125.242 337.978 107.935 337.978ZM55.3195 239.22C58.7811 239.22 61.9195 239.659 64.331 241.136C76.1117 248.347 76.0079 270.651 75.9271 288.57C75.9271 296.774 75.8579 304.516 76.9425 309.57C79.5155 321.547 84.604 329.37 92.5193 333.478C110.646 342.904 139.907 330.524 165.73 319.631C181.053 313.147 195.522 307.032 205.157 306.778V307.355V306.778C213.765 306.559 222.984 310.978 229.861 318.605C234.476 323.889 239.057 329.174 243.603 334.458C254.299 338.612 264.453 329.612 273.418 321.674C275.726 319.597 277.964 317.635 280.133 315.905C282.303 314.174 284.472 312.558 286.78 310.839C302.933 298.585 323.033 283.32 327.475 264.143C329.783 254.266 326.022 243.374 322.41 232.92C320.322 226.863 318.349 221.14 317.587 215.798C315.279 199.748 304.733 183.029 294.51 166.852C289.26 158.544 284.299 150.698 280.503 143.048C273.01 127.8 266.949 111.89 262.399 95.5214C261.649 92.8906 261.003 89.4753 260.311 85.8638C258.661 77.1638 256.595 66.3408 251.98 60.9178C245.057 52.7486 239.449 53.5563 231.707 54.6639C227.355 55.4245 222.929 55.6762 218.518 55.4139C207.834 54.5716 197.23 50.937 186.973 47.4178C176.161 43.7025 165.938 40.1948 155.761 39.7563H154.977C134.969 39.7563 125.969 73.3792 117.246 105.906C110.785 130.033 104.669 152.833 94.3308 162.582C87.2578 169.263 78.454 172.529 69.9387 175.69C62.6349 178.413 55.0772 181.217 48.6388 186.178C41.8085 191.448 36.3691 198.306 32.7936 206.157C29.2181 214.007 27.615 222.613 28.1236 231.224C28.3313 234.213 29.2774 236.347 30.9274 237.778C34.4697 240.801 41.1042 240.224 47.5196 239.659C50.1388 239.451 52.8042 239.22 55.3195 239.22Z" fill="white"/>
<path d="M111.914 332.6C106.172 332.729 100.468 331.632 95.1837 329.381C87.1761 325.77 81.3376 318.939 77.7492 309.074C75.7184 303.455 75.4415 295.505 75.0377 287.082C74.4377 272.728 73.7685 256.447 63.8916 250.159C60.5224 248.001 55.3647 248.036 50.3917 248.059C41.6802 248.116 32.6803 248.163 32.1841 236.855C30.8341 205.586 50.1263 196.609 70.5492 187.032C80.6915 182.29 91.1914 177.386 99.3952 169.505C109.503 159.755 114.764 137.44 120.337 113.81C128.01 81.2483 135.983 47.5562 157.941 47.8908C166.641 48.0178 175.41 50.1293 184.71 52.3562C195.51 54.9523 206.633 57.6408 217.606 56.8677C221.308 56.5308 224.963 55.7998 228.51 54.6869C235.744 52.6562 241.467 51.0524 248.783 59.5908C253.398 64.9676 255.475 73.333 257.31 80.7175C257.933 83.2444 258.533 85.6329 259.19 87.8252C265.317 107.948 270.856 123.11 277.133 136.99C280.825 145.148 285.602 153.456 290.655 162.248C300.682 179.705 311.044 197.74 313.178 215.601C313.926 220.824 314.997 225.996 316.386 231.086C319.34 242.993 322.409 255.316 318.255 266.947C312.336 283.539 296.621 296.139 282.752 307.262C280.156 309.339 277.698 311.301 275.344 313.274C273.729 314.612 271.883 316.389 269.99 318.27C262.986 325.112 254.275 333.639 246.233 330.201H246.083L245.979 330.051C242.517 324.997 238.987 319.943 235.364 315.051C229.525 307.597 221.437 303.431 213.175 303.639C203.287 303.905 188.46 309.754 172.791 315.951C152.541 323.82 130.283 332.6 111.914 332.6ZM52.1109 246.87C56.7263 246.87 61.2608 247.078 64.5031 249.178C74.8877 255.824 75.58 272.416 76.1915 287.059C76.5377 295.389 76.8607 303.212 78.8338 308.704C82.2953 318.397 87.8337 324.858 95.6568 328.32C115.387 337.227 145.641 325.297 172.341 314.762C188.125 308.52 203.045 302.635 213.141 302.37C221.783 302.139 230.217 306.478 236.217 314.243C239.829 319.147 243.383 324.178 246.787 329.243C254.09 332.185 262.421 324.039 269.125 317.474C271.063 315.581 272.898 313.793 274.548 312.42C276.913 310.447 279.371 308.474 281.967 306.397C295.721 295.366 311.298 282.882 317.113 266.589C321.14 255.282 318.128 243.143 315.209 231.397C313.815 226.26 312.736 221.043 311.978 215.774C309.867 198.155 299.563 180.213 289.594 162.859C284.529 154.044 279.74 145.713 276.025 137.475C269.725 123.548 264.175 108.34 258.036 88.1714C257.356 85.9444 256.756 83.556 256.133 81.006C254.321 73.7484 252.279 65.5215 247.848 60.3523C241.017 52.3677 235.871 53.8216 228.764 55.8177C225.134 56.9501 221.393 57.6928 217.606 58.0331C206.495 58.8062 195.245 56.1062 184.352 53.487C175.122 51.2716 166.41 49.1831 157.814 49.0562H157.526C136.676 49.0562 128.887 82.1137 121.353 114.087C115.745 137.89 110.449 160.367 100.088 170.348C91.7799 178.355 81.1876 183.305 70.9531 188.094C50.8878 197.463 31.9418 206.324 33.2572 236.774C33.6956 246.986 41.7725 246.94 50.3109 246.882L52.1109 246.87Z" fill="white"/>
<path d="M115.318 327.247C100.203 327.247 87.4069 322.227 79.9878 307.874C77.1147 302.312 76.3186 294.962 75.4878 287.174C74.2416 275.635 72.9609 263.659 64.3648 257.97C61.3417 255.963 57.0841 255.489 52.9764 255.039C45.338 254.197 37.4573 253.332 37.388 242.624C37.2034 213.674 56.3225 204.317 76.6186 194.417C86.6454 189.513 97.0184 184.436 104.922 176.751C114.661 167.267 119.253 145.598 124.122 122.636C130.895 90.6636 137.968 57.5946 160.168 57.4561C167.122 57.5872 174.06 58.177 180.937 59.2215C191.518 60.5715 202.456 61.9676 212.818 60.2022C216.517 59.5022 220.144 58.4632 223.652 57.0984C230.76 54.5484 236.344 52.4831 244.848 59.0946C250.467 63.4561 252.925 73.4599 255.014 81.4906C255.74 84.3982 256.433 87.1559 257.194 89.3251L258.937 94.3674C263.183 106.644 267.579 119.348 272.702 131.544C276.267 140.036 280.779 148.656 285.613 157.782C295.571 176.694 305.863 196.251 307.675 215.613C308.09 220.044 308.829 224.59 309.555 228.986C311.748 242.474 314.021 256.413 307.582 269.739C300.948 283.447 287.321 295.124 275.275 305.393C273.394 307.008 271.548 308.578 269.794 310.112C269.69 310.204 269.379 310.539 268.894 311.035C258.51 322.054 252.175 326.416 249.117 324.801L248.944 324.697L248.864 324.512C246.83 319.732 244.498 315.085 241.883 310.597C237.152 303.166 229.768 299.058 221.679 299.255C211.468 299.543 196.122 305.116 179.876 311.012C158.933 318.604 135.13 327.247 115.318 327.247ZM160.572 58.61H160.11C138.787 58.7369 131.876 91.3444 125.195 122.879C120.291 145.956 115.664 167.878 105.661 177.571C97.5838 185.394 87.1993 190.505 77.0686 195.455C57.1648 205.194 38.3573 214.39 38.5419 242.613C38.5419 252.305 45.3149 252.997 53.0918 253.897C57.3495 254.359 61.7456 254.843 64.9994 257.001C74.0455 262.989 75.384 275.22 76.6301 287.001C77.4609 294.685 78.2339 301.931 81.0147 307.297C88.18 321.143 100.63 326.024 115.388 326.024C135.003 326.024 158.656 317.428 179.437 309.87C195.764 303.939 211.202 298.331 221.61 298.043C230.114 297.824 237.856 302.139 242.829 309.939C245.417 314.409 247.729 319.033 249.752 323.785C251.564 324.489 256.225 322.631 267.983 310.17C268.502 309.628 268.837 309.27 268.952 309.178C270.717 307.631 272.552 306.062 274.444 304.447C286.386 294.235 299.909 282.662 306.44 269.174C312.729 256.17 310.479 242.405 308.309 229.101C307.594 224.682 306.844 220.113 306.429 215.659C304.64 196.517 294.394 177.063 284.506 158.255C279.683 149.106 275.136 140.463 271.548 131.925C266.402 119.694 262.006 106.979 257.76 94.679L256.006 89.6251C255.244 87.4098 254.54 84.6406 253.802 81.7098C251.817 73.8406 249.348 64.0445 244.052 59.9369C236.079 53.7638 230.991 55.5869 223.952 58.1138C220.38 59.5014 216.688 60.5559 212.922 61.2638C202.375 63.0638 191.356 61.6561 180.706 60.2946C174.037 59.3107 167.312 58.7481 160.572 58.61Z" fill="white"/>
<path d="M119.472 321.939C104.702 321.939 91.7795 317.693 82.7911 305.901C78.7757 300.651 77.3565 293.889 75.9719 287.358C74.1604 278.705 72.4296 270.536 65.2873 265.436C62.5066 263.439 58.9874 262.643 55.572 261.859C49.0874 260.347 42.3375 258.824 42.5683 248.532C43.1913 221.705 63.2104 211.124 82.5718 200.89C92.2987 195.755 102.349 190.448 109.941 183.132C119.437 173.982 123.452 153.132 127.71 130.944C133.675 99.8943 139.848 67.7945 162.325 67.0792C166.837 66.9292 171.406 67.0792 176.252 67.1715C187.087 67.4368 198.302 67.7138 208.559 64.8638C212.08 63.8016 215.492 62.4068 218.748 60.6984C226.006 57.1677 232.282 54.11 240.809 60.8484C252.198 69.8484 259.144 94.0559 264.74 113.51C267.128 121.829 269.355 129.663 271.663 135.121C274.548 142.102 278.021 149.256 281.713 156.836C291.047 176.071 300.717 195.963 302.032 215.578C302.159 217.528 302.297 219.432 302.436 221.29C304.04 243.743 305.217 259.978 290.897 279.766C283.34 290.151 273.313 299.381 263.632 308.266C259.778 311.785 255.809 315.431 252.094 319.031L251.194 319.908L251.113 318.651C250.375 306.755 243.844 294.928 230.944 294.928H230.263C218.829 295.285 202.721 300.697 185.667 306.466C163.583 313.931 139.745 321.939 119.472 321.939ZM166.894 68.1984C165.383 68.1984 163.894 68.1984 162.406 68.2676C140.829 68.9484 134.714 100.575 128.864 131.186C124.572 153.513 120.522 174.594 110.76 183.998C103.052 191.417 92.9333 196.771 83.1372 201.951C63.1874 212.486 44.3452 222.444 43.7452 248.589C43.5375 257.901 49.2374 259.205 55.8259 260.705C59.3566 261.501 62.9912 262.332 65.9566 264.466C73.4681 269.866 75.3142 278.635 77.1026 287.116C78.4526 293.532 79.8488 300.155 83.7026 305.197C104.587 332.543 147.498 318.12 185.356 305.405C202.502 299.635 218.69 294.212 230.286 293.866C240.232 293.52 250.721 300.789 252.209 317.428C255.671 314.093 259.305 310.747 262.848 307.493C272.494 298.643 282.463 289.505 289.963 279.166C304.051 259.712 302.897 243.674 301.305 221.474C301.167 219.605 301.028 217.701 300.901 215.705C299.597 196.321 289.986 176.475 280.698 157.402C277.005 149.798 273.521 142.633 270.613 135.617C268.305 130.125 266.078 122.233 263.69 113.879C258.14 94.5982 251.24 70.5868 240.152 61.8177C232.19 55.5177 226.513 58.2869 219.313 61.8177C215.992 63.5543 212.515 64.9758 208.929 66.0638C198.544 68.9368 187.202 68.6484 176.275 68.3715C173.021 68.2791 169.917 68.1984 166.871 68.1984H166.894Z" fill="white"/>
<path d="M124.34 316.101C109.756 316.101 96.5676 312.536 86.2638 302.763C81.9254 298.632 79.56 293.267 77.2754 288.074C74.5985 282.005 72.0716 276.271 66.6601 272.244C64.1773 270.557 61.4544 269.254 58.5832 268.378C52.814 266.324 47.3102 264.374 47.7602 254.44C48.914 229.69 68.3447 218.244 87.1984 207.132C96.9137 201.433 106.952 195.525 114.244 187.898C122.598 179.14 126.383 159.86 130.398 139.437C136.352 109.137 142.513 77.8103 164.563 76.668H164.771C178.859 75.9295 194.84 75.0987 208.225 69.168C210.96 67.9009 213.602 66.4394 216.128 64.795C222.74 60.7104 227.967 57.4912 236.897 63.2719C249.082 71.1526 255.74 94.2294 261.128 112.772C263.101 119.602 264.97 126.052 266.84 130.748C269.586 137.671 272.816 144.744 276.243 152.256C285.774 173.129 295.628 194.729 296.482 215.602L296.597 218.163C297.474 239.059 298.236 257.105 285.428 275.694C281.401 281.555 276.197 286.655 271.201 291.594C264.659 298.055 257.886 304.724 253.893 312.951L252.843 312.455C254.032 310.03 254.572 307.34 254.412 304.645C254.253 301.949 253.398 299.341 251.932 297.074C250.506 294.952 248.545 293.244 246.248 292.122C243.95 290.999 241.398 290.503 238.847 290.682C225.855 291.155 208.963 296.37 191.079 301.897C169.086 308.751 145.271 316.101 124.34 316.101ZM227.863 61.345C224.009 61.345 220.709 63.3757 216.751 65.8219C214.165 67.4869 211.466 68.9712 208.675 70.2641C195.105 76.2872 179.009 77.1295 164.829 77.8679H164.621C143.471 79.0218 137.402 109.841 131.529 139.702C127.479 160.287 123.66 179.729 115.075 188.729C107.691 196.494 97.5483 202.379 87.7869 208.148C69.2101 219.063 49.9986 230.348 48.9256 254.475C48.5102 263.544 53.1371 265.194 58.9755 267.271C61.9644 268.177 64.7971 269.535 67.3755 271.297C73.0293 275.509 75.7293 281.682 78.3485 287.578C80.6561 292.667 82.9638 297.963 87.083 301.897C111.625 325.263 153.66 312.282 190.755 300.824C208.709 295.274 225.671 290.036 238.824 289.551C241.573 289.376 244.319 289.923 246.79 291.137C249.262 292.352 251.372 294.192 252.913 296.474C255.136 299.848 256.028 303.927 255.417 307.92C259.478 301.551 265.005 296.105 270.416 290.809C275.355 285.917 280.501 280.84 284.47 275.071C297.059 256.782 296.297 238.921 295.432 218.232L295.316 215.671C294.474 195.04 284.666 173.533 275.24 152.764C271.778 145.241 268.57 138.144 265.813 131.21C263.92 126.456 262.051 119.983 260.043 113.118C254.747 94.7717 248.147 71.9257 236.332 64.2757C233.857 62.4896 230.912 61.4705 227.863 61.345Z" fill="white"/>
<path d="M130.238 308.993C116.496 308.993 103.284 306.339 91.0074 299.197C85.9767 296.255 82.3305 292.101 78.7998 288.074C75.8375 284.404 72.4262 281.121 68.646 278.301C66.7666 277.061 64.8 275.958 62.7614 275.001C57.1191 272.197 52.2499 269.774 52.9192 260.059C54.4884 237.674 73.0652 225.109 90.9958 212.971C100.688 206.417 110.715 199.644 117.534 191.498C124.353 183.352 128.346 166.01 132.43 147.756C139.007 118.321 145.815 87.8947 166.572 86.1524C181.168 84.9293 193.918 81.387 204.464 75.6294C207.142 74.1163 209.717 72.428 212.172 70.5755C218.922 65.6948 223.791 62.1756 233.31 68.7409C246.637 77.9717 253.976 101.348 259.849 120.168C261.729 126.191 263.506 131.867 265.26 136.321C267.568 142.09 270.049 147.86 272.725 153.987C281.541 174.202 290.668 195.109 290.76 215.682C290.841 236.024 290.045 253.044 279.222 271.24C277.329 274.424 273.51 278.347 269.46 282.501C266.029 285.904 262.771 289.478 259.699 293.209L259.768 293.405C261.337 298.505 259.191 303.789 254.287 306.87L253.595 307.297L253.41 306.524C252.429 302.428 254.772 297.755 258.406 293.013C257.022 289.551 253.352 286.159 246.868 286.413C230.622 287.024 212.795 291.928 193.93 297.12C172.711 302.993 150.88 308.993 130.238 308.993ZM223.999 66.3179C220.145 66.3179 216.972 68.6256 212.968 71.5102C210.468 73.3855 207.851 75.1005 205.134 76.6447C194.437 82.4832 181.538 86.0716 166.792 87.3062C146.876 88.9677 140.161 118.979 133.676 148.01C129.557 166.402 125.669 183.779 118.538 192.248C111.615 200.509 101.484 207.328 91.7228 213.928C73.9883 225.917 55.6538 238.321 54.1307 260.14C53.5076 269.082 57.5922 271.136 63.3614 273.986C65.4493 274.963 67.4624 276.093 69.3844 277.367C73.2546 280.236 76.7442 283.586 79.769 287.336C83.2305 291.282 86.8074 295.413 91.6881 298.216C121.826 315.812 158.426 305.751 193.826 296.001C212.76 290.797 230.656 285.87 247.041 285.259C253.745 285.005 257.702 288.351 259.41 291.986C262.202 288.524 265.606 285.063 268.837 281.693C272.829 277.597 276.602 273.72 278.425 270.651C289.11 252.663 289.871 236.521 289.791 215.682C289.698 195.352 280.629 174.559 271.849 154.448C269.172 148.31 266.633 142.506 264.372 136.748C262.606 132.26 260.818 126.56 258.926 120.525C253.087 101.879 245.806 78.664 232.803 69.6986C229.283 67.2871 226.503 66.3179 223.999 66.3179ZM258.995 294.339C256.076 298.274 254.172 302.082 254.552 305.405C256.328 304.228 257.703 302.54 258.497 300.564C259.29 298.588 259.464 296.417 258.995 294.339Z" fill="white"/>
<path d="M131.344 300.547C119.754 300.622 108.21 299.069 97.0523 295.932C88.4444 293.44 80.1922 289.853 72.4986 285.259C62.2294 278.843 57.4295 272.093 58.2256 265.17C60.7064 243.559 77.7601 230.763 94.2485 218.371C103.779 211.217 113.644 203.809 120.533 194.798C126.429 187.102 130.352 171.64 134.506 155.267C141.429 128.037 149.229 97.1714 168.636 95.2675C180.509 94.1137 192.256 89.3714 204.567 80.8792C206.771 79.3561 208.652 77.81 210.336 76.4484C216.509 71.36 220.594 67.9908 230.332 74.9254C242.886 83.8561 250.086 104.706 255.878 121.46C257.367 125.775 258.774 129.848 260.136 133.31C262.132 138.386 264.324 143.556 266.643 149.036C275.574 170.14 285.693 194.036 285.359 215.682C285.105 231.57 284.066 249.905 274.917 266.451C272.717 269.966 270.24 273.3 267.509 276.42C265.79 278.52 264.047 280.689 262.34 282.893C263.224 283.54 263.954 284.375 264.474 285.339C265.179 287.024 265.437 288.863 265.222 290.676C265.008 292.49 264.328 294.217 263.25 295.691C262.172 297.165 260.731 298.336 259.068 299.089C257.404 299.843 255.574 300.154 253.755 299.993L253.236 299.924V299.416C253.363 294.235 256.628 288.628 260.655 283.193C258.757 282.293 256.659 281.895 254.563 282.039C234.844 282.489 214.778 286.943 195.382 291.27C174.452 295.839 153.048 300.547 131.344 300.547ZM220.778 72.1446C217.317 72.1446 214.686 74.3369 211.052 77.3369C209.367 78.71 207.463 80.2792 205.225 81.8253C192.752 90.4445 180.821 95.2098 168.752 96.4214C150.152 98.2791 142.433 128.729 135.614 155.579C131.437 172.067 127.537 187.644 121.444 195.536C114.464 204.675 104.541 212.128 94.9062 219.328C78.6486 231.571 61.7794 244.228 59.3679 265.343C57.7295 279.628 83.5062 290.901 97.3754 294.859C130.583 304.343 163.386 297.074 195.129 290.047C214.571 285.732 234.694 281.278 254.528 280.816C256.882 280.681 259.229 281.167 261.336 282.224C263.044 279.974 264.797 277.77 266.586 275.647C269.269 272.575 271.711 269.299 273.89 265.851C282.913 249.582 283.928 231.409 284.182 215.659C284.516 194.278 274.443 170.486 265.559 149.486C263.251 144.006 261.036 138.813 259.04 133.737C257.667 130.275 256.259 126.167 254.759 121.84C248.99 105.237 241.894 84.583 229.64 75.86C225.925 73.2177 223.167 72.1446 220.778 72.1446ZM254.401 298.862C255.975 298.954 257.544 298.627 258.951 297.916C260.357 297.205 261.55 296.134 262.409 294.812C263.374 293.55 263.979 292.05 264.16 290.472C264.341 288.893 264.091 287.295 263.436 285.847C262.993 285.026 262.374 284.313 261.624 283.759C257.828 288.916 254.724 294.109 254.401 298.862Z" fill="white"/>
<path d="M117.384 293.67C94.838 293.67 76.2958 290.843 68.0343 282.87C66.2654 281.212 64.9286 279.147 64.1403 276.855C63.352 274.562 63.136 272.112 63.5113 269.716C66.0035 249.478 82.0996 235.874 97.6649 222.721C106.896 214.909 116.472 206.832 122.934 197.498C127.838 190.413 131.726 176.867 135.834 162.525C143.415 135.987 151.988 105.987 170.345 103.933C180.407 102.779 190.376 98.0483 201.73 89.0137C203.737 87.4214 205.445 85.8638 206.956 84.4907C213.499 78.5484 217.11 75.26 227.783 83.1061C240.879 92.6945 248.402 113.637 254.449 130.471C255.764 134.14 257.01 137.613 258.233 140.706C259.26 143.336 260.31 145.979 261.372 148.656C270.302 171.098 279.521 194.302 279.764 215.659C279.937 231.028 276.81 245.37 269.921 260.832C267.944 264.995 265.681 269.016 263.148 272.866C262.433 274.02 261.729 275.174 261.048 276.236H261.106C266.875 276.328 268.964 278.428 269.645 280.159C270.637 282.709 269.321 286.216 266.287 289.112C263.252 292.009 258.106 294.535 253.283 292.401L252.856 292.205L252.96 291.743C254.182 286.698 256.208 281.883 258.96 277.482C254.16 277.863 244.687 279.363 232.295 281.313C201.395 286.193 154.088 293.67 117.384 293.67ZM217.399 79.6446C214.018 79.6446 211.456 81.9523 207.73 85.3445C206.206 86.7291 204.476 88.2984 202.457 89.9599C190.918 99.1906 180.753 103.967 170.472 105.133C152.911 107.117 144.43 136.748 136.942 162.825C132.811 177.271 128.865 190.909 123.88 198.155C117.326 207.605 107.726 215.728 98.4033 223.54C83.0111 236.544 67.0881 249.997 64.6535 269.797C64.2994 272.017 64.4949 274.289 65.2231 276.415C65.9514 278.542 67.19 280.457 68.8304 281.993C90.1188 302.566 182.495 287.97 232.122 280.124C245.218 278.059 255.072 276.501 259.675 276.236C260.495 274.874 261.337 273.536 262.168 272.209C264.674 268.405 266.91 264.43 268.86 260.313C275.679 245.013 278.783 230.821 278.61 215.636C278.368 194.486 269.183 171.386 260.298 149.036L257.148 141.086C255.937 137.971 254.691 134.498 253.364 130.817C247.375 114.133 239.91 93.3637 227.103 83.983C222.868 80.9369 219.856 79.6446 217.399 79.6446ZM254.195 291.524C258.36 293.093 262.848 290.797 265.491 288.282C268.133 285.766 269.391 282.686 268.56 280.586C267.729 278.486 265.191 277.459 261.083 277.389H260.345C257.559 281.746 255.483 286.517 254.195 291.524Z" fill="white"/>
<path d="M90.0614 290.416C82.8499 290.416 75.9384 289.332 72.0038 285.293C69.2692 282.49 68.2077 278.486 68.8423 273.386C71.15 254.267 86.4499 239.486 101.15 225.19C109.78 216.825 118.7 208.171 124.584 198.929C128.796 192.329 132.396 180.779 136.203 168.56C144.107 143.175 153.073 114.491 171.684 112.021C180.684 110.868 187.895 104.856 194.876 99.0754C204.488 91.1254 213.557 83.6255 225.361 91.2985C237.499 99.1908 245.414 120.433 251.183 135.952C252.245 138.814 253.26 141.514 254.183 143.821C262.606 164.925 273.083 191.186 274.156 215.648C274.595 225.663 272.552 237.478 268.087 250.771C264.856 257.455 261.626 264.101 258.395 270.709C261.103 270.753 263.804 271.011 266.472 271.482C268.342 271.973 270.148 272.685 271.849 273.605C272.772 274.044 273.706 274.505 274.583 274.863L275.079 275.082L274.906 275.59C272.599 282.236 265.076 287.809 259.318 287.059C257.218 286.782 253.641 285.351 253.203 278.843V278.693L253.318 278.532C254.41 276.293 255.503 274.055 256.595 271.817C244.549 271.943 230.241 275.163 215.241 278.532C203.83 281.093 192.015 283.747 181.249 284.89C161.115 287.036 140.553 287.843 120.673 288.616C117.419 288.732 114.169 288.859 110.923 288.997C108.95 289.078 106.492 289.309 103.907 289.563C99.6382 289.955 94.7806 290.416 90.0614 290.416ZM215.541 89.2331C208.618 89.2331 202.457 94.3331 195.649 99.9754C188.542 105.848 181.203 111.918 171.869 113.164C153.996 115.541 145.146 143.89 137.346 168.906C133.503 181.206 129.892 192.813 125.6 199.552C119.634 208.898 110.657 217.609 101.981 226.021C87.396 240.178 72.3038 254.809 69.9846 273.524C69.4077 278.255 70.3538 281.947 72.823 284.486C78.9499 290.774 93.2921 289.401 103.757 288.397C106.365 288.143 108.834 287.913 110.842 287.832C114.084 287.693 117.338 287.578 120.592 287.451C140.45 286.678 160.976 285.87 181.099 283.736C191.795 282.582 203.564 279.951 214.953 277.401C230.207 273.94 244.803 270.697 257.068 270.697H257.149C260.464 263.913 263.768 257.124 267.06 250.332C271.456 237.248 273.476 225.571 273.037 215.717C271.976 191.486 261.499 165.294 253.145 144.271C252.21 141.964 251.206 139.241 250.133 136.379C244.422 121.01 236.587 99.9754 224.749 92.2908C222.049 90.3851 218.845 89.3212 215.541 89.2331ZM254.472 278.936C254.783 283.113 256.549 285.524 259.572 285.928C264.591 286.574 271.468 281.59 273.741 275.728C272.991 275.393 272.206 275.024 271.433 274.655C269.821 273.785 268.113 273.103 266.345 272.624C263.557 272.127 260.731 271.873 257.899 271.863C256.737 274.217 255.595 276.574 254.472 278.936Z" fill="white"/>
<path d="M87.8561 290.186C83.5754 290.186 79.7792 289.378 77.3216 287.151C74.8639 284.924 73.6293 281.047 74.2408 275.993C76.4677 257.774 90.9369 241.586 104.933 225.917C113.01 216.802 120.752 208.205 126.048 199.379C129.51 193.609 132.787 184.079 136.283 173.994C144.36 150.617 154.433 121.529 172.721 119.429C181.109 118.471 187.721 112.506 194.24 106.737C203.148 98.7754 211.548 91.2524 223.028 98.7754C232.455 104.948 240.924 125.856 245.99 138.352C246.717 140.152 247.363 141.744 247.917 143.06C257.343 165.363 267.532 191.221 268.628 215.752C269.251 229.378 264.901 243.444 261.14 252.871L261.059 252.997C258.158 256.838 256.016 261.197 254.747 265.84C259.95 265.396 265.189 265.652 270.324 266.601C272.067 267.126 273.735 267.875 275.286 268.828C276.128 269.29 277.005 269.763 277.801 270.155L278.447 270.455L278.009 271.02C273.14 277.413 265.709 281.036 259.928 279.859C257.297 279.316 253.882 277.551 252.52 272.117V272.024V271.932C252.67 270.318 252.921 268.715 253.27 267.132C242.886 267.963 231.209 270.374 219.728 272.74C209.009 274.943 197.944 277.228 187.952 278.255C178.432 279.247 168.717 280.032 159.325 280.782C145.767 281.878 131.748 283.009 118.041 284.774C115.733 285.063 112.629 285.836 108.994 286.724C102.475 288.224 94.5253 290.174 87.8561 290.186ZM213.682 96.7677C207.059 96.7677 201.336 101.879 195.002 107.545C188.413 113.429 181.605 119.51 172.848 120.525C155.286 122.533 145.352 151.24 137.379 174.306C133.848 184.494 130.525 194.117 126.994 199.944C121.641 208.886 113.921 217.528 105.741 226.678C91.8946 242.221 77.5293 258.282 75.3485 276.132C74.7716 280.747 75.6831 284.209 78.0369 286.297C83.9908 291.57 98.2407 288.063 108.648 285.501C112.317 284.601 115.479 283.828 117.879 283.528C131.621 281.763 145.652 280.632 159.221 279.536C168.613 278.774 178.317 277.99 187.825 277.009C197.759 275.982 208.801 273.709 219.474 271.505C231.59 269.013 243.278 266.601 253.547 265.817C254.824 260.916 257.051 256.313 260.101 252.271C263.817 242.959 268.097 229.09 267.486 215.694C266.332 191.463 256.247 165.663 246.867 143.44C246.313 142.137 245.713 140.533 244.928 138.721C240.244 127.183 231.532 105.664 222.405 99.6754C219.85 97.8626 216.814 96.8505 213.682 96.7677ZM253.663 271.828C254.632 275.601 256.882 277.955 260.159 278.624C265.27 279.674 272.113 276.386 276.659 270.767C276.024 270.443 275.378 270.086 274.732 269.74C273.288 268.846 271.737 268.136 270.116 267.628C264.953 266.713 259.691 266.5 254.47 266.994C254.093 268.585 253.823 270.2 253.663 271.828Z" fill="white"/>
<path d="M89.9125 288.916C86.8318 288.916 84.2126 288.316 82.3549 286.816C80.0472 284.912 79.1472 281.739 79.7357 277.378C82.1356 259.505 95.7279 241.816 108.859 224.693C115.851 215.59 122.462 206.982 127.239 198.582C130.181 193.413 133.158 185.509 136.308 177.132C144.639 154.99 155.001 127.448 173.231 125.902C182.277 125.14 188.358 119.36 194.243 113.763C201.812 106.563 208.966 99.7674 220.839 107.094C246.223 122.74 262.804 191.048 263.035 215.705C263.035 220.194 260.45 228.086 257.669 236.474C255.004 244.459 252.096 253.216 251.404 259.551C258.401 259.498 265.389 260.058 272.288 261.224C273.955 261.664 275.563 262.303 277.077 263.128C277.896 263.52 278.715 263.924 279.488 264.282L280.377 264.662L279.638 265.262C274.723 269.266 264.073 274.159 256.804 271.966C255.311 271.546 253.954 270.746 252.864 269.644C251.773 268.541 250.988 267.175 250.585 265.678C250.149 264.039 250.004 262.336 250.158 260.647C220.158 260.647 181.862 268.274 147.247 275.162C139.435 276.72 132.051 278.185 124.92 279.535C121.752 280.337 118.635 281.328 115.585 282.501C107.543 285.305 97.4009 288.916 89.9125 288.916ZM211.181 105.098C205.054 105.098 200.3 109.61 195.027 114.606C189.258 120.063 182.773 126.26 173.312 127.056C155.785 128.544 145.562 155.705 137.358 177.536C134.185 185.959 131.197 193.909 128.208 199.159C123.385 207.617 116.762 216.259 109.747 225.397C96.7086 242.393 83.2087 260.012 80.901 277.528C80.3703 281.474 81.1087 284.289 83.1164 285.916C88.9664 290.682 104.762 285.108 115.216 281.416C118.322 280.224 121.497 279.218 124.724 278.405C131.855 277.055 139.239 275.589 147.051 274.032C181.735 267.109 220.089 259.493 250.273 259.493C250.931 253.113 253.804 244.493 256.608 236.07C259.411 227.647 261.95 220.009 261.915 215.705C261.696 191.948 244.862 123.248 220.273 108.075C217.586 106.236 214.435 105.192 211.181 105.063V105.098ZM251.323 260.659C251.172 262.206 251.293 263.768 251.681 265.274C252.037 266.588 252.726 267.787 253.683 268.755C254.639 269.724 255.829 270.428 257.138 270.801C263.092 272.601 272.438 269.209 278.161 264.893C277.631 264.662 277.1 264.397 276.569 264.143C275.146 263.371 273.641 262.763 272.081 262.332C265.224 261.161 258.279 260.59 251.323 260.624V260.659Z" fill="white"/>
<path d="M93.3372 285.374C91.2384 285.511 89.1523 284.96 87.3949 283.805C85.5603 282.385 84.8334 280.055 85.2372 276.882C87.5449 258.478 100.595 238.932 113.195 220.032C118.745 211.701 123.983 203.821 128.068 196.401C130.375 192.271 132.683 186.582 135.429 179.982C143.748 159.94 155.148 132.502 173.252 131.152C181.329 130.552 186.96 125.175 192.406 119.983C199.802 112.921 206.794 106.263 218.494 113.833C242.448 129.329 257.725 193.448 257.413 215.29C257.413 216.767 256.132 221.059 254.367 226.909C251.886 235.205 248.459 246.72 247.94 253.263C256.045 253.133 264.141 253.868 272.09 255.455C273.401 255.838 274.663 256.373 275.851 257.047C276.486 257.37 277.132 257.705 277.732 257.97L278.771 258.432L277.79 258.997C273.029 261.583 267.784 263.154 262.386 263.612C257.632 263.959 251.205 263.37 247.582 258.524C246.885 257.287 246.591 255.863 246.74 254.451C213.394 254.774 170.379 264.559 137.021 272.151L131.575 273.397C128.607 274.315 125.694 275.406 122.852 276.662C113.91 280.274 101.449 285.374 93.3372 285.374ZM208.721 111.629C202.825 111.629 198.256 115.99 193.213 120.86C187.617 126.202 181.837 131.717 173.344 132.398C155.956 133.69 144.718 160.759 136.514 180.525C133.756 187.148 131.379 192.859 129.095 197.048C124.987 204.513 119.725 212.405 114.164 220.77C101.645 239.555 88.6987 258.986 86.391 277.112C86.0334 279.905 86.5987 281.832 88.1103 282.985C93.7987 287.358 111.718 280.032 122.425 275.659C125.326 274.372 128.3 273.258 131.333 272.324L136.779 271.089C170.241 263.486 213.302 253.678 246.809 253.355C247.236 247.401 250.005 237.628 253.282 226.667C254.875 221.313 256.259 216.686 256.271 215.359C256.536 193.713 241.513 130.183 217.883 114.894C215.213 112.927 212.022 111.791 208.709 111.629H208.721ZM247.952 254.405C247.808 255.573 248.026 256.756 248.575 257.797C254.344 265.551 269.09 262.205 276.267 258.524L275.367 258.062C274.272 257.439 273.111 256.94 271.905 256.574C263.996 255.006 255.944 254.279 247.882 254.405H247.952Z" fill="white"/>
<path d="M97.2504 279.178C95.475 279.294 93.7087 278.841 92.2081 277.885C90.7658 276.801 90.1773 275.059 90.4658 272.728C92.7735 253.516 105.72 232.043 117.143 213.109C121.423 206.013 125.462 199.263 128.877 192.905C130.458 189.951 132.246 186.063 134.323 181.563C142.896 162.952 155.842 134.844 172.827 134.059C179.311 133.771 184.561 129.202 189.65 124.829C197.046 118.402 204.65 111.767 215.877 118.967C238.676 133.656 251.749 191.255 251.403 212.659C250.947 215.68 250.245 218.659 249.303 221.567C247.272 228.917 244.111 240.328 244.815 246.316C252.998 246.194 261.174 246.858 269.23 248.301C270.364 248.544 271.479 248.872 272.565 249.282L274.226 249.847L275.645 250.286L274.307 250.92C267.384 254.163 251.23 257.393 245.034 250.159C244.441 249.406 244.044 248.518 243.88 247.574C210.8 247.955 170.611 257.255 137.15 266.036C135.708 266.416 132.696 267.685 128.889 269.289C119.127 273.385 105.408 279.178 97.2504 279.178ZM206.415 116.994C200.427 116.994 195.511 121.263 190.4 125.694C185.288 130.125 179.761 134.925 172.873 135.248C156.592 135.998 143.819 163.725 135.373 182.082C133.285 186.605 131.496 190.505 129.892 193.494C126.431 199.921 122.416 206.624 118.135 213.732C106.77 232.574 93.9042 253.932 91.5966 272.901C91.3658 274.828 91.7812 276.166 92.8889 276.997C98.1965 281.001 117.119 273.016 128.416 268.239C131.161 266.996 133.969 265.895 136.827 264.939C190.261 250.897 222.476 246.616 243.649 246.328C242.957 240.132 245.899 229.493 248.184 221.255C249.087 218.442 249.773 215.565 250.238 212.647C250.572 192.028 237.338 134.186 215.242 119.936C212.648 118.119 209.581 117.097 206.415 116.994ZM245.046 247.563C245.187 248.237 245.483 248.869 245.911 249.409C251.334 255.743 265.261 253.355 272.449 250.47L272.195 250.378C271.162 249.986 270.101 249.67 269.022 249.432C261.106 248.062 253.079 247.424 245.046 247.528V247.563Z" fill="white"/>
<path d="M102.026 271.24C100.342 271.359 98.662 270.956 97.2148 270.086C96.4953 269.521 95.9456 268.769 95.626 267.912C95.3064 267.055 95.2293 266.126 95.4033 265.228C97.2956 245.186 109.572 223.69 120.407 204.628C123.672 198.859 126.765 193.471 129.522 188.209C130.595 186.167 131.83 183.744 133.168 180.952C141.476 164.071 155.403 135.825 172.007 134.798C177.776 134.464 182.61 130.933 187.33 127.529C194.737 122.164 202.41 116.614 213.153 124.067C234.568 138.998 245.206 189.49 245.033 207.744C245.033 210.305 244.872 212.971 244.722 215.821C244.295 224.29 243.845 232.99 246.475 238.401C252.352 238.464 258.218 238.908 264.037 239.728C265.087 239.867 266.195 240.109 267.279 240.328L268.871 240.663L270.764 241.021L268.987 241.759C259.641 245.613 253.064 246.051 248.875 243.086C247.607 242.179 246.561 240.995 245.818 239.624C212.76 239.405 173.922 248.763 142.341 257.509C141.188 257.844 138.372 259.043 134.876 260.567C125.311 264.79 110.519 271.24 102.026 271.24ZM202.883 121.61C197.46 121.61 192.822 124.967 187.999 128.452C183.176 131.937 178.145 135.583 172.076 135.94C156.141 136.875 142.399 164.786 134.195 181.402C132.811 184.206 131.622 186.629 130.549 188.682C127.768 193.967 124.676 199.402 121.411 205.148C110.634 224.059 98.4264 245.532 96.5456 265.274C96.394 265.972 96.4388 266.699 96.6751 267.373C96.9113 268.047 97.3298 268.643 97.884 269.093C103.399 273.074 123.568 264.259 134.415 259.528C138.084 257.924 140.738 256.759 142.03 256.401C194.241 241.944 224.956 238.24 245.206 238.401C242.702 232.701 243.141 224.128 243.568 215.775C243.718 212.959 243.856 210.305 243.879 207.767C244.087 189.686 233.587 139.771 212.495 125.071C209.735 122.935 206.371 121.724 202.883 121.61ZM247.179 239.659C247.797 240.64 248.601 241.49 249.545 242.163C253.122 244.69 258.775 244.47 266.76 241.413C265.791 241.205 264.798 241.009 263.887 240.882C258.348 240.134 252.768 239.733 247.179 239.682V239.659Z" fill="white"/>
<path d="M107.093 261.063C105.353 261.166 103.623 260.739 102.131 259.839C101.37 259.26 100.779 258.486 100.421 257.598C100.064 256.71 99.9531 255.743 100.101 254.797C101.381 234.674 112.977 213.674 123.177 195.144C125.681 190.621 128.035 186.352 130.216 182.163L131.67 179.348C139.619 163.955 154.423 135.283 170.9 133.736C175.319 133.321 179.542 131.025 184.019 128.59C192.038 124.24 200.334 119.74 210.038 126.56C229.561 140.302 238.25 182.602 238.365 201.144C238.365 202.667 238.365 204.178 238.365 205.69C238.365 215.521 238.273 224.832 242.761 229.47C247.55 229.47 252.28 229.701 256.907 230.151C257.992 230.255 259.111 230.394 260.23 230.532L261.915 230.74L264.649 231.063L262.007 231.859C253.319 234.501 247.169 234.351 243.2 231.397C242.88 231.159 242.576 230.9 242.288 230.624H242.173C209.865 230.624 174.523 239.59 146.243 247.817C144.789 248.243 141.95 249.478 138.35 251.036C128.704 255.201 115.227 261.063 107.093 261.063ZM199.723 124.194C194.519 124.194 189.627 126.86 184.55 129.606C180.177 131.983 175.654 134.452 170.992 134.89C155.185 136.379 140.566 164.671 132.72 179.89L131.266 182.705C129.073 186.905 126.72 191.186 124.216 195.709C114.05 214.171 102.524 235.02 101.254 254.89C101.12 255.635 101.191 256.403 101.462 257.111C101.732 257.819 102.191 258.439 102.789 258.905C108.339 262.816 126.835 254.786 137.877 249.986C141.512 248.417 144.385 247.17 145.954 246.72C174.038 238.551 209.081 229.667 241.261 229.494C237.165 224.301 237.165 215.244 237.165 205.69C237.165 204.178 237.165 202.667 237.165 201.155C237.05 182.809 228.511 141.006 209.323 127.506C206.553 125.416 203.192 124.257 199.723 124.194ZM244.088 230.636C247.319 232.944 252.165 233.186 258.857 231.524L256.769 231.294C252.638 230.901 248.403 230.694 244.088 230.636Z" fill="white"/>
<path d="M112.458 248.694C110.535 248.802 108.624 248.336 106.966 247.355C106.159 246.758 105.521 245.961 105.117 245.042C104.712 244.124 104.554 243.115 104.658 242.117C104.993 223.171 115.816 203.256 125.358 185.694C127.354 182.013 129.247 178.54 131.012 175.136L131.139 174.906C138.235 161.198 153.062 132.698 169.585 131.187C173.636 130.631 177.597 129.545 181.365 127.956C189.223 125.048 197.335 122.048 206.669 128.891C224.046 141.641 230.98 178.263 231.477 193.009C231.477 194.094 231.546 195.202 231.569 196.309C231.8 205.425 232.042 214.852 237.234 219.121C240.957 219.121 244.627 219.294 248.242 219.64C249.338 219.744 250.469 219.905 251.611 220.055L253.307 220.286L256.203 220.655L253.388 221.417C245.969 223.425 240.569 223.055 236.888 220.263H236.83H236.577C209.138 220.263 178.723 228.432 149.635 236.959C148.066 237.421 145.412 238.505 142.054 239.878C133.054 243.559 120.5 248.694 112.458 248.694ZM194.692 125.868C190.296 125.868 186.073 127.425 181.723 129.041C177.859 130.666 173.797 131.772 169.642 132.329C153.708 133.783 139.089 161.913 132.166 175.436L132.039 175.667C130.262 179.129 128.381 182.59 126.373 186.236C116.889 203.694 106.135 223.471 105.812 242.14C105.716 242.952 105.837 243.776 106.163 244.526C106.49 245.276 107.01 245.926 107.67 246.409C113.439 250.355 131.081 243.132 141.616 238.828C145.008 237.444 147.685 236.348 149.312 235.863C178.158 227.417 208.238 219.317 235.55 219.121C230.877 214.24 230.646 205.148 230.415 196.332C230.415 195.236 230.357 194.129 230.323 193.044C229.838 178.471 223.031 142.275 205.988 129.825C202.767 127.288 198.793 125.896 194.692 125.868ZM239.011 220.298C241.757 221.659 245.38 221.902 249.996 221.013C249.35 220.932 248.715 220.852 248.08 220.794C245.103 220.517 242.08 220.344 239.011 220.298Z" fill="white"/>
<path d="M117.81 235.159C115.634 235.284 113.47 234.749 111.602 233.624C110.684 232.938 109.959 232.026 109.498 230.977C109.037 229.927 108.855 228.776 108.972 227.636C109.456 204.986 141.983 129.56 167.991 127.506C171.285 127.169 174.552 126.595 177.764 125.787C186.187 123.883 194.148 122.083 202.86 128.971C217.686 140.717 223.329 168.929 224.321 183.744C224.321 184.621 224.425 185.532 224.482 186.467C224.967 194.728 225.521 204.109 230.932 208.09C233.413 208.09 235.871 208.24 238.282 208.459C239.436 208.563 240.59 208.759 241.802 208.955C242.402 209.059 242.955 209.163 243.567 209.244L246.405 209.671L243.625 210.374C238.029 211.794 233.748 211.424 230.552 209.221H229.732C206.656 209.221 180.383 216.79 156.925 223.563L151.837 225.028C150.683 225.363 148.583 226.182 145.964 227.232C138.025 230.394 125.991 235.159 117.81 235.159ZM189.129 125.233C185.375 125.384 181.649 125.945 178.017 126.906C174.753 127.73 171.432 128.316 168.083 128.66C157.283 129.525 143.402 144.733 130.006 170.394C118.918 191.59 110.391 216.213 110.137 227.659C110.021 228.609 110.158 229.573 110.532 230.454C110.907 231.335 111.507 232.102 112.272 232.678C118.387 236.924 136.052 229.944 145.548 226.182C148.202 225.132 150.302 224.29 151.525 223.944L156.625 222.478C179.956 215.74 206.033 208.217 229.156 208.09C224.332 203.475 223.813 194.486 223.386 186.525C223.386 185.602 223.282 184.702 223.225 183.813C222.244 169.194 216.717 141.375 202.202 129.883C198.537 126.826 193.901 125.177 189.129 125.233ZM233.113 209.301C235.401 210.105 237.857 210.304 240.244 209.878C239.54 209.774 238.836 209.671 238.179 209.613C236.517 209.451 234.855 209.301 233.113 209.301Z" fill="white"/>
<path d="M123.141 219.848C120.681 219.993 118.235 219.39 116.126 218.117C115.171 217.412 114.406 216.481 113.9 215.408C113.395 214.334 113.164 213.152 113.23 211.967C113.08 200.982 120.153 179.29 129.983 160.367C136.987 146.913 151.029 124.194 166.329 123.052C180.556 121.991 192.094 125.233 200.621 132.698C210.44 141.294 215.979 155.094 217.075 173.717V174.582C217.49 181.863 218.067 191.89 223.433 195.952C223.801 196.223 224.186 196.47 224.587 196.69C225.563 196.69 226.533 196.725 227.494 196.794C228.81 196.863 230.24 197.048 231.613 197.232C232.306 197.325 233.01 197.417 233.69 197.486L237.279 197.89L233.736 198.628C230.593 199.459 227.258 199.178 224.298 197.832C205.121 197.498 184.11 203.452 163.733 209.221C160.087 210.259 156.487 211.275 152.956 212.244C151.699 212.59 149.806 213.236 147.625 213.986C140.818 216.34 130.653 219.848 123.141 219.848ZM171.464 124.01C169.814 124.01 168.141 124.079 166.41 124.206C141.51 126.064 114.106 191.544 114.383 211.898C114.314 212.903 114.499 213.91 114.92 214.825C115.341 215.74 115.986 216.535 116.795 217.136C122.737 221.313 138.095 215.982 147.268 212.855C149.472 212.094 151.387 211.436 152.679 211.09C156.199 210.121 159.798 209.105 163.445 208.067C183.268 202.459 203.702 196.667 222.533 196.621C216.994 192.086 216.406 182.002 215.979 174.606V173.74C214.906 155.44 209.494 141.906 199.917 133.517C192.602 127.217 183.06 124.01 171.464 124.01Z" fill="white"/>
<path d="M130.479 201.802C125.425 201.802 121.548 201.109 119.391 199.436C118.788 198.995 118.296 198.419 117.955 197.754C117.615 197.088 117.435 196.353 117.429 195.606C117.037 175.84 138.048 120.941 164.564 118.148C175.629 116.994 185.079 119.544 192.648 125.729C202.086 133.425 208.156 146.752 209.759 163.229L209.886 164.486C210.763 173.717 211.756 184.298 223.017 185.636L222.879 186.79C222.129 186.709 221.367 186.594 220.571 186.49C219.106 186.283 217.582 186.075 216.232 186.017C212.286 185.833 201.013 188.509 187.963 191.59C168.14 196.275 144.706 201.802 130.479 201.802ZM169.629 119.048C167.979 119.052 166.331 119.141 164.69 119.314C139.744 121.933 118.179 175.61 118.537 195.582C118.54 196.157 118.678 196.723 118.941 197.234C119.204 197.745 119.583 198.188 120.048 198.525C127.86 204.582 162.44 196.425 187.686 190.448C201.359 187.229 212.148 184.679 216.267 184.852H216.913C210.244 180.917 209.39 171.998 208.686 164.556L208.571 163.298C207.002 147.144 201.071 134.094 191.875 126.583C185.58 121.528 177.701 118.859 169.629 119.048Z" fill="white"/>
<path d="M136.03 186.594C130.919 186.594 126.799 185.844 124.295 184.009C123.513 183.451 122.866 182.724 122.404 181.88C121.943 181.037 121.678 180.1 121.63 179.14C121.019 170.106 125.853 154.159 133.365 140.348C137.576 132.594 148.895 114.433 162.822 113.21C175.941 112.056 184.907 118.633 190.122 124.344C197.069 132.315 201.37 142.244 202.433 152.763C203.507 162.433 204.21 168.813 212.749 173.671L215.056 174.963L212.437 174.744C211.606 174.675 210.753 174.582 209.887 174.49C208.276 174.281 206.654 174.158 205.03 174.121C201.06 174.121 192.234 176.221 181.953 178.655C166.491 182.279 148.318 186.594 136.03 186.594ZM165.384 114.248C164.564 114.248 163.745 114.248 162.926 114.364C141.834 116.21 121.561 160.933 122.784 179.071C122.818 179.862 123.033 180.634 123.413 181.329C123.793 182.023 124.328 182.62 124.976 183.075C133.053 189.04 161.184 182.359 181.699 177.467C191.991 175.021 200.876 172.909 204.983 172.909C206.541 172.909 208.283 173.106 209.968 173.279H210.072C202.964 168.282 202.237 161.74 201.268 152.821C198.476 127.264 181.168 114.248 165.384 114.248Z" fill="white"/>
<path d="M141.602 171.386C136.029 171.386 131.414 170.578 128.668 168.49C127.817 167.861 127.122 167.044 126.636 166.104C126.15 165.164 125.886 164.125 125.864 163.067C125.529 155.129 129.868 141.929 136.652 130.24C144.429 116.821 153.36 108.894 161.137 108.513C168.556 108.144 176.633 111.49 183.29 117.675C190.606 124.46 194.933 133.506 195.163 142.506C195.119 148.08 197.179 153.465 200.933 157.586C201.902 158.74 202.536 159.49 202.225 160.275C201.833 161.279 200.344 161.544 194.148 162.259C192.129 162.49 188.09 163.413 182.99 164.625C171.198 167.371 154.087 171.386 141.602 171.386ZM162.244 109.644H161.194C144.268 110.475 126.395 148.032 127.018 162.998C127.018 163.883 127.228 164.757 127.629 165.546C128.03 166.336 128.611 167.02 129.325 167.544C137.771 173.971 165.844 167.405 182.61 163.482C187.756 162.271 191.84 161.325 193.906 161.082C197.102 160.725 200.736 160.309 201.059 159.813C200.748 159.257 200.36 158.748 199.906 158.302C196.003 153.972 193.869 148.334 193.929 142.506C193.709 133.829 189.51 125.071 182.39 118.494C176.39 112.84 169.087 109.644 162.244 109.644Z" fill="white"/>
<path d="M146.23 156.467C140.795 156.467 136.111 155.682 133.249 153.548C132.361 152.907 131.625 152.078 131.093 151.121C130.561 150.164 130.245 149.102 130.168 148.009C129.43 139.321 136.468 123.029 145.249 113.14C150.165 107.602 155.114 104.59 159.545 104.452C172.78 103.99 186.891 118.067 187.987 132.836C188.25 136.926 189.23 140.937 190.883 144.686C191.61 146.44 192.037 147.513 191.53 148.436C190.872 149.59 188.991 149.982 183.776 150.744C181.93 151.021 179.276 151.575 176.207 152.209C167.83 154.009 155.864 156.467 146.23 156.467ZM160.076 105.594H159.557C155.449 105.721 150.788 108.594 146.091 113.89C137.484 123.594 130.572 139.471 131.299 147.894C131.358 148.825 131.622 149.731 132.073 150.547C132.524 151.363 133.15 152.069 133.907 152.613C141.453 158.232 163.041 153.767 175.953 151.148C179.034 150.513 181.722 149.994 183.58 149.671C187.607 149.059 190.087 148.632 190.503 147.906C190.745 147.467 190.341 146.498 189.787 145.159C188.094 141.278 187.087 137.132 186.81 132.906C185.691 117.56 171.395 105.594 160.099 105.594H160.076Z" fill="white"/>
<path d="M151.145 142.76C145.63 142.76 140.61 141.987 137.576 139.691C136.733 139.08 136.032 138.295 135.52 137.389C135.008 136.483 134.698 135.477 134.61 134.441C133.976 127.991 138.303 117.664 144.903 109.887C149.345 104.648 154.03 101.614 158.08 101.348C162.522 101.06 167.968 103.587 172.664 108.098C177.568 112.806 180.602 118.668 180.972 124.171C181.179 127.264 181.56 129.618 181.86 131.498C182.829 137.475 182.749 138.514 174.499 139.99L173.61 140.152C168.118 141.133 159.118 142.76 151.145 142.76ZM158.772 102.479H158.149C154.422 102.722 150.072 105.606 145.78 110.614C139.468 118.044 135.164 128.233 135.764 134.302C135.833 135.181 136.094 136.035 136.529 136.802C136.964 137.57 137.561 138.233 138.28 138.744C145.295 144.052 164.991 140.51 173.402 138.987L174.302 138.825C181.664 137.51 181.618 137.175 180.718 131.66C180.418 129.756 180.026 127.379 179.818 124.218C179.068 113.083 167.16 102.479 158.772 102.479Z" fill="white"/>
<path d="M153.649 131.267C149.311 131.267 145.064 130.621 142.318 128.533C141.438 127.87 140.707 127.029 140.174 126.065C139.642 125.101 139.318 124.035 139.226 122.937C138.072 112.367 146.784 100.794 156.822 99.5714C158.609 99.3256 160.426 99.4421 162.167 99.9139C163.907 100.386 165.535 101.203 166.953 102.318C170.795 105.329 173.426 110.602 174.176 116.787C175.33 126.64 175.33 128.544 166.618 129.952C162.337 130.734 158 131.174 153.649 131.267ZM158.703 100.61C158.128 100.611 157.554 100.645 156.984 100.714C147.684 101.868 139.318 113.002 140.391 122.81C140.46 123.753 140.732 124.67 141.188 125.499C141.644 126.327 142.274 127.047 143.034 127.61C148.457 131.729 160.607 129.756 166.457 128.764C174.107 127.529 174.222 126.594 173.045 116.879C172.341 110.994 169.872 106.01 166.272 103.183C164.117 101.485 161.446 100.577 158.703 100.61Z" fill="white"/>
<path d="M156.107 121.229C153.003 121.229 149.183 120.756 146.599 118.748C145.867 118.184 145.262 117.472 144.823 116.66C144.384 115.847 144.12 114.95 144.049 114.029C143.83 110.559 144.925 107.133 147.116 104.433C149.308 101.733 152.435 99.9564 155.876 99.4562C157.367 99.2831 158.879 99.4692 160.284 99.9991C161.689 100.529 162.947 101.387 163.953 102.502C166.054 104.91 167.331 107.926 167.599 111.11C168.291 117.698 166.56 120.087 160.457 120.929C159.015 121.129 157.562 121.229 156.107 121.229ZM156.995 100.552C156.663 100.549 156.332 100.568 156.003 100.61C150.349 101.21 144.534 107.025 145.191 113.925C145.254 114.691 145.475 115.435 145.84 116.11C146.206 116.785 146.708 117.377 147.314 117.848C150.291 120.156 156.003 120.398 160.353 119.787C165.256 119.106 167.195 117.768 166.503 111.237C166.272 108.298 165.103 105.511 163.168 103.287C162.39 102.422 161.437 101.732 160.374 101.26C159.31 100.789 158.158 100.548 156.995 100.552Z" fill="white"/>
<path d="M155.829 113.175C153.994 113.222 152.2 112.631 150.752 111.502C150.276 111.103 149.887 110.61 149.609 110.054C149.331 109.499 149.17 108.892 149.137 108.271C149.063 106.545 149.664 104.857 150.811 103.565C151.959 102.274 153.564 101.478 155.287 101.348C158.564 101.129 161.229 103.748 161.471 107.452C161.702 110.775 159.914 112.852 156.556 113.129C156.325 113.16 156.083 113.175 155.829 113.175ZM155.668 102.502H155.368C153.947 102.603 152.623 103.254 151.675 104.316C150.727 105.378 150.23 106.768 150.291 108.191C150.311 108.653 150.423 109.106 150.621 109.525C150.819 109.943 151.099 110.317 151.445 110.625C152.865 111.683 154.633 112.165 156.395 111.975C159.152 111.744 160.456 110.256 160.271 107.533C160.121 104.614 158.148 102.502 155.668 102.502Z" fill="white"/>
<path d="M183.049 331.874L181.895 331.585C186.672 312.916 207.568 304.332 227.76 296.036C249.533 287.093 270.106 278.647 270.937 258.663C271.652 241.263 248.921 219.132 233.875 204.432C230.102 200.763 226.849 197.59 224.299 194.867C219.441 189.675 214.272 184.39 209.299 179.279C187.849 157.356 165.672 134.66 154.561 106.368L155.634 105.952C166.653 134.014 188.76 156.617 210.129 178.471C215.126 183.582 220.295 188.855 225.129 194.082C227.656 196.782 230.899 199.944 234.672 203.602C250.768 219.282 272.817 240.755 272.079 258.663C271.214 279.432 250.318 287.97 228.233 297.062C208.318 305.289 187.687 313.759 183.049 331.874Z" fill="white"/>
<path d="M216.13 349.17H214.976C215.576 329.151 231.88 316.32 247.653 303.905C263.426 291.489 278.518 279.593 277.537 261.363C276.384 240.178 249.164 213.328 231.142 195.594C227.138 191.648 223.676 188.232 220.919 185.313C216.095 180.202 211.03 175.044 206.138 170.048C187.1 150.652 167.415 130.586 154.607 106.587L155.623 106.044C168.315 129.94 187.93 149.948 206.957 169.286C211.861 174.282 216.926 179.452 221.761 184.563C224.507 187.471 227.957 190.875 231.949 194.809C250.099 212.601 277.549 239.636 278.703 261.224C279.707 280.066 264.487 292.055 248.368 304.735C232.803 317.024 216.707 329.693 216.13 349.17Z" fill="white"/>
<path d="M243.786 368.22C238.455 346.297 247.248 328.678 255.832 311.589C263.309 296.659 270.359 282.547 268.905 265.736C266.597 239.013 244.674 213.051 227.067 192.19L222.048 186.225C214.202 176.809 205.767 167.556 197.609 158.613C182.609 142.217 167.171 125.267 154.629 106.529L155.598 105.883C168.083 124.552 183.521 141.479 198.463 157.806C206.621 166.759 215.067 176.013 222.936 185.498C224.552 187.425 226.225 189.421 227.955 191.463C245.655 212.451 267.694 238.563 270.047 265.643C271.536 282.789 264.082 297.697 256.871 312.12C248.413 329.024 239.678 346.493 244.905 367.954L243.786 368.22Z" fill="white"/>
<path d="M275.519 355.308C273.892 353.22 272.265 351.224 270.696 349.274C261.823 338.324 254.162 328.862 252.846 313.436C252.165 305.52 253.412 297.709 254.612 290.163C255.812 282.617 257.023 274.99 256.388 267.236C252.258 217.125 213.039 172.956 178.435 133.991C169.954 124.437 161.947 115.414 154.666 106.575L155.566 105.837C162.824 114.664 170.831 123.675 179.3 133.218C214.019 172.321 253.377 216.652 257.542 267.144C258.188 275.036 256.954 282.813 255.754 290.336C254.554 297.859 253.331 305.566 254 313.332C255.281 328.412 262.838 337.747 271.596 348.547C273.177 350.497 274.792 352.505 276.419 354.593L275.519 355.308Z" fill="white"/>
<path d="M319.883 324.882C312.706 320.693 304.56 317.428 296.679 314.266C286.133 310.032 275.229 305.647 266.264 298.978C254.933 290.543 252.879 281.047 250.283 268.978C249.914 267.293 249.545 265.517 249.129 263.74C233.703 197.036 189.28 141.467 154.699 106.61L155.518 105.802C190.203 140.764 234.856 196.505 250.249 263.532C250.664 265.343 251.045 267.097 251.402 268.793C254.045 281.036 255.96 289.886 266.945 298.066C275.795 304.643 286.629 308.993 297.106 313.205C305.021 316.378 313.26 319.666 320.46 323.889L319.883 324.882Z" fill="white"/>
<path d="M365.932 286.609C358.559 285.57 349.709 284.97 340.34 284.301C307.594 282.097 266.852 279.363 249.694 255.178C237.371 237.801 228.014 217.482 218.968 197.844C203.287 163.817 187.075 128.614 154.791 106.587L155.437 105.641C187.987 127.852 204.268 163.194 220.052 197.359C229.087 216.975 238.421 237.224 250.687 254.509C267.521 278.243 307.963 280.966 340.455 283.147C349.847 283.782 358.732 284.37 366.14 285.455L365.932 286.609Z" fill="white"/>
<path d="M371.701 256.99C363.209 256.39 353.32 256.366 342.855 256.343C311.978 256.343 276.982 256.216 254.782 241.851C239.679 232.067 229.548 212.417 220.617 195.086C217.721 189.467 214.987 184.159 212.24 179.463C211.248 177.778 210.256 176.082 209.264 174.375C194.483 149.071 179.206 122.913 154.779 106.69L155.425 105.721C180.071 122.094 195.417 148.413 210.256 173.798L213.233 178.875C216.002 183.605 218.737 188.925 221.644 194.555C230.506 211.759 240.556 231.27 255.406 240.882C277.328 255.074 312.14 255.132 342.855 255.19C353.332 255.19 363.232 255.19 371.77 255.836L371.701 256.99Z" fill="white"/>
<path d="M351.037 232.078C341.252 231.155 330.579 231.201 319.295 231.247C298.318 231.34 276.603 231.432 258.949 225.178C240.545 218.659 228.338 199.032 217.561 181.713C215.322 178.113 213.211 174.709 211.111 171.548C208.561 167.706 206.011 163.713 203.542 159.848C190.446 139.298 176.911 118.044 154.85 106.771L155.38 105.756C177.719 117.225 191.346 138.606 204.522 159.283C206.98 163.148 209.53 167.14 212.068 170.971C214.18 174.144 216.292 177.548 218.542 181.159C229.215 198.317 241.307 217.759 259.33 224.14C276.822 230.336 298.41 230.244 319.329 230.151C330.648 230.151 341.345 230.059 351.187 230.982L351.037 232.078Z" fill="white"/>
<path d="M262.803 205.39C261.329 205.4 259.856 205.307 258.395 205.113C240.591 202.551 227.034 183.986 216.141 169.067C214.249 166.471 212.461 164.025 210.753 161.798C207.857 158.036 204.984 154.148 202.272 150.386C188.945 132.121 176.357 114.871 154.965 106.748L155.38 105.663C177.142 113.913 189.834 131.302 203.265 149.705C205.999 153.455 208.838 157.344 211.722 161.094C213.441 163.332 215.184 165.778 217.134 168.386C227.887 183.132 241.295 201.478 258.672 203.971C265.053 204.882 273.199 203.359 281.091 201.882C286.342 200.756 291.667 200.012 297.025 199.655C301.872 199.505 306.775 199.54 311.518 199.563C320.852 199.632 330.498 199.701 339.971 198.328L340.133 199.482C330.568 200.867 320.887 200.797 311.518 200.728C306.775 200.728 301.883 200.671 297.06 200.821C291.76 201.176 286.492 201.917 281.299 203.036C274.906 204.19 268.456 205.39 262.803 205.39Z" fill="white"/>
<path d="M244.364 173.29C229.456 173.29 218.01 160.84 207.787 149.706C206.541 148.356 205.33 147.029 204.118 145.748C201.695 143.175 199.376 140.625 197.137 138.156C184.757 124.529 174.061 112.771 154.941 106.76L155.288 105.606C174.707 111.721 185.495 123.583 197.98 137.337C200.218 139.794 202.537 142.344 204.903 144.906C206.056 146.186 207.337 147.525 208.583 148.886C219.845 161.14 232.606 175.032 249.66 171.536C254.437 170.556 258.475 168.075 262.352 165.698C266.968 162.836 271.86 159.929 278.079 159.317C284.933 158.706 291.094 161.071 297.06 163.367C300.482 164.778 304.003 165.934 307.594 166.829L307.352 167.982C303.701 167.076 300.122 165.9 296.644 164.463C290.54 162.156 284.771 159.848 278.183 160.494C272.229 161.036 267.51 163.956 262.952 166.702C258.96 169.148 254.875 171.675 249.856 172.69C248.05 173.072 246.21 173.273 244.364 173.29Z" fill="white"/>
<path d="M221.332 146.14C217.063 146.14 212.505 144.421 206.909 141.029C199.817 136.589 193.198 131.435 187.155 125.648C178.248 117.571 170.563 110.648 154.975 106.771L155.252 105.618C171.128 109.564 178.905 116.614 187.928 124.771C193.925 130.513 200.498 135.621 207.543 140.013C219.486 147.248 226.166 146.683 236.124 137.602C240.726 133.253 244.91 128.482 248.62 123.352C253.385 117.098 257.147 112.171 262.362 111.952C267.335 111.768 273.335 115.898 281.897 125.406L281.008 126.225C272.712 116.994 266.955 112.991 262.385 113.152C257.816 113.314 254.309 117.86 249.509 124.102C245.761 129.286 241.535 134.108 236.886 138.502C231.22 143.625 226.49 146.14 221.332 146.14Z" fill="white"/>
<path d="M205.342 130.979C203.605 130.962 201.875 130.753 200.184 130.356L200 130.287C192.454 125.529 185.241 120.263 178.411 114.525C172.481 107.475 164.692 104.891 155.231 106.771L155 105.618C164.911 103.645 173.069 106.368 179.231 113.694C185.972 119.353 193.088 124.55 200.53 129.248C212.703 131.89 216.13 124.898 220.873 115.229L221.923 113.094C223.93 109.068 225.384 103.471 227 97.5522C229.896 86.7061 233.184 74.4755 240.615 69.3063C250.48 62.4986 260.957 68.6601 270.199 74.0947C272.507 75.4562 274.722 76.7485 276.857 77.81L276.349 78.8485C274.168 77.7524 271.965 76.4601 269.622 75.087C260.23 69.5716 250.526 63.8717 241.261 70.2524C234.188 75.1331 230.957 87.2023 228.119 97.8522C226.515 103.829 225.015 109.483 222.961 113.614L221.911 115.737C217.803 124.114 214.446 130.979 205.342 130.979Z" fill="white"/>
<path d="M198.107 122.937C195.247 122.814 192.407 122.384 189.638 121.656H189.511C181.945 117.82 175.07 112.75 169.169 106.656L155.127 106.817V105.664L169.677 105.49L169.85 105.675C175.684 111.737 182.494 116.776 189.996 120.583C202.907 123.525 204.223 122.51 209.83 105.479C211.305 100.597 212.461 95.6255 213.292 90.5944C215.069 81.0753 216.903 71.2446 222.165 63.8023C232.734 48.8024 247.088 51.5716 262.284 54.4562L266.738 55.2754L266.53 56.4293L262.076 55.6101C247.249 52.8062 233.23 50.1524 223.111 64.4946C218 71.7292 216.188 81.433 214.434 90.8252C213.605 95.8945 212.449 100.905 210.973 105.825C206.68 118.621 204.754 122.937 198.107 122.937Z" fill="white"/>
<path d="M188.91 122.66C185.275 122.66 181.987 119.302 178.156 115.46C172.179 109.425 165.406 102.583 155.333 106.737L154.895 105.675C165.683 101.222 173.056 108.664 178.975 114.652C182.898 118.61 186.279 122.048 189.729 121.437C192.764 120.906 195.844 117.191 199.133 110.083C203.24 101.221 205.225 92.9485 206.99 85.6447C211.006 68.9486 214.19 55.7603 239.182 47.7642L239.529 48.918C215.16 56.7179 212.206 68.9833 208.11 85.9678C206.333 93.3293 204.325 101.66 200.183 110.625C196.721 118.206 193.41 122.014 189.937 122.625C189.596 122.665 189.252 122.676 188.91 122.66Z" fill="white"/>
<path d="M182.934 130.379L182.565 129.952C180.603 127.525 178.799 124.973 177.165 122.314C171.165 113.083 163.7 101.544 155.473 106.691L154.873 105.721C164.104 99.9522 171.858 112.021 178.134 121.679C179.65 124.126 181.295 126.491 183.061 128.764C192.084 120.767 190.838 107.671 189.627 94.9907C189.269 91.1714 188.923 87.5715 188.877 84.1677C188.401 62.7412 190.176 41.3239 194.173 20.2681L195.327 20.4873C191.348 41.4676 189.581 62.8072 190.054 84.1561C190.054 87.5022 190.446 91.0791 190.804 94.8868C191.957 107.441 193.354 121.667 183.384 130.021L182.934 130.379Z" fill="white"/>
<path d="M170.842 135.56L170.392 134.51C166.122 124.506 162.095 114.237 158.392 103.991L155.507 106.633L154.722 105.779L158.899 101.971L159.188 102.779C162.822 112.91 166.792 123.064 170.992 132.975C176.011 123.248 172.145 109.633 168.765 97.5637C167.772 94.1021 166.838 90.7675 166.192 87.7676L165.165 83.0253C159.084 55.0447 153.349 28.6218 149.334 0.664283L150.488 0.502747C154.492 28.4141 160.226 54.8255 166.295 82.783L167.334 87.5253C167.968 90.4906 168.903 93.7791 169.884 97.2521C173.472 109.944 177.545 124.379 171.43 134.579L170.842 135.56Z" fill="white"/>
<path d="M158.484 140.256C152.969 114.525 144.477 88.9678 136.273 64.241C131.531 49.9911 126.638 35.2566 122.369 20.6605L123.523 20.3375C127.781 34.9104 132.673 49.6334 137.369 63.8833C143.565 82.5178 149.911 101.625 155.034 120.929C154.292 116.035 154.129 111.07 154.55 106.137L155.704 106.275C154.642 115.137 157.169 128.337 159.627 140.025L158.484 140.256Z" fill="white"/>
<path d="M149.033 155.867L148.052 155.106C141.06 149.613 136.964 141.813 135.891 131.937C124.721 107.879 113.575 83.4754 102.775 59.2448L103.825 58.7717C114.637 83.0023 125.748 107.487 136.975 131.556V131.74C137.956 140.867 141.591 148.137 147.717 153.398C147.59 151.54 147.36 149.256 147.106 146.694C145.617 132.11 143.367 110.071 154.86 105.687L155.275 106.771C144.602 110.833 146.887 133.206 148.248 146.567C148.571 149.787 148.86 152.556 148.94 154.644L149.033 155.867Z" fill="white"/>
<path d="M137.933 180.582L137.183 180.179C117.834 169.794 104.23 142.263 92.1837 118.01C87.9606 109.471 83.9568 101.395 80.0684 94.8292L81.0491 94.2407C84.9722 100.841 88.9875 108.929 93.2221 117.502C104.991 141.271 118.307 168.179 136.941 178.736C137.195 175.875 137.253 171.49 137.322 166.044C137.564 146.775 137.933 117.652 147.626 108.468C148.601 107.499 149.767 106.744 151.051 106.251C152.334 105.758 153.706 105.539 155.079 105.606V106.76C153.86 106.691 152.639 106.883 151.499 107.323C150.359 107.763 149.326 108.44 148.468 109.31C139.122 118.148 138.741 148.137 138.522 166.056C138.441 172.09 138.383 176.856 138.049 179.706L137.933 180.582Z" fill="white"/>
<path d="M123.199 204.813C111.938 204.813 86.0574 168.79 61.9075 132.975C58.8499 128.452 56.646 125.175 55.4922 123.618L56.4153 122.937C57.5691 124.506 59.796 127.794 62.8652 132.329C76.8382 153.098 113.946 208.067 124.503 203.405C128.819 201.49 130.769 170.74 131.426 160.633C131.599 157.979 131.703 156.387 131.772 155.913C132.188 153.363 132.534 150.387 132.926 147.248C134.876 130.471 137.542 107.51 155.103 105.629L155.218 106.783C138.569 108.56 135.972 131.014 134.08 147.375C133.711 150.537 133.365 153.513 132.926 156.087C132.857 156.513 132.742 158.267 132.592 160.702C131.288 181.252 129.361 202.529 124.999 204.455C124.432 204.702 123.818 204.824 123.199 204.813Z" fill="white"/>
<path d="M108.27 226.863C98.7739 226.863 68.2665 189.859 40.1243 154.759C34.3551 147.548 30.1552 142.333 28.5859 140.636L29.4282 139.84C31.0667 141.571 35.1974 146.763 41.0589 154.044C59.2088 176.682 101.728 229.678 109.135 225.582C117.916 220.597 120.408 201.282 122.22 187.182C122.774 182.855 123.258 179.105 123.847 176.313C124.724 172.102 125.474 167.752 126.27 163.148C130.055 141.156 134.347 116.233 154.943 105.733L155.474 106.771C135.397 116.994 131.151 141.617 127.401 163.309C126.605 167.925 125.855 172.275 124.966 176.509C124.389 179.278 123.916 182.994 123.362 187.298C121.516 201.64 118.989 221.278 109.701 226.528C109.265 226.773 108.769 226.889 108.27 226.863Z" fill="white"/>
<path d="M92.2176 247.794C80.5754 247.794 69.4639 232.124 61.214 220.505C59.2294 217.713 57.5217 215.301 56.0332 213.432C39.3949 192.663 25.018 177.548 9.42969 164.567L10.1681 163.69C25.8142 176.717 40.2372 191.832 56.9332 212.763C58.4448 214.655 60.164 217.078 62.1601 219.882C70.237 231.294 82.4792 248.532 94.1791 246.524C107.252 244.286 112.525 217.021 115.687 200.74C116.437 196.84 117.094 193.459 117.729 190.967C119.148 185.382 120.417 179.498 121.652 173.798C127.225 148.01 132.994 121.344 154.779 105.779L155.448 106.725C134.033 122.025 128.31 148.471 122.783 174.04C121.548 179.752 120.267 185.648 118.848 191.244C118.214 193.713 117.567 197.071 116.817 200.959C113.356 218.613 108.233 245.29 94.3753 247.667C93.6605 247.766 92.9391 247.808 92.2176 247.794Z" fill="white"/>
<path d="M82.4334 269.128C72.395 269.128 61.9066 256.77 54.8105 248.359C53.7836 247.147 52.8374 246.051 51.9951 245.082C49.0528 241.747 46.2259 238.424 43.5029 235.217C31.2376 220.84 19.653 207.19 1.33008 198.202L1.83777 197.163C20.38 206.267 32.0337 219.986 44.3798 234.513C47.1029 237.721 49.9298 241.044 52.8605 244.367C53.7028 245.313 54.649 246.432 55.6874 247.655C62.6797 255.905 74.3912 269.717 84.418 267.79C98.6795 265.067 107.206 231.305 110.852 216.882C111.383 214.805 111.799 213.167 112.122 212.025C114.556 203.578 116.506 194.717 118.583 185.417C125.195 155.648 132.025 124.875 154.744 105.802L155.483 106.679C133.064 125.544 126.279 156.121 119.714 185.706C117.637 195.063 115.675 203.902 113.229 212.382C112.906 213.536 112.502 215.128 111.972 217.205C108.279 231.836 99.6141 266.093 84.6257 268.966C83.9016 269.089 83.1676 269.143 82.4334 269.128Z" fill="white"/>
<path d="M78.1764 284.405C63.2572 284.405 50.2996 268.02 37.7228 252.097C27.7882 239.567 18.4075 227.763 8.36914 223.667L8.79606 222.605C19.1806 226.748 28.5959 238.759 38.6228 251.451C52.4689 268.909 66.7072 286.955 83.1494 282.605C99.5916 278.255 107.38 243.709 112.122 223.032C113.022 219.075 113.795 215.648 114.488 213.144C116.795 204.755 118.688 196.171 120.707 187.067C127.238 157.598 133.988 127.067 154.699 105.802L155.53 106.61C135.038 127.691 128.322 158.002 121.838 187.321C119.899 196.032 117.915 205.032 115.595 213.455C114.915 215.936 114.142 219.34 113.288 223.286C108.522 244.228 100.595 279.259 83.4956 283.724C81.7589 284.177 79.9713 284.406 78.1764 284.405Z" fill="white"/>
<path d="M81.3149 288.755C78.4305 288.759 75.6019 287.96 73.1457 286.447C59.1958 278.047 54.6843 248.209 51.3612 226.448C50.5815 220.4 49.4955 214.397 48.1074 208.459L49.2613 208.148C50.6653 214.142 51.7629 220.203 52.5497 226.309C55.7804 247.863 60.2573 277.378 73.7457 285.455C77.7957 287.901 82.5034 288.213 87.7533 286.39C104.784 280.447 112.099 248.694 116.934 227.682C117.88 223.563 118.711 219.998 119.495 217.055C122.276 206.752 124.572 196.171 126.799 185.902C132.753 158.533 138.903 130.229 154.63 105.825L155.599 106.448C139.976 130.679 133.849 158.879 127.907 186.144C125.68 196.402 123.372 207.005 120.592 217.298C119.807 220.228 118.988 223.771 118.042 227.89C113.138 249.144 105.742 281.267 88.111 287.416C85.9373 288.242 83.6395 288.695 81.3149 288.755Z" fill="white"/>
<path d="M85.4579 288.536C83.4012 288.573 81.3763 288.025 79.6195 286.955C68.6349 280.113 70.9311 252.974 72.4426 235.032C72.7772 231.017 73.0772 227.532 73.158 224.924H74.3118C74.2311 227.567 73.931 231.063 73.5964 235.101C72.0964 252.767 69.8465 279.489 80.231 285.951C84.4541 288.582 90.6156 287.52 98.4963 282.766C118.042 271.032 124.654 241.644 129.488 220.194C129.846 218.578 130.204 217.009 130.55 215.486C133.515 202.586 135.454 189.386 137.334 176.613C140.796 153.006 144.408 128.59 154.642 105.941L155.704 106.425C145.584 128.914 141.996 153.248 138.534 176.809C136.654 189.605 134.704 202.828 131.738 215.775C131.381 217.286 131.035 218.855 130.665 220.471C125.796 242.128 119.127 271.782 99.154 283.782C93.8348 286.943 89.2656 288.536 85.4579 288.536Z" fill="white"/>
<path d="M66.5005 298.724L66.4082 297.57C96.6965 295.262 111.062 285.455 120.2 277.205C149.715 250.528 149.173 211.217 148.642 173.198C148.331 150.121 147.996 126.329 154.561 106.033L155.715 106.379C149.196 126.502 149.531 150.225 149.842 173.186C150.373 211.459 150.927 251.024 120.996 278.059C103.32 294.016 82.5504 297.489 66.5005 298.724Z" fill="white"/>
<path d="M73.6299 353.705L72.6953 353.024C82.0183 340.332 92.1606 326.878 104.576 315.063C111.05 309.139 117.833 303.563 124.895 298.355C135.741 290.047 146.956 281.463 154.976 271.055C169.733 251.878 169.975 228.536 168.199 208.217C167.287 197.579 164.114 185.486 160.756 172.69C154.629 149.325 148.306 125.175 154.56 106.022L155.714 106.391C149.564 125.221 155.852 149.198 161.933 172.39C165.302 185.244 168.475 197.382 169.399 208.159C171.164 228.686 170.945 252.305 155.945 271.782C147.868 282.328 136.56 290.959 125.657 299.301C118.629 304.486 111.877 310.036 105.43 315.928C93.026 327.651 82.9183 341.024 73.6299 353.705Z" fill="white"/>
<path d="M104.391 368.358L103.387 367.805C114.071 348.397 128.275 331.736 149.436 313.793C153.463 310.332 157.975 306.974 162.763 303.409C176.69 292.897 192.475 280.99 199.051 266.001C212.321 235.702 195.313 206.302 178.859 177.86C165.382 154.552 151.444 130.46 154.536 106.183L155.69 106.322C152.644 130.218 166.479 154.137 179.921 177.283C196.513 205.967 213.671 235.632 200.159 266.463C193.467 281.728 177.555 293.728 163.513 304.332C158.748 307.92 154.283 311.324 150.244 314.716C129.129 332.52 115.006 349.078 104.391 368.358Z" fill="white"/>
<path d="M144.246 349.447L143.254 348.858C155.312 328.574 172.215 316.643 193.054 303.155C195.927 301.297 199.354 299.301 202.977 297.178C218.703 287.947 238.261 276.536 241.665 261.051C245.784 242.221 228.396 219.882 215.703 203.567C213.5 200.74 211.411 198.063 209.634 195.652C205.019 189.352 199.861 182.959 194.888 176.729C177.65 155.233 159.823 132.998 154.504 106.344L155.658 106.114C160.873 132.514 178.608 154.644 195.765 176.036C200.75 182.244 205.896 188.671 210.546 194.982C212.311 197.382 214.388 200.059 216.592 202.886C229.423 219.375 247.007 241.955 242.761 261.317C239.299 277.297 219.453 288.882 203.53 298.239C199.907 300.351 196.504 302.347 193.642 304.193C172.965 317.532 156.177 329.381 144.246 349.447Z" fill="white"/>
</g>
<defs>
<clipPath id="clip0_51_6615">
<rect width="243" height="178" fill="white"/>
</clipPath>
</defs>
</svg>
