<svg width="12" height="8" viewBox="0 0 12 8" fill="none" xmlns="http://www.w3.org/2000/svg">
<rect width="12" height="8" fill="#F5F5F5"/>
<g clip-path="url(#clip0_0_1)">
<rect width="375" height="812" transform="translate(-129 -134)" fill="white"/>
<rect x="-117" y="-24" width="351" height="149" rx="15" fill="#28A9F1"/>
<path d="M10.6283 3.481C10.8653 3.791 10.8653 4.2095 10.6283 4.519C9.88176 5.4935 8.09076 7.5 5.99976 7.5C3.90876 7.5 2.11776 5.4935 1.37126 4.519C1.25595 4.37057 1.19336 4.18796 1.19336 4C1.19336 3.81204 1.25595 3.62943 1.37126 3.481C2.11776 2.5065 3.90876 0.5 5.99976 0.5C8.09076 0.5 9.88176 2.5065 10.6283 3.481V3.481Z" stroke="#0A0A0A" stroke-linecap="round" stroke-linejoin="round"/>
<path d="M6 5.5C6.82843 5.5 7.5 4.82843 7.5 4C7.5 3.17157 6.82843 2.5 6 2.5C5.17157 2.5 4.5 3.17157 4.5 4C4.5 4.82843 5.17157 5.5 6 5.5Z" stroke="#0A0A0A" stroke-linecap="round" stroke-linejoin="round"/>
</g>
<defs>
<clipPath id="clip0_0_1">
<rect width="375" height="812" fill="white" transform="translate(-129 -134)"/>
</clipPath>
</defs>
</svg>
