<svg width="12" height="23" viewBox="0 0 12 23" fill="none" xmlns="http://www.w3.org/2000/svg">
<mask id="path-1-inside-1_48_7097" fill="white">
<path d="M1.2248 22.1602C0.982983 22.1602 0.741165 22.0711 0.550256 21.8802C0.181165 21.5111 0.181165 20.9002 0.550256 20.5311L8.84844 12.2329C9.45935 11.622 9.45935 10.6292 8.84844 10.0183L0.550256 1.72015C0.181165 1.35106 0.181165 0.740147 0.550256 0.371056C0.919347 0.00196555 1.53026 0.00196555 1.89935 0.371056L10.1975 8.66924C10.8466 9.31833 11.2157 10.1965 11.2157 11.1256C11.2157 12.0547 10.8593 12.9329 10.1975 13.582L1.89935 21.8802C1.70844 22.0583 1.46662 22.1602 1.2248 22.1602Z"/>
</mask>
<path d="M1.2248 22.1602C0.982983 22.1602 0.741165 22.0711 0.550256 21.8802C0.181165 21.5111 0.181165 20.9002 0.550256 20.5311L8.84844 12.2329C9.45935 11.622 9.45935 10.6292 8.84844 10.0183L0.550256 1.72015C0.181165 1.35106 0.181165 0.740147 0.550256 0.371056C0.919347 0.00196555 1.53026 0.00196555 1.89935 0.371056L10.1975 8.66924C10.8466 9.31833 11.2157 10.1965 11.2157 11.1256C11.2157 12.0547 10.8593 12.9329 10.1975 13.582L1.89935 21.8802C1.70844 22.0583 1.46662 22.1602 1.2248 22.1602Z" fill="black"/>
<path d="M0.550256 20.5311L-1.24965 18.7311H-1.24965L0.550256 20.5311ZM8.84844 12.2329L10.6483 14.0328V14.0328L8.84844 12.2329ZM8.84844 10.0183L7.04853 11.8182L8.84844 10.0183ZM0.550256 1.72015L2.35016 -0.0797607L0.550256 1.72015ZM1.89935 0.371056L0.0994379 2.17097H0.099438L1.89935 0.371056ZM10.1975 8.66924L11.9974 6.86933L10.1975 8.66924ZM10.1975 13.582L8.41518 11.7647L8.40636 11.7733L8.39762 11.7821L10.1975 13.582ZM1.89935 21.8802L3.63616 23.741L3.66823 23.7111L3.69925 23.6801L1.89935 21.8802ZM1.2248 19.6147C1.62165 19.6147 2.03855 19.7686 2.35016 20.0802L-1.24965 23.6801C-0.556219 24.3735 0.344319 24.7056 1.2248 24.7056V19.6147ZM2.35016 20.0802C2.97514 20.7052 2.97514 21.706 2.35016 22.331L-1.24965 18.7311C-2.61281 20.0943 -2.61281 22.3169 -1.24965 23.6801L2.35016 20.0802ZM2.35016 22.331L10.6483 14.0328L7.04853 10.433L-1.24965 18.7311L2.35016 22.331ZM10.6483 14.0328C12.2533 12.4278 12.2533 9.82339 10.6483 8.21842L7.04853 11.8182C6.66538 11.4351 6.66538 10.8161 7.04853 10.433L10.6483 14.0328ZM10.6483 8.21842L2.35016 -0.0797607L-1.24965 3.52006L7.04853 11.8182L10.6483 8.21842ZM2.35016 -0.0797607C2.97514 0.54521 2.97514 1.54599 2.35016 2.17096L-1.24965 -1.42885C-2.61281 -0.0656991 -2.61281 2.1569 -1.24965 3.52006L2.35016 -0.0797607ZM2.35016 2.17096C1.72519 2.79594 0.724409 2.79594 0.0994379 2.17096L3.69925 -1.42885C2.3361 -2.792 0.1135 -2.792 -1.24965 -1.42885L2.35016 2.17096ZM0.099438 2.17097L8.39762 10.4691L11.9974 6.86933L3.69925 -1.42885L0.099438 2.17097ZM8.39762 10.4691C8.57338 10.6449 8.67026 10.8773 8.67026 11.1256H13.7612C13.7612 9.51573 13.1199 7.99175 11.9974 6.86933L8.39762 10.4691ZM8.67026 11.1256C8.67026 11.3954 8.57179 11.6111 8.41518 11.7647L11.9799 15.3993C13.1469 14.2547 13.7612 12.714 13.7612 11.1256H8.67026ZM8.39762 11.7821L0.0994381 20.0802L3.69925 23.6801L11.9974 15.3819L8.39762 11.7821ZM0.162536 20.0193C0.390171 19.8068 0.753108 19.6147 1.2248 19.6147V24.7056C2.18013 24.7056 3.0267 24.3098 3.63616 23.741L0.162536 20.0193Z" fill="black" mask="url(#path-1-inside-1_48_7097)"/>
</svg>
