<svg width="24" height="24" viewBox="0 0 24 24" fill="none" xmlns="http://www.w3.org/2000/svg">
<path d="M23.3962 22.5516C23.3562 22.0464 22.9056 21.5947 22.3969 21.5632C22.2865 21.5564 22.267 21.52 22.2691 21.42C22.2753 21.0821 22.2738 20.7439 22.2709 20.406C22.2662 19.8461 21.8556 19.3547 21.3063 19.2858C21.1446 19.2656 21.1261 19.2147 21.1264 19.0741C21.1305 16.1704 21.1302 13.2663 21.1269 10.3626C21.1266 10.2164 21.1355 10.1458 21.319 10.1164C21.8556 10.0309 22.1769 9.66296 22.267 9.08803C22.2756 9.03304 22.2738 8.99804 22.3501 8.99069C22.9215 8.93629 23.3085 8.56516 23.4027 8.00229C23.4201 7.89877 23.401 7.8426 23.3082 7.7829C20.0022 5.6567 16.7 3.52433 13.3928 1.3999C12.5528 0.860259 11.6904 0.856141 10.8425 1.38666C8.54608 2.82324 6.2541 4.26659 3.96035 5.70729C2.85765 6.39984 1.75555 7.09328 0.65285 7.78555C0.592178 7.82378 0.53504 7.85084 0.543876 7.94582C0.593061 8.47105 0.98036 8.90776 1.50697 8.97981C1.66071 9.00069 1.69134 9.05597 1.70901 9.18713C1.77587 9.68237 2.20941 10.0929 2.70803 10.1314C2.80935 10.1394 2.82997 10.1673 2.82967 10.2632C2.82702 13.2243 2.82702 16.1851 2.82967 19.1462C2.82967 19.2438 2.80523 19.2708 2.70597 19.2776C2.21824 19.3111 1.77646 19.7249 1.70872 20.2084C1.65246 20.611 1.69222 21.0162 1.68663 21.4203C1.68515 21.5208 1.66689 21.5558 1.55733 21.5629C1.04928 21.595 0.595418 22.052 0.560075 22.5534C0.537986 22.9048 0.555068 23.2568 0.550945 23.6085C0.548 23.8567 0.550356 23.8573 0.799523 23.8573C8.25214 23.8573 15.7045 23.8573 23.1571 23.8573C23.2095 23.8573 23.2619 23.8588 23.3141 23.8526C23.3756 23.8453 23.406 23.8156 23.4048 23.7494C23.3986 23.3503 23.4151 22.951 23.3962 22.5516ZM8.17262 19.1212C8.17262 19.2335 8.15377 19.275 8.02889 19.2744C7.10468 19.2688 6.18017 19.2688 5.25596 19.2744C5.13756 19.275 5.11665 19.237 5.11694 19.1294C5.12018 17.6499 5.1193 16.1701 5.1193 14.6905C5.1193 13.2251 5.12077 11.7597 5.11665 10.2943C5.11635 10.1755 5.1352 10.1332 5.26921 10.1344C6.18871 10.1414 7.10821 10.1405 8.02772 10.1352C8.15024 10.1347 8.17321 10.1714 8.17292 10.2861C8.16938 13.231 8.16938 16.1759 8.17262 19.1212ZM13.3456 19.2747C12.4305 19.2682 11.5152 19.2697 10.6001 19.2735C10.4944 19.2738 10.4558 19.2561 10.4558 19.137C10.4596 16.1812 10.4593 13.2251 10.4564 10.2693C10.4564 10.1647 10.4784 10.1347 10.588 10.1352C11.5128 10.1402 12.4376 10.1405 13.3621 10.135C13.4811 10.1341 13.4985 10.1738 13.4982 10.2788C13.4952 11.7545 13.4961 13.2299 13.4961 14.7055C13.4961 16.1762 13.4947 17.6472 13.4991 19.1179C13.4997 19.24 13.4752 19.2756 13.3456 19.2747ZM18.685 19.2744C17.7697 19.2682 16.8546 19.2694 15.9392 19.2735C15.8273 19.2741 15.7846 19.2556 15.7849 19.1297C15.7887 16.1783 15.7884 13.2269 15.7852 10.2755C15.7852 10.1611 15.8164 10.1347 15.9277 10.1352C16.8525 10.1397 17.7773 10.1402 18.7021 10.135C18.8191 10.1344 18.8414 10.1697 18.8411 10.2782C18.8376 11.7539 18.8388 13.2296 18.8388 14.7053C18.8388 16.1762 18.837 17.6472 18.842 19.1179C18.842 19.2447 18.8117 19.2753 18.685 19.2744Z" fill="#B8B8B8"/>
</svg>
