<svg width="179" height="179" viewBox="0 0 179 179" fill="none" xmlns="http://www.w3.org/2000/svg">
<path d="M178.614 89.4415C178.614 138.603 138.761 178.457 89.5992 178.457C40.4375 178.457 0.583984 138.603 0.583984 89.4415C0.583984 40.2797 40.4375 0.42627 89.5992 0.42627C138.761 0.42627 178.614 40.2797 178.614 89.4415Z" fill="#FBE574"/>
<path d="M178.614 89.4415C178.614 138.603 138.761 178.457 89.5992 178.457C40.4375 178.457 0.583984 138.603 0.583984 89.4415C0.583984 40.2797 40.4375 0.42627 89.5992 0.42627C138.761 0.42627 178.614 40.2797 178.614 89.4415Z" fill="#FBE574"/>
<path d="M178.614 89.4415C178.614 138.603 138.761 178.457 89.5992 178.457C40.4375 178.457 0.583984 138.603 0.583984 89.4415C0.583984 40.2797 40.4375 0.42627 89.5992 0.42627C138.761 0.42627 178.614 40.2797 178.614 89.4415Z" fill="#D3FFCC"/>
<circle cx="89.5978" cy="89.4416" r="69.5432" fill="#87FB74"/>
<path d="M82.8978 113.086C81.5619 113.086 80.2928 112.558 79.3577 111.635L60.4547 92.9631C58.5177 91.0497 58.5177 87.8828 60.4547 85.9695C62.3918 84.0561 65.5979 84.0561 67.535 85.9695L82.8978 101.144L117.23 67.2319C119.167 65.3185 122.374 65.3185 124.311 67.2319C126.248 69.1452 126.248 72.3121 124.311 74.2255L86.4379 111.635C85.5028 112.558 84.2337 113.086 82.8978 113.086Z" fill="#F9F9FB"/>
</svg>
