<svg width="179" height="179" viewBox="0 0 179 179" fill="none" xmlns="http://www.w3.org/2000/svg">
<rect width="179" height="179" fill="#F5F5F5"/>
<g clip-path="url(#clip0_0_1)">
<rect width="1512" height="982" transform="translate(-662 -375)" fill="white"/>
<rect x="-505" y="-103" width="1191" height="536" rx="13" fill="#EFF1F7"/>
<rect x="76" y="-76" width="550" height="253" rx="14" fill="white"/>
<path opacity="0.5" d="M149.41 35.6223C148.294 35.6223 147.328 35.3523 146.512 34.8123C145.708 34.2602 145.09 33.4982 144.658 32.5262C144.226 31.5422 144.01 30.4022 144.01 29.1062C144.01 27.8102 144.226 26.6762 144.658 25.7042C145.09 24.7202 145.708 23.9582 146.512 23.4182C147.328 22.8662 148.294 22.5902 149.41 22.5902C150.526 22.5902 151.486 22.8662 152.29 23.4182C153.094 23.9582 153.712 24.7202 154.144 25.7042C154.576 26.6762 154.792 27.8102 154.792 29.1062C154.792 30.4022 154.576 31.5422 154.144 32.5262C153.712 33.4982 153.094 34.2602 152.29 34.8123C151.486 35.3523 150.526 35.6223 149.41 35.6223ZM149.41 34.2902C150.142 34.2902 150.796 34.0862 151.372 33.6782C151.96 33.2582 152.416 32.6642 152.74 31.8962C153.076 31.1162 153.244 30.1862 153.244 29.1062C153.244 28.0262 153.076 27.1022 152.74 26.3342C152.416 25.5662 151.96 24.9782 151.372 24.5702C150.796 24.1502 150.142 23.9402 149.41 23.9402C148.666 23.9402 148.006 24.1502 147.43 24.5702C146.854 24.9782 146.398 25.5662 146.062 26.3342C145.726 27.1022 145.558 28.0262 145.558 29.1062C145.558 30.1862 145.726 31.1162 146.062 31.8962C146.398 32.6642 146.854 33.2582 147.43 33.6782C148.006 34.0862 148.666 34.2902 149.41 34.2902ZM158.219 35.4062V24.4982L156.185 24.9482V23.9042L158.723 22.8062H159.749V35.4062H158.219ZM162.21 35.4062V34.3442C163.062 33.6722 163.866 32.9942 164.622 32.3102C165.39 31.6142 166.068 30.9302 166.656 30.2582C167.256 29.5862 167.724 28.9262 168.06 28.2782C168.408 27.6302 168.582 27.0062 168.582 26.4062C168.582 25.9622 168.504 25.5482 168.348 25.1642C168.204 24.7802 167.964 24.4742 167.628 24.2462C167.292 24.0062 166.836 23.8862 166.26 23.8862C165.708 23.8862 165.246 24.0122 164.874 24.2642C164.502 24.5042 164.22 24.8282 164.028 25.2363C163.848 25.6442 163.758 26.0822 163.758 26.5502H162.3C162.3 25.7222 162.474 25.0142 162.822 24.4262C163.17 23.8262 163.644 23.3702 164.244 23.0582C164.844 22.7462 165.522 22.5902 166.278 22.5902C167.394 22.5902 168.306 22.9082 169.014 23.5442C169.734 24.1682 170.094 25.1042 170.094 26.3522C170.094 27.0962 169.908 27.8342 169.536 28.5662C169.164 29.2862 168.69 29.9882 168.114 30.6722C167.538 31.3442 166.92 31.9742 166.26 32.5622C165.612 33.1502 165.006 33.6782 164.442 34.1462H170.526V35.4062H162.21ZM176.633 35.6223C175.829 35.6223 175.103 35.4783 174.455 35.1902C173.807 34.8902 173.285 34.4462 172.889 33.8582C172.505 33.2702 172.301 32.5382 172.277 31.6622H173.807C173.819 32.3822 174.071 33.0062 174.563 33.5342C175.055 34.0502 175.745 34.3082 176.633 34.3082C177.521 34.3082 178.187 34.0622 178.631 33.5702C179.087 33.0782 179.315 32.4842 179.315 31.7882C179.315 31.2002 179.171 30.7202 178.883 30.3482C178.607 29.9762 178.229 29.7002 177.749 29.5202C177.281 29.3402 176.765 29.2502 176.201 29.2502H175.265V27.9722H176.201C177.017 27.9722 177.653 27.7862 178.109 27.4142C178.577 27.0422 178.811 26.5202 178.811 25.8482C178.811 25.2842 178.625 24.8222 178.253 24.4622C177.893 24.0902 177.353 23.9042 176.633 23.9042C175.937 23.9042 175.379 24.1142 174.959 24.5342C174.539 24.9422 174.305 25.4582 174.257 26.0822H172.727C172.763 25.3982 172.943 24.7922 173.267 24.2642C173.603 23.7362 174.059 23.3282 174.635 23.0402C175.211 22.7402 175.877 22.5902 176.633 22.5902C177.449 22.5902 178.127 22.7342 178.667 23.0222C179.219 23.3102 179.633 23.6942 179.909 24.1742C180.197 24.6542 180.341 25.1822 180.341 25.7582C180.341 26.3942 180.167 26.9762 179.819 27.5042C179.471 28.0202 178.949 28.3682 178.253 28.5482C178.997 28.7042 179.615 29.0582 180.107 29.6102C180.599 30.1622 180.845 30.8882 180.845 31.7882C180.845 32.4842 180.683 33.1262 180.359 33.7142C180.047 34.2902 179.579 34.7522 178.955 35.1002C178.331 35.4482 177.557 35.6223 176.633 35.6223ZM188.997 35.4062V32.7062H182.607V31.5362L188.727 22.8062H190.491V31.3742H192.363V32.7062H190.491V35.4062H188.997ZM184.281 31.3742H189.069V24.4802L184.281 31.3742ZM198.473 35.6223C197.609 35.6223 196.859 35.4662 196.223 35.1542C195.587 34.8422 195.077 34.4162 194.693 33.8762C194.321 33.3242 194.093 32.7002 194.009 32.0042H195.485C195.629 32.7002 195.965 33.2642 196.493 33.6962C197.021 34.1162 197.687 34.3262 198.491 34.3262C199.091 34.3262 199.607 34.1882 200.039 33.9122C200.471 33.6242 200.801 33.2402 201.029 32.7603C201.269 32.2802 201.389 31.7462 201.389 31.1582C201.389 30.2222 201.125 29.4662 200.597 28.8902C200.069 28.3142 199.385 28.0262 198.545 28.0262C197.849 28.0262 197.255 28.1822 196.763 28.4942C196.271 28.8062 195.911 29.2142 195.683 29.7182H194.243L195.323 22.8062H201.929V24.1202H196.493L195.755 27.9542C196.043 27.6062 196.439 27.3182 196.943 27.0902C197.459 26.8622 198.047 26.7482 198.707 26.7482C199.535 26.7482 200.255 26.9402 200.867 27.3242C201.491 27.7082 201.977 28.2302 202.325 28.8902C202.673 29.5502 202.847 30.3002 202.847 31.1402C202.847 31.9442 202.673 32.6882 202.325 33.3722C201.989 34.0562 201.491 34.6022 200.831 35.0102C200.183 35.4182 199.397 35.6223 198.473 35.6223ZM209.747 35.6223C208.835 35.6223 208.067 35.4542 207.443 35.1182C206.819 34.7702 206.315 34.3082 205.931 33.7322C205.559 33.1562 205.283 32.5142 205.103 31.8062C204.935 31.0862 204.851 30.3542 204.851 29.6102C204.851 28.2182 205.043 27.0002 205.427 25.9562C205.811 24.9002 206.363 24.0782 207.083 23.4902C207.815 22.8902 208.697 22.5902 209.729 22.5902C210.521 22.5902 211.199 22.7462 211.763 23.0582C212.327 23.3702 212.771 23.7902 213.095 24.3182C213.431 24.8342 213.641 25.4102 213.725 26.0462H212.321C212.189 25.3622 211.895 24.8342 211.439 24.4622C210.983 24.0902 210.407 23.9042 209.711 23.9042C208.763 23.9042 207.965 24.3542 207.317 25.2542C206.681 26.1422 206.339 27.5342 206.291 29.4302C206.579 28.8662 207.035 28.3802 207.659 27.9722C208.295 27.5522 209.057 27.3422 209.945 27.3422C210.665 27.3422 211.337 27.5102 211.961 27.8462C212.597 28.1822 213.113 28.6562 213.509 29.2682C213.905 29.8682 214.103 30.5762 214.103 31.3922C214.103 32.1002 213.929 32.7782 213.581 33.4262C213.233 34.0742 212.729 34.6022 212.069 35.0102C211.421 35.4182 210.647 35.6223 209.747 35.6223ZM209.639 34.2902C210.203 34.2902 210.707 34.1702 211.151 33.9302C211.595 33.6902 211.943 33.3602 212.195 32.9402C212.447 32.5082 212.573 32.0162 212.573 31.4642C212.573 30.6122 212.291 29.9342 211.727 29.4302C211.175 28.9142 210.479 28.6562 209.639 28.6562C209.075 28.6562 208.571 28.7882 208.127 29.0522C207.683 29.3042 207.329 29.6462 207.065 30.0782C206.813 30.5102 206.687 30.9782 206.687 31.4822C206.687 32.0222 206.813 32.5082 207.065 32.9402C207.329 33.3602 207.683 33.6902 208.127 33.9302C208.571 34.1702 209.075 34.2902 209.639 34.2902Z" fill="#1E1E1E"/>
<rect x="127.499" y="4.49868" width="428.003" height="44.0026" rx="6.42859" stroke="#9E9E9E" stroke-width="0.997365"/>
<rect opacity="0.2" x="-699" y="-386" width="1579" height="995" fill="black"/>
<rect x="-47" y="-26" width="274" height="274" rx="44.5076" fill="#F9F9FB"/>
<path d="M178.614 89.441C178.614 138.603 138.761 178.456 89.5992 178.456C40.4375 178.456 0.583984 138.603 0.583984 89.441C0.583984 40.2793 40.4375 0.425781 89.5992 0.425781C138.761 0.425781 178.614 40.2793 178.614 89.441Z" fill="#FBE574"/>
<path d="M178.614 89.441C178.614 138.603 138.761 178.456 89.5992 178.456C40.4375 178.456 0.583984 138.603 0.583984 89.441C0.583984 40.2793 40.4375 0.425781 89.5992 0.425781C138.761 0.425781 178.614 40.2793 178.614 89.441Z" fill="#FBE574"/>
<path d="M178.614 89.441C178.614 138.603 138.761 178.456 89.5992 178.456C40.4375 178.456 0.583984 138.603 0.583984 89.441C0.583984 40.2793 40.4375 0.425781 89.5992 0.425781C138.761 0.425781 178.614 40.2793 178.614 89.441Z" fill="#D3FFCC"/>
<circle cx="89.5978" cy="89.4416" r="69.5432" fill="#87FB74"/>
<path d="M82.8978 113.086C81.5619 113.086 80.2928 112.558 79.3577 111.635L60.4547 92.9631C58.5177 91.0497 58.5177 87.8828 60.4547 85.9695C62.3918 84.0561 65.5979 84.0561 67.535 85.9695L82.8978 101.144L117.23 67.2319C119.167 65.3185 122.374 65.3185 124.311 67.2319C126.248 69.1452 126.248 72.3121 124.311 74.2255L86.4379 111.635C85.5028 112.558 84.2337 113.086 82.8978 113.086Z" fill="#F9F9FB"/>
</g>
<defs>
<clipPath id="clip0_0_1">
<rect width="1512" height="982" fill="white" transform="translate(-662 -375)"/>
</clipPath>
</defs>
</svg>
