<svg width="24" height="24" viewBox="0 0 24 24" fill="none" xmlns="http://www.w3.org/2000/svg">
<g clip-path="url(#clip0_141_3939)">
<path d="M5.5 3.5H18L22 10.5L18 15.5L12 20.5L7 15L3 10L5.5 7.5V3.5Z" fill="white"/>
<path d="M18.7541 10.5181C18.7541 11.1431 16.5161 11.6661 13.5161 11.7981L13.5181 11.7991C13.0186 11.8261 12.5184 11.8371 12.0181 11.8321C11.2391 11.8321 10.6881 11.8091 10.4941 11.7991C7.48813 11.6671 5.24413 11.1441 5.24413 10.5181C5.24413 9.89205 7.48813 9.36806 10.4941 9.23406V11.2781C10.6901 11.2931 11.2531 11.3261 12.0311 11.3261C12.9641 11.3261 13.4311 11.2861 13.5161 11.2791V9.23606C16.5161 9.36906 18.7541 9.89305 18.7541 10.5181ZM23.9441 11.0641L12.1241 22.3901C12.0906 22.4221 12.046 22.4401 11.9996 22.4401C11.9532 22.4401 11.9086 22.4221 11.8751 22.3901L0.0561291 11.0641C0.0283933 11.038 0.00973732 11.0037 0.00289834 10.9663C-0.00394065 10.9289 0.00139732 10.8902 0.0181291 10.8561L4.39413 1.66306C4.40858 1.63215 4.43165 1.60609 4.46057 1.58799C4.48949 1.5699 4.52302 1.56054 4.55713 1.56106H19.4451C19.4788 1.56121 19.5118 1.57098 19.5401 1.58923C19.5685 1.60747 19.591 1.63343 19.6051 1.66406L23.9821 10.8561C23.9989 10.8902 24.0042 10.9289 23.9974 10.9663C23.9905 11.0037 23.9719 11.038 23.9441 11.0641ZM19.4661 10.6601C19.4661 9.85406 16.9141 9.18006 13.5191 9.02306V7.19506H17.7051V4.40506H6.30813V7.19506H10.4931V9.02406C7.09113 9.18006 4.53313 9.85406 4.53313 10.6611C4.53313 11.4691 7.09113 12.1411 10.4931 12.2991V18.1611H13.5181V12.2971C16.9121 12.1401 19.4661 11.4671 19.4661 10.6601Z" fill="#00A857"/>
</g>
<defs>
<clipPath id="clip0_141_3939">
<rect width="24" height="24" fill="white"/>
</clipPath>
</defs>
</svg>
