<svg width="35" height="35" viewBox="0 0 35 35" fill="none" xmlns="http://www.w3.org/2000/svg">
<path d="M29.4884 16.9794L27.5945 14.779C27.2324 14.3613 26.94 13.5814 26.94 13.0244V10.6569C26.94 9.18073 25.7284 7.96916 24.2522 7.96916H21.8848C21.3416 7.96916 20.5479 7.67671 20.1301 7.31463L17.9297 5.42068C16.9688 4.59903 15.3952 4.59903 14.4203 5.42068L12.2339 7.32856C11.8162 7.67671 11.0224 7.96916 10.4792 7.96916H8.07002C6.59385 7.96916 5.38228 9.18073 5.38228 10.6569V13.0383C5.38228 13.5814 5.08983 14.3613 4.74168 14.779L2.86165 16.9933C2.05393 17.9542 2.05393 19.5139 2.86165 20.4748L4.74168 22.6891C5.08983 23.1069 5.38228 23.8867 5.38228 24.4299V26.8112C5.38228 28.2874 6.59385 29.499 8.07002 29.499H10.4792C11.0224 29.499 11.8162 29.7914 12.2339 30.1535L14.4343 32.0475C15.3952 32.8691 16.9688 32.8691 17.9437 32.0475L20.144 30.1535C20.5618 29.7914 21.3416 29.499 21.8987 29.499H24.2661C25.7423 29.499 26.9539 28.2874 26.9539 26.8112V24.4438C26.9539 23.9007 27.2463 23.1069 27.6084 22.6891L29.5024 20.4888C30.3101 19.5279 30.3101 17.9403 29.4884 16.9794ZM21.9683 16.102L15.242 22.8284C15.047 23.0233 14.7824 23.1347 14.5039 23.1347C14.2254 23.1347 13.9608 23.0233 13.7658 22.8284L10.3957 19.4582C9.99183 19.0544 9.99183 18.3859 10.3957 17.9821C10.7995 17.5782 11.468 17.5782 11.8719 17.9821L14.5039 20.6141L20.4921 14.6259C20.896 14.222 21.5645 14.222 21.9683 14.6259C22.3722 15.0297 22.3722 15.6982 21.9683 16.102Z" fill="#39BE0A"/>
</svg>
