<svg width="29" height="29" viewBox="0 0 29 29" fill="none" xmlns="http://www.w3.org/2000/svg">
<rect width="29" height="29" fill="#F5F5F5"/>
<g id="MacBook Pro 14&#34; - 42" clip-path="url(#clip0_0_1)">
<rect width="1512" height="982" transform="translate(-1188 -315)" fill="white"/>
<rect id="Rectangle 25" x="-424.455" y="-33.7236" width="487.455" height="95.4546" rx="20.3636" fill="#DBFFC9"/>
<g id="vuesax/outline/tick-circle">
<g id="tick-circle">
<path id="Vector" d="M14.6369 28.3212C7.08963 28.3212 0.955078 22.1866 0.955078 14.6393C0.955078 7.09207 7.08963 0.95752 14.6369 0.95752C22.1842 0.95752 28.3187 7.09207 28.3187 14.6393C28.3187 22.1866 22.1842 28.3212 14.6369 28.3212ZM14.6369 2.86661C8.14599 2.86661 2.86417 8.14843 2.86417 14.6393C2.86417 21.1303 8.14599 26.4121 14.6369 26.4121C21.1278 26.4121 26.4096 21.1303 26.4096 14.6393C26.4096 8.14843 21.1278 2.86661 14.6369 2.86661Z" fill="black"/>
<path id="Vector_2" d="M12.8286 19.1965C12.574 19.1965 12.3322 19.0947 12.154 18.9165L8.55221 15.3147C8.18312 14.9456 8.18312 14.3347 8.55221 13.9656C8.9213 13.5965 9.53221 13.5965 9.9013 13.9656L12.8286 16.8929L19.3704 10.351C19.7395 9.98195 20.3504 9.98195 20.7195 10.351C21.0886 10.7201 21.0886 11.331 20.7195 11.7001L13.5031 18.9165C13.3249 19.0947 13.0831 19.1965 12.8286 19.1965Z" fill="black"/>
</g>
</g>
</g>
<defs>
<clipPath id="clip0_0_1">
<rect width="1512" height="982" fill="white" transform="translate(-1188 -315)"/>
</clipPath>
</defs>
</svg>
