<svg width="16" height="12" viewBox="0 0 16 12" fill="none" xmlns="http://www.w3.org/2000/svg">
<rect width="16" height="12" fill="#F5F5F5"/>
<rect width="1512" height="982" transform="translate(-1188 -396)" fill="white"/>
<rect x="-1031" y="-124" width="1191" height="582" rx="13" fill="#EFF1F7"/>
<rect x="-450" y="-97" width="550" height="462" rx="14" fill="white"/>
<rect x="-398.501" y="-16.5013" width="428.003" height="44.0026" rx="6.42859" stroke="#9E9E9E" stroke-width="0.997365"/>
<path d="M14.5949 5.52656C14.9203 5.95219 14.9203 6.5268 14.5949 6.95175C13.5699 8.28975 11.1109 11.0447 8.23989 11.0447C5.36892 11.0447 2.90984 8.28975 1.88489 6.95175C1.72657 6.74794 1.64063 6.49722 1.64062 6.23915C1.64063 5.98108 1.72657 5.73036 1.88489 5.52656C2.90984 4.18855 5.36892 1.43359 8.23989 1.43359C11.1109 1.43359 13.5699 4.18855 14.5949 5.52656V5.52656Z" stroke="#A0A0A0" stroke-width="1.37302" stroke-linecap="round" stroke-linejoin="round"/>
<path d="M8.24116 8.29874C9.37861 8.29874 10.3007 7.37665 10.3007 6.23921C10.3007 5.10177 9.37861 4.17969 8.24116 4.17969C7.10372 4.17969 6.18164 5.10177 6.18164 6.23921C6.18164 7.37665 7.10372 8.29874 8.24116 8.29874Z" stroke="#A0A0A0" stroke-width="1.37302" stroke-linecap="round" stroke-linejoin="round"/>
</svg>
