<svg width="32" height="23" viewBox="0 0 32 23" fill="none" xmlns="http://www.w3.org/2000/svg">
<path d="M16.0237 0.416504C4.97096 0.416504 0.826172 11.4693 0.826172 11.4693C0.826172 11.4693 4.97096 22.522 16.0237 22.522C27.0765 22.522 31.2213 11.4693 31.2213 11.4693C31.2213 11.4693 27.0765 0.416504 16.0237 0.416504ZM16.0237 4.56129C19.8383 4.56129 22.9317 7.65468 22.9317 11.4693C22.9317 15.2838 19.8383 18.3772 16.0237 18.3772C12.2091 18.3772 9.11574 15.2838 9.11574 11.4693C9.11574 7.65468 12.2091 4.56129 16.0237 4.56129ZM16.0237 7.32448C14.9245 7.32448 13.8702 7.76116 13.0929 8.53846C12.3156 9.31576 11.8789 10.37 11.8789 11.4693C11.8789 12.5685 12.3156 13.6228 13.0929 14.4001C13.8702 15.1774 14.9245 15.614 16.0237 15.614C17.123 15.614 18.1772 15.1774 18.9545 14.4001C19.7318 13.6228 20.1685 12.5685 20.1685 11.4693C20.1685 10.37 19.7318 9.31576 18.9545 8.53846C18.1772 7.76116 17.123 7.32448 16.0237 7.32448Z" fill="#B5B5B5"/>
</svg>
