<svg width="151" height="151" viewBox="0 0 151 151" fill="none" xmlns="http://www.w3.org/2000/svg">
<path d="M150.03 75.0152C150.03 116.445 116.445 150.03 75.0152 150.03C33.5855 150.03 0 116.445 0 75.0152C0 33.5855 33.5855 0 75.0152 0C116.445 0 150.03 33.5855 150.03 75.0152Z" fill="#FBE574"/>
<path d="M150.03 75.0152C150.03 116.445 116.445 150.03 75.0152 150.03C33.5855 150.03 0 116.445 0 75.0152C0 33.5855 33.5855 0 75.0152 0C116.445 0 150.03 33.5855 150.03 75.0152Z" fill="#FBE574"/>
<path d="M150.03 75.0152C150.03 116.445 116.445 150.03 75.0152 150.03C33.5855 150.03 0 116.445 0 75.0152C0 33.5855 33.5855 0 75.0152 0C116.445 0 150.03 33.5855 150.03 75.0152Z" fill="#D3FFCC"/>
<circle cx="75.0139" cy="75.0153" r="58.6057" fill="#87FB74"/>
<path d="M69.3681 94.9412C68.2423 94.9412 67.1728 94.4964 66.3847 93.718L50.4548 77.983C48.8224 76.3705 48.8224 73.7017 50.4548 72.0893C52.0872 70.4769 54.7891 70.4769 56.4215 72.0893L69.3681 84.8775L98.3009 56.2987C99.9333 54.6863 102.635 54.6863 104.268 56.2987C105.9 57.9111 105.9 60.5799 104.268 62.1923L72.3514 93.718C71.5634 94.4964 70.4939 94.9412 69.3681 94.9412Z" fill="#F9F9FB"/>
</svg>
